<?xml version="1.0" encoding="utf-8"?>
<!-- Generator: Adobe Illustrator 16.0.0, SVG Export Plug-In . SVG Version: 6.00 Build 0)  -->
<!DOCTYPE svg PUBLIC "-//W3C//DTD SVG 1.1//EN" "http://www.w3.org/Graphics/SVG/1.1/DTD/svg11.dtd">
<svg version="1.1" id="圖層_1" xmlns="http://www.w3.org/2000/svg" xmlns:xlink="http://www.w3.org/1999/xlink" x="0px" y="0px"
	 width="128px" height="128px" viewBox="0 0 128 128" enable-background="new 0 0 128 128" xml:space="preserve">
<path fill-rule="evenodd" clip-rule="evenodd" fill="#C2AE7F" d="M101.475,0.197c0.133,1.394-0.346,2.508-1.559,3.242
	c-1.288,0.779-2.871,0.271-3.802-0.646c-0.531-0.522-0.449-1.281,0.112-1.811c0.289-0.273,0.6-0.524,0.9-0.786
	C98.576,0.197,100.024,0.197,101.475,0.197z"/>
<path fill-rule="evenodd" clip-rule="evenodd" fill="#111224" d="M128.197,75.381c-0.257-0.083-0.364,0.161-0.533,0.259
	c-1.016,0.579-1.946,0.191-2.156-0.956c-0.161-0.879-0.28-1.766-0.357-2.654c-0.132-1.549,1.112-2.463,2.574-1.926
	c0.155,0.059,0.315,0.109,0.473,0.163C128.197,71.972,128.197,73.677,128.197,75.381z"/>
<path fill-rule="evenodd" clip-rule="evenodd" fill="#C2AE7F" d="M128.197,95.073c-0.641,0.259-1.195,0.691-1.905,0.825
	c-0.864,0.162-1.573-0.018-2.095-0.728c-0.516-0.701-0.489-1.423,0.031-2.125c0.039-0.051,0.064-0.11,0.098-0.165
	c0.922-1.512,1.677-1.735,3.294-0.996c0.188,0.088,0.344,0.262,0.577,0.248C128.197,93.111,128.197,94.093,128.197,95.073z"/>
<path fill-rule="evenodd" clip-rule="evenodd" fill="#E48E27" d="M0.334,55.434c0.174-0.147,0.349-0.296,0.523-0.444
	c0.786-0.662,1.75-0.713,2.662-0.14c0.727,0.458,0.938,1.146,0.662,2.192c-0.141,0.535-0.316,1.06-0.61,1.534
	c-0.557,0.899-1.4,0.99-2.189,0.262c-0.458-0.424-0.61-1.053-1.048-1.485C0.334,56.713,0.334,56.073,0.334,55.434z"/>
<path fill-rule="evenodd" clip-rule="evenodd" fill="#C2AE7F" d="M81.782,0.197c0.158,1.123-0.268,2.086-0.885,2.967
	c-0.493,0.705-1.212,0.733-1.833,0.132C78.428,2.678,77.745,2.1,77.476,1.19c-0.098-0.331-0.183-0.65-0.168-0.993
	C78.8,0.197,80.29,0.197,81.782,0.197z"/>
<path fill-rule="evenodd" clip-rule="evenodd" fill="#DDD7C4" d="M128.197,44.95c-1.254,0.153-2.09-0.562-2.627-1.517
	c-0.754-1.345,0.642-3.489,2.627-2.958C128.197,41.966,128.197,43.458,128.197,44.95z"/>
<path fill-rule="evenodd" clip-rule="evenodd" fill="#C2AE7F" d="M128.197,128.062c-1.197-0.008-2.395-0.014-3.591-0.021
	c-0.075-0.873,0.054-1.689,0.654-2.375c0.876-1,1.575-1.16,2.937-0.675C128.197,126.017,128.197,127.038,128.197,128.062z"/>
<path fill-rule="evenodd" clip-rule="evenodd" fill="#E48E27" d="M128.197,8.636c-0.597,0.182-1.209,0.233-1.825,0.156
	c-0.827-0.104-1.257-0.587-1.124-1.383c0.185-1.111,0.777-2.003,1.728-2.626c0.373-0.244,0.797-0.27,1.222-0.111
	C128.197,5.994,128.197,7.314,128.197,8.636z"/>
<path fill-rule="evenodd" clip-rule="evenodd" fill="#E48E27" d="M0.334,4.672c0.815,0.231,1.36,0.724,1.554,1.577
	C2.187,7.561,1.672,8.36,0.334,8.636C0.334,7.314,0.334,5.994,0.334,4.672z"/>
<path fill-rule="evenodd" clip-rule="evenodd" fill="#DDD7C4" d="M0.334,40.603c0.72,0.136,1.16,0.607,1.314,1.277
	C1.85,42.752,1.61,43.594,1.2,44.365c-0.166,0.31-0.48,0.533-0.866,0.585C0.334,43.5,0.334,42.051,0.334,40.603z"/>
<path fill-rule="evenodd" clip-rule="evenodd" fill="#111224" d="M0.334,70.523c0.037-0.053,0.081-0.107,0.144-0.049
	c1.294,1.183,1.687,3.326,0.014,4.66c-0.03,0.025-0.104-0.004-0.157-0.01C0.334,73.592,0.334,72.057,0.334,70.523z"/>
<path fill-rule="evenodd" clip-rule="evenodd" fill="#DDD7C4" d="M50.968,0.197C51,0.665,50.667,0.885,50.311,0.927
	c-1.262,0.149-2.532,0.306-3.802,0.04c-0.438-0.092-0.795-0.292-0.911-0.77C47.388,0.197,49.178,0.197,50.968,0.197z"/>
<path fill-rule="evenodd" clip-rule="evenodd" fill="#C2AE7F" d="M128.197,0.708c-0.921,0.351-1.852,0.515-2.832,0.228
	c-0.401-0.118-0.688-0.298-0.748-0.738c1.022,0,2.046,0.028,3.067-0.013C128.128,0.166,128.295,0.271,128.197,0.708z"/>
<path fill-rule="evenodd" clip-rule="evenodd" fill="#C2AE7F" d="M0.334,92.26c0.594,0.279,1.031,0.676,1.005,1.396
	c-0.023,0.65-0.463,0.953-1.005,1.16C0.334,93.964,0.334,93.111,0.334,92.26z"/>
<path fill-rule="evenodd" clip-rule="evenodd" fill="#C2AE7F" d="M0.85,128.044c-0.172,0.007-0.344,0.011-0.516,0.018
	c0-0.938,0-1.876,0-2.813c0.608,0.32,0.914,1.238,0.705,2.133C0.987,127.605,0.914,127.822,0.85,128.044z"/>
<path fill-rule="evenodd" clip-rule="evenodd" fill="#E48E27" d="M25.907,0.197c-1.335,0.813-2.518,0.813-3.453,0
	C23.604,0.197,24.755,0.197,25.907,0.197z"/>
<path fill-rule="evenodd" clip-rule="evenodd" fill="#111224" d="M52.475,13.322c-0.682,0-1.149,0.015-1.615-0.004
	c-0.78-0.032-1.402-0.314-1.668-1.125c-0.28-0.858-0.086-1.637,0.563-2.209c0.87-0.766,1.911-1.087,3.073-0.738
	c1.179,0.355,1.784,1.27,2.104,2.365c0.249,0.849-0.261,1.517-1.145,1.627C53.282,13.3,52.771,13.304,52.475,13.322z"/>
<path fill-rule="evenodd" clip-rule="evenodd" fill="#111224" d="M19.672,114.127c-0.273-0.035-0.551-0.053-0.819-0.109
	c-0.983-0.209-1.425-1.021-0.976-1.922c0.406-0.814,0.898-1.588,1.387-2.357c0.568-0.893,1.134-1.149,1.954-0.957
	c0.813,0.191,1.518,0.925,1.59,1.796C22.974,112.593,21.733,114.193,19.672,114.127z"/>
<path fill-rule="evenodd" clip-rule="evenodd" fill="#111224" d="M120.806,118.095c-0.32,0-0.639,0.005-0.957,0
	c-1.095-0.015-1.611-0.339-1.886-1.173c-0.276-0.84-0.003-1.806,0.742-2.324c2.014-1.402,4.168-0.736,4.996,1.7
	c0.286,0.843-0.173,1.507-1.056,1.692c-0.124,0.026-0.25,0.059-0.375,0.061c-0.489,0.008-0.977,0.003-1.465,0.003
	C120.806,118.068,120.806,118.082,120.806,118.095z"/>
<path fill-rule="evenodd" clip-rule="evenodd" fill="#111224" d="M41.282,65.717c-0.444,0-0.89,0.006-1.335-0.003
	c-0.729-0.013-1.339-0.233-1.633-0.975c-0.308-0.779-0.221-1.527,0.318-2.154c1.022-1.188,3.397-1.692,4.715,0.115
	c0.211,0.29,0.39,0.61,0.539,0.936c0.479,1.051-0.049,1.942-1.202,2.028c-0.465,0.033-0.934,0.004-1.401,0.004
	C41.282,65.686,41.282,65.7,41.282,65.717z"/>
<path fill-rule="evenodd" clip-rule="evenodd" fill="#111224" d="M111.521,13.923c-0.773,0.016-1.513-0.356-2.164-0.882
	c-0.654-0.526-0.69-1.384-0.062-1.947c0.87-0.78,1.834-1.457,2.896-1.947c1.195-0.552,2.55,0.632,2.418,2.058
	C114.475,12.661,113.085,13.925,111.521,13.923z"/>
<path fill-rule="evenodd" clip-rule="evenodd" fill="#E48E27" d="M4.736,86.872c-0.576-0.027-1.243-0.243-1.847-0.613
	c-0.684-0.42-0.877-1.194-0.385-1.813c0.784-0.984,1.71-1.857,2.801-2.484c1.12-0.645,2.62,0.504,2.524,1.944
	C7.73,85.393,6.622,86.838,4.736,86.872z"/>
<path fill-rule="evenodd" clip-rule="evenodd" fill="#48828C" d="M50.159,78.928c-0.447,0-0.895,0.02-1.339-0.006
	c-0.686-0.039-1.305-0.22-1.608-0.933c-0.326-0.769-0.271-1.517,0.252-2.163c0.994-1.227,3.418-1.769,4.758,0.063
	c0.247,0.339,0.456,0.724,0.602,1.116c0.349,0.941-0.142,1.714-1.14,1.83c-0.506,0.061-1.017,0.076-1.524,0.113
	C50.159,78.94,50.159,78.934,50.159,78.928z"/>
<path fill-rule="evenodd" clip-rule="evenodd" fill="#E48E27" d="M66.533,7.199c-0.03,0.682-0.327,1.433-0.844,2.071
	c-0.58,0.718-1.464,0.692-2.08-0.066c-0.588-0.726-1.126-1.494-1.656-2.265c-0.395-0.573-0.561-1.192-0.158-1.849
	c0.443-0.721,1.108-1.059,1.93-1.023C65.199,4.132,66.524,5.561,66.533,7.199z"/>
<path fill-rule="evenodd" clip-rule="evenodd" fill="#48828C" d="M100.574,75.947c-0.035-1.16,0.281-1.67,1.133-1.979
	c0.813-0.297,1.792-0.014,2.358,0.677c1.461,1.782,0.906,4.079-1.21,5.005c-0.887,0.389-1.674,0.01-1.904-0.943
	C100.723,77.754,100.669,76.773,100.574,75.947z"/>
<path fill-rule="evenodd" clip-rule="evenodd" fill="#48828C" d="M7.195,31.658c-0.872,0.007-1.619-0.351-2.269-0.878
	c-0.727-0.591-0.71-1.482,0.045-2.075c0.733-0.574,1.519-1.086,2.298-1.601c0.622-0.409,1.271-0.571,1.958-0.103
	c0.727,0.497,1.014,1.197,0.919,2.036C9.988,30.439,8.595,31.65,7.195,31.658z"/>
<path fill-rule="evenodd" clip-rule="evenodd" fill="#48828C" d="M76.887,9.15c0.798,0.001,1.497,0.317,2.121,0.768
	c0.749,0.542,0.784,1.45,0.063,2.076c-0.704,0.61-1.466,1.158-2.223,1.705c-0.623,0.449-1.294,0.648-2.009,0.171
	c-0.722-0.482-1.041-1.171-0.96-2.02C74.019,10.388,75.424,9.144,76.887,9.15z"/>
<path fill-rule="evenodd" clip-rule="evenodd" fill="#48828C" d="M26.147,57.292c-0.021-1.119,0.268-1.602,1.052-1.914
	c0.802-0.319,1.754-0.128,2.331,0.541c1.593,1.844,1.141,4.146-1.269,5.159c-0.803,0.337-1.507-0.078-1.73-0.972
	C26.287,59.135,26.236,58.134,26.147,57.292z"/>
<path fill-rule="evenodd" clip-rule="evenodd" fill="#E48E27" d="M107.364,15.038c2.217-0.015,3.374,1.566,3.212,3.591
	c-0.065,0.809-0.762,1.234-1.58,1.066c-0.918-0.189-1.794-0.525-2.668-0.854c-1.061-0.398-1.361-0.855-1.306-1.843
	c0.05-0.875,0.684-1.626,1.588-1.848C106.917,15.076,107.239,15.056,107.364,15.038z"/>
<path fill-rule="evenodd" clip-rule="evenodd" fill="#48828C" d="M29.736,43.457c-0.362-0.001-0.723,0.006-1.084-0.002
	c-1.063-0.023-1.565-0.346-1.83-1.161c-0.271-0.836,0.009-1.825,0.741-2.333c2.142-1.488,4.303-0.584,5.035,1.824
	c0.214,0.706-0.214,1.336-0.961,1.546C31.013,43.505,30.369,43.413,29.736,43.457z"/>
<path fill-rule="evenodd" clip-rule="evenodd" fill="#C2AE7F" d="M57.422,28.943c-0.382,0-0.766,0.024-1.146-0.005
	c-0.711-0.055-1.338-0.268-1.605-1.028c-0.264-0.756-0.219-1.506,0.323-2.095c0.849-0.924,1.939-1.297,3.176-0.958
	c1.283,0.353,1.922,1.346,2.224,2.555c0.165,0.658-0.352,1.271-1.068,1.414C58.697,28.951,58.06,28.957,57.422,28.943z"/>
<path fill-rule="evenodd" clip-rule="evenodd" fill="#48828C" d="M54.643,122.573c-0.314-0.044-0.637-0.062-0.943-0.138
	c-0.825-0.208-1.262-0.926-0.943-1.702c0.461-1.122,1.105-2.153,1.88-3.089c0.426-0.514,1.018-0.572,1.633-0.391
	c0.786,0.23,1.315,0.775,1.441,1.552C58.056,120.923,56.72,122.626,54.643,122.573z"/>
<path fill-rule="evenodd" clip-rule="evenodd" fill="#E48E27" d="M84.635,100.467c-0.125,2.023-1.988,3.534-3.927,2.848
	c-1.955-0.692-2.19-1.65-0.678-3.043c0.484-0.445,0.988-0.871,1.486-1.302c0.588-0.504,1.214-0.776,1.98-0.38
	C84.283,98.994,84.615,99.654,84.635,100.467z"/>
<path fill-rule="evenodd" clip-rule="evenodd" fill="#DDD7C4" d="M87.779,20.971c0.131-1.094,0.695-1.988,1.704-2.541
	c1.129-0.618,2.208-0.313,3.248,0.31c0.514,0.307,0.743,0.715,0.704,1.312c-0.019,0.297-0.12,0.516-0.318,0.731
	c-0.71,0.773-1.573,1.354-2.435,1.927c-0.592,0.395-1.24,0.542-1.911,0.132C88.09,22.428,87.81,21.806,87.779,20.971z"/>
<path fill-rule="evenodd" clip-rule="evenodd" fill="#48828C" d="M42.252,113.514c-0.383,0-0.765,0.004-1.147,0
	c-0.717-0.008-1.35-0.172-1.682-0.904c-0.361-0.793-0.261-1.537,0.263-2.214c1.141-1.476,3.636-1.435,4.725,0.073
	c0.273,0.379,0.524,0.783,0.653,1.234c0.252,0.89-0.168,1.576-1.096,1.725c-0.563,0.09-1.142,0.072-1.714,0.102
	C42.252,113.524,42.252,113.52,42.252,113.514z"/>
<path fill-rule="evenodd" clip-rule="evenodd" fill="#C2AE7F" d="M6.495,108.864c-0.042-0.004-0.277-0.006-0.504-0.053
	c-1.17-0.236-1.583-1.085-1.009-2.128c0.42-0.762,0.88-1.501,1.354-2.23c0.543-0.836,1.073-1.07,1.856-0.889
	c0.833,0.194,1.47,0.872,1.599,1.705C10.104,107.283,8.713,108.895,6.495,108.864z"/>
<path fill-rule="evenodd" clip-rule="evenodd" fill="#E48E27" d="M117.106,97.802c0.035,0.763-0.314,1.447-0.762,2.071
	c-0.526,0.735-1.396,0.795-2.029,0.123c-0.756-0.807-1.418-1.705-1.932-2.682c-0.656-1.25,0.474-2.682,1.973-2.565
	C115.849,94.865,117.124,96.26,117.106,97.802z"/>
<path fill-rule="evenodd" clip-rule="evenodd" fill="#C2AE7F" d="M112.018,77.028c1.774,0.014,3.073,2.425,2.209,4.114
	c-0.393,0.77-1.028,1.301-1.803,1.637c-0.884,0.384-1.63,0-1.851-0.934c-0.229-0.971-0.327-1.967-0.379-2.959
	C110.132,77.705,110.839,77.02,112.018,77.028z"/>
<path fill-rule="evenodd" clip-rule="evenodd" fill="#C2AE7F" d="M111.581,38.496c0.01-2.221,2.213-3.67,4.08-2.909
	c0.655,0.268,1.4,0.494,1.544,1.361c0.151,0.909-0.523,1.335-1.097,1.797c-0.494,0.4-1.023,0.76-1.548,1.125
	c-0.584,0.408-1.186,0.658-1.896,0.261C111.919,39.715,111.597,39.073,111.581,38.496z"/>
<path fill-rule="evenodd" clip-rule="evenodd" fill="#C2AE7F" d="M59.154,95.894c-0.017-1.354,0.311-1.876,1.114-2.147
	c0.852-0.289,1.811-0.016,2.357,0.672c1.416,1.779,0.931,3.926-1.115,4.939c-0.929,0.46-1.771,0.09-1.979-0.94
	C59.338,97.464,59.241,96.492,59.154,95.894z"/>
<path fill-rule="evenodd" clip-rule="evenodd" fill="#C2AE7F" d="M118.653,8.254c-0.453,0-0.794,0.002-1.135-0.001
	c-1.124-0.007-1.621-0.337-1.888-1.248c-0.249-0.849,0.099-1.768,0.863-2.289c1.906-1.297,4.179-0.515,4.871,1.678
	c0.263,0.828-0.088,1.49-0.92,1.741C119.82,8.324,119.176,8.212,118.653,8.254z"/>
<path fill-rule="evenodd" clip-rule="evenodd" fill="#DDD7C4" d="M109.313,108.244c-0.404,0-0.81,0.014-1.214-0.003
	c-0.645-0.026-1.227-0.204-1.537-0.837c-0.357-0.726-0.328-1.452,0.128-2.119c0.579-0.84,2.13-1.436,3.049-1.211
	c1.235,0.301,2.285,1.396,2.467,2.572c0.136,0.874-0.462,1.525-1.489,1.586c-0.466,0.027-0.935,0.004-1.403,0.004
	C109.313,108.24,109.313,108.241,109.313,108.244z"/>
<path fill-rule="evenodd" clip-rule="evenodd" fill="#DDD7C4" d="M121.511,22.083c-1.011-0.107-1.978-0.349-2.556-1.278
	c-0.37-0.593-0.197-1.205,0.338-1.633c0.777-0.623,1.628-1.14,2.452-1.698c1.253-0.849,2.676,0.344,2.758,1.528
	C124.595,20.36,123.189,22.198,121.511,22.083z"/>
<path fill-rule="evenodd" clip-rule="evenodd" fill="#DDD7C4" d="M13.375,67.875c-0.005,1.451-1.366,2.918-2.682,2.912
	c-0.623-0.001-0.984-0.289-1.17-0.875c-0.24-0.756-0.313-1.537-0.354-2.318c-0.023-0.455-0.179-0.895-0.04-1.382
	c0.314-1.099,1.658-1.704,2.662-1.14C12.772,65.624,13.38,66.7,13.375,67.875z"/>
<path fill-rule="evenodd" clip-rule="evenodd" fill="#DDD7C4" d="M34.268,112.453c0.284-0.043,0.567,0.066,0.843,0.254
	c0.821,0.561,1.639,1.133,2.36,1.814c0.858,0.809,0.706,2.055-0.278,2.729c-1.036,0.71-2.075,0.463-3.05-0.082
	c-0.983-0.551-1.438-1.44-1.354-2.594c0.029-0.402,0.057-0.803,0.166-1.19C33.126,112.777,33.58,112.451,34.268,112.453z"/>
<path fill-rule="evenodd" clip-rule="evenodd" fill="#E48E27" d="M26.065,128.041c-1.27,0-2.54,0.002-3.811,0.003
	c-0.382-0.429-0.72-0.892-0.97-1.409c-0.484-0.998-0.04-1.848,1.042-2.027c0.947-0.157,1.907-0.182,2.859-0.186
	c1.487-0.002,2.291,1.479,1.57,2.797C26.58,127.542,26.32,127.787,26.065,128.041z"/>
<path fill-rule="evenodd" clip-rule="evenodd" fill="#48828C" d="M71.972,28.566c-0.018-1.515,0.499-2.151,1.902-2.402
	c0.504-0.09,1.009-0.169,1.523-0.116c0.893,0.091,1.354,0.735,1.142,1.599c-0.211,0.869-0.445,1.717-1.063,2.423
	c-0.624,0.716-1.342,1.001-2.269,0.735c-0.919-0.263-1.181-0.951-1.211-1.803C71.99,28.831,71.977,28.662,71.972,28.566z"/>
<path fill-rule="evenodd" clip-rule="evenodd" fill="#C2AE7F" d="M64.502,116.641c-1.144-0.035-2.246-1.526-1.502-2.637
	c0.282-0.422,0.527-0.879,0.86-1.256c0.458-0.521,1.033-0.777,1.766-0.566c0.813,0.23,1.542,0.605,2.15,1.18
	c0.593,0.559,0.534,1.289-0.08,1.82C66.815,115.941,65.886,116.589,64.502,116.641z"/>
<path fill-rule="evenodd" clip-rule="evenodd" fill="#48828C" d="M12.755,12.067c-0.017,1.033,0.015,1.903-0.846,2.341
	c-0.995,0.508-2.073,0.643-3.148,0.268c-0.479-0.167-0.777-0.613-0.67-1.114c0.2-0.932,0.439-1.863,1.121-2.601
	c0.848-0.915,1.518-1.131,2.479-0.766C12.679,10.57,12.814,11.375,12.755,12.067z"/>
<path fill-rule="evenodd" clip-rule="evenodd" fill="#48828C" d="M49.147,103.783c-0.025-0.615,0.154-1.182,0.384-1.735
	c0.336-0.806,0.993-1.137,1.818-1.166c0.773-0.028,1.244,0.392,1.576,1.071c0.995,2.033,0.739,2.848-1.28,3.872
	c-0.282,0.142-0.583,0.271-0.89,0.338c-0.73,0.16-1.353-0.308-1.448-1.052C49.252,104.668,49.2,104.226,49.147,103.783z"/>
<path fill-rule="evenodd" clip-rule="evenodd" fill="#48828C" d="M29.569,126.109c-0.616-0.018-1.179-0.395-1.56-1.041
	c-0.348-0.59-0.259-1.172,0.082-1.748c1.196-2.027,2.162-2.257,4.151-0.955c0.318,0.208,0.654,0.41,0.823,0.777
	c0.189,0.41,0.263,0.873-0.056,1.205C32.112,125.281,31.101,126.048,29.569,126.109z"/>
<path fill-rule="evenodd" clip-rule="evenodd" fill="#48828C" d="M124.381,106.201c-0.718,0.001-1.259-0.41-1.634-1.051
	c-0.345-0.592-0.24-1.174,0.103-1.748c1.182-1.968,2.1-2.2,4.054-0.99c0.25,0.154,0.497,0.334,0.699,0.547
	c0.409,0.433,0.555,1.021,0.17,1.453C126.896,105.391,125.855,106.161,124.381,106.201z"/>
<path fill-rule="evenodd" clip-rule="evenodd" fill="#48828C" d="M10.041,49.106c-0.002-1.373,1.322-2.259,2.563-1.718
	c2.144,0.937,2.482,1.833,1.476,3.943c-0.127,0.267-0.278,0.531-0.466,0.756c-0.366,0.438-0.862,0.563-1.384,0.363
	C11.249,52.074,10.042,50.195,10.041,49.106z"/>
<path fill-rule="evenodd" clip-rule="evenodd" fill="#C2AE7F" d="M104.518,100.118c-0.138,0.749-0.421,1.636-1.009,2.388
	c-0.351,0.447-1.094,0.588-1.495,0.265c-0.97-0.786-1.815-1.681-2.039-2.983c-0.234-1.372,1.116-2.502,2.419-2.027
	c0.481,0.176,0.933,0.418,1.343,0.722C104.22,98.838,104.543,99.297,104.518,100.118z"/>
<path fill-rule="evenodd" clip-rule="evenodd" fill="#48828C" d="M113.438,30.75c-0.715-0.014-1.249-0.43-1.63-1.068
	c-0.357-0.597-0.24-1.167,0.109-1.739c1.23-2.013,2.178-2.23,4.162-0.92c0.409,0.271,0.813,0.547,0.907,1.091
	c0.054,0.309,0.063,0.635-0.146,0.851C115.923,29.91,114.909,30.701,113.438,30.75z"/>
<path fill-rule="evenodd" clip-rule="evenodd" fill="#48828C" d="M90.775,105.438c-0.781,0.009-1.329-0.391-1.721-1.023
	c-0.378-0.614-0.257-1.203,0.105-1.795c1.212-1.978,2.244-2.207,4.172-0.889c0.261,0.179,0.544,0.349,0.709,0.633
	c0.252,0.432,0.316,0.889,0.021,1.322C93.483,104.547,91.812,105.426,90.775,105.438z"/>
<path fill-rule="evenodd" clip-rule="evenodd" fill="#C2AE7F" d="M12.208,93.391c-0.105,0.906-0.423,1.783-0.988,2.544
	c-0.443,0.595-1.247,0.612-1.784,0.104c-0.728-0.688-1.437-1.375-1.708-2.404c-0.234-0.893,0.005-1.598,0.671-2.172
	c0.591-0.51,1.255-0.443,1.909-0.125c0.381,0.185,0.755,0.393,1.106,0.627C11.897,92.289,12.184,92.746,12.208,93.391z"/>
<path fill-rule="evenodd" clip-rule="evenodd" fill="#C2AE7F" d="M100.452,30.391c0.046,0.686-0.007,1.541-0.82,1.93
	c-1.005,0.48-2.107,0.692-3.202,0.233c-0.455-0.191-0.666-0.622-0.57-1.104c0.165-0.833,0.387-1.654,0.908-2.355
	c0.767-1.028,1.578-1.333,2.64-0.982C100.2,28.374,100.458,28.903,100.452,30.391z"/>
<path fill-rule="evenodd" clip-rule="evenodd" fill="#48828C" d="M87.55,68.089c-0.081,0.929-0.413,1.772-0.972,2.515
	c-0.382,0.51-1.157,0.643-1.594,0.262c-0.798-0.699-1.571-1.423-1.874-2.512c-0.24-0.867-0.057-1.625,0.59-2.193
	c0.656-0.58,1.346-0.535,2.06-0.136c0.388,0.218,0.784,0.425,1.146,0.682C87.368,67.035,87.599,67.5,87.55,68.089z"/>
<path fill-rule="evenodd" clip-rule="evenodd" fill="#C2AE7F" d="M38.565,10.604c-0.039-0.651,0.12-1.258,0.39-1.849
	c0.356-0.781,1.032-1.07,1.803-1.091c0.715-0.02,1.203,0.401,1.534,1.051c1.002,1.968,0.713,2.888-1.277,3.865
	c-0.285,0.14-0.58,0.274-0.887,0.348c-0.672,0.164-1.288-0.256-1.419-0.933c-0.044-0.229-0.085-0.459-0.109-0.691
	C38.576,11.073,38.575,10.839,38.565,10.604z"/>
<path fill-rule="evenodd" clip-rule="evenodd" fill="#C2AE7F" d="M98.672,44.833c-0.014-1.566,1.741-2.823,3.229-2.507
	c0.372,0.079,0.737,0.185,1.056,0.422c0.71,0.527,0.87,1.439,0.31,2.122c-0.442,0.541-0.943,1.034-1.533,1.428
	c-0.701,0.468-1.398,0.385-2.104,0.011C98.947,45.948,98.721,45.341,98.672,44.833z"/>
<path fill-rule="evenodd" clip-rule="evenodd" fill="#C2AE7F" d="M19.845,101.064c-1.407,0.018-2.149-0.984-1.709-2.168
	c0.183-0.494,0.4-0.985,0.668-1.44c0.517-0.878,1.247-1.171,2.347-0.96c0.819,0.156,1.184,0.801,1.378,1.515
	c0.279,1.031-0.782,2.538-2.003,2.908C20.264,100.999,19.989,101.033,19.845,101.064z"/>
<path fill-rule="evenodd" clip-rule="evenodd" fill="#C2AE7F" d="M114.647,122.809c-0.005,1.548-1.643,2.765-3.073,2.525
	c-0.331-0.055-0.66-0.143-0.964-0.311c-1.002-0.551-1.207-1.684-0.415-2.502c0.427-0.439,0.901-0.836,1.425-1.166
	c0.708-0.447,1.391-0.377,2.098,0.027C114.386,121.766,114.646,122.338,114.647,122.809z"/>
<path fill-rule="evenodd" clip-rule="evenodd" fill="#C2AE7F" d="M31.702,75.12c1.171,0.034,2.089,0.502,2.606,1.596
	c0.426,0.901-0.011,1.866-0.969,2.105c-0.657,0.165-1.331,0.29-2.013,0.246C30.296,79,29.42,78.102,29.4,77.12
	c-0.021-1.04,0.819-1.916,1.92-2C31.447,75.111,31.574,75.12,31.702,75.12z"/>
<path fill-rule="evenodd" clip-rule="evenodd" fill="#C2AE7F" d="M9.923,75.785c-0.041,1.095-0.458,1.979-1.457,2.506
	c-0.731,0.389-1.605,0.132-1.97-0.598c-0.373-0.745-0.571-1.561-0.608-2.391C5.852,74.497,6.67,73.6,7.515,73.412
	c0.757-0.168,1.691,0.297,2.072,1.027C9.807,74.861,9.933,75.305,9.923,75.785z"/>
<path fill-rule="evenodd" clip-rule="evenodd" fill="#C2AE7F" d="M112.951,62.698c0.954,0.014,1.588,0.491,1.88,1.413
	c0.426,1.34-0.114,2.821-1.243,3.415c-0.882,0.465-1.772,0.164-2.154-0.754c-0.278-0.669-0.419-1.383-0.461-2.1
	C110.91,63.632,111.895,62.683,112.951,62.698z"/>
<path fill-rule="evenodd" clip-rule="evenodd" fill="#C2AE7F" d="M63.906,81.635c0.027,1.012-0.385,1.815-1.193,2.399
	c-0.901,0.653-2.026,0.304-2.376-0.749c-0.181-0.541-0.313-1.105-0.389-1.668c-0.161-1.193,0.676-2.25,1.802-2.336
	C63.014,79.184,63.902,80.153,63.906,81.635z"/>
<path fill-rule="evenodd" clip-rule="evenodd" fill="#C2AE7F" d="M42.563,26.656c-0.966,0.053-1.613-0.378-2.023-1.251
	c-0.371-0.791-0.151-1.471,0.352-2.069c0.547-0.651,1.337-0.685,2.116-0.628c1.269,0.093,2.386,1.213,2.358,2.343
	c-0.018,0.696-0.364,1.174-1.042,1.352C43.749,26.554,43.159,26.646,42.563,26.656z"/>
<path fill-rule="evenodd" clip-rule="evenodd" fill="#DDD7C4" d="M51.102,128.039c-1.879,0-3.758,0.002-5.638,0.002
	c-0.372-1.402,0.042-2.375,1.179-2.936c1.641-0.81,3.124-0.229,3.77,0.727C50.853,126.483,51.398,127.141,51.102,128.039z"/>
<path fill-rule="evenodd" clip-rule="evenodd" fill="#111224" d="M109.689,52.291c1.563,0.024,2.507,1.254,2.107,2.752
	c-0.132,0.497-0.377,0.941-0.691,1.35c-0.606,0.789-0.954,0.859-1.83,0.356c-0.995-0.572-1.605-1.754-1.46-2.836
	C107.949,52.912,108.684,52.275,109.689,52.291z"/>
<path fill-rule="evenodd" clip-rule="evenodd" fill="#E48E27" d="M54.09,53.508c-0.108,0.775-0.347,1.656-0.909,2.405
	c-0.439,0.589-1.111,0.702-1.686,0.264c-0.863-0.659-1.397-1.557-1.514-2.635c-0.108-1.002,0.909-1.993,1.968-2.004
	C53.131,51.523,54.075,52.33,54.09,53.508z"/>
<path fill-rule="evenodd" clip-rule="evenodd" fill="#E48E27" d="M38.95,100.551c1.067,0,1.818,0.557,2.171,1.556
	c0.268,0.762,0.042,1.42-0.76,2.05c-0.519,0.406-1.071,0.772-1.722,0.947c-0.795,0.215-1.422-0.134-1.6-0.92
	c-0.204-0.902-0.047-1.789,0.294-2.621C37.627,100.844,38.234,100.512,38.95,100.551z"/>
<path fill-rule="evenodd" clip-rule="evenodd" fill="#E48E27" d="M97.023,111.879c0.901,0.146,1.819,0.525,2.553,1.246
	c0.523,0.514,0.496,1.157-0.038,1.702c-0.68,0.692-1.548,1.067-2.489,1.179c-1.053,0.123-1.968-0.822-1.998-1.951
	C95.021,112.871,95.88,111.865,97.023,111.879z"/>
<path fill-rule="evenodd" clip-rule="evenodd" fill="#111224" d="M92.809,8.067c-0.841-0.033-1.534-0.265-1.888-1.035
	c-0.387-0.841-0.169-1.614,0.374-2.319c0.504-0.653,1.141-0.905,1.963-0.7c0.887,0.22,1.561,0.739,2.141,1.413
	c0.247,0.287,0.163,0.597,0.041,0.899C95.036,7.315,93.869,8.071,92.809,8.067z"/>
<path fill-rule="evenodd" clip-rule="evenodd" fill="#E48E27" d="M7.665,116.77c0.833,0.101,1.738,0.504,2.478,1.211
	c0.541,0.52,0.536,1.158,0.007,1.699c-0.709,0.725-1.616,1.115-2.61,1.198c-0.96,0.079-1.795-0.79-1.903-1.858
	C5.521,117.881,6.426,116.77,7.665,116.77z"/>
<path fill-rule="evenodd" clip-rule="evenodd" fill="#111224" d="M20.531,81.13c-0.577-0.024-1.258-0.288-1.603-1.05
	c-0.393-0.871-0.123-1.652,0.443-2.368c0.507-0.64,1.167-0.815,1.934-0.625c0.855,0.214,1.524,0.72,2.091,1.38
	c0.269,0.312,0.19,0.63,0.053,0.953C23.029,80.41,21.876,81.139,20.531,81.13z"/>
<path fill-rule="evenodd" clip-rule="evenodd" fill="#E48E27" d="M126.078,32.775c0.023,1.044-0.439,1.539-1.105,1.876
	c-0.861,0.436-1.664,0.216-2.391-0.32c-0.598-0.44-0.735-1.063-0.56-1.767c0.184-0.729,0.47-1.417,0.939-2.006
	c0.566-0.711,1.282-0.782,1.925-0.158C125.614,31.108,125.949,32.02,126.078,32.775z"/>
<path fill-rule="evenodd" clip-rule="evenodd" fill="#DDD7C4" d="M10.925,58.25c1.225,0.01,2.241,0.618,2.488,1.488
	c0.022,0.082,0.063,0.162,0.068,0.244c0.055,0.761-1.234,2.3-2.067,2.46c-0.936,0.18-2.217-0.603-2.461-1.492
	C8.546,59.469,9.384,58.238,10.925,58.25z"/>
<path fill-rule="evenodd" clip-rule="evenodd" fill="#111224" d="M73.933,126.537c0.021,0-0.107,0.007-0.233-0.002
	c-1.375-0.094-1.767-0.578-1.504-1.936c0.183-0.948,0.712-1.672,1.597-2.095c1.018-0.484,2.046-0.116,2.513,0.878
	c0.521,1.104,0.157,2.414-0.806,2.867C75.054,126.459,74.579,126.566,73.933,126.537z"/>
<path fill-rule="evenodd" clip-rule="evenodd" fill="#E48E27" d="M19.222,35.797c-0.851,0.048-1.345-0.453-1.683-1.141
	c-0.428-0.869-0.175-1.667,0.374-2.382c0.452-0.588,1.083-0.702,1.78-0.524c0.689,0.178,1.32,0.488,1.888,0.905
	c0.834,0.611,0.853,1.459,0.078,2.148C21.101,35.297,19.876,35.798,19.222,35.797z"/>
<path fill-rule="evenodd" clip-rule="evenodd" fill="#DDD7C4" d="M19.773,7.918c0.015-1.296,0.807-2.084,1.92-2.095
	c0.433-0.004,0.837,0.105,1.239,0.236c1.524,0.494,1.884,1.528,0.917,2.809c-0.511,0.677-1.134,1.297-2.113,1.147
	c-0.961-0.148-1.628-0.67-1.891-1.635C19.791,8.178,19.78,7.965,19.773,7.918z"/>
<path fill-rule="evenodd" clip-rule="evenodd" fill="#111224" d="M41.399,86.875c1.705,0.021,2.201,0.693,1.754,2.234
	c-0.235,0.813-0.707,1.443-1.472,1.828c-0.965,0.484-2.005,0.15-2.503-0.786c-0.56-1.057-0.282-2.374,0.621-2.874
	C40.329,86.982,40.906,86.852,41.399,86.875z"/>
<path fill-rule="evenodd" clip-rule="evenodd" fill="#DDD7C4" d="M11.585,128.048c-0.682,0-1.364,0-2.046,0
	c-0.272-0.599-0.774-1.101-0.641-1.862c0.161-0.914,0.3-1.805,1.299-2.221c0.782-0.327,2.011-0.105,2.542,0.48
	c0.575,0.635,0.684,1.69,0.262,2.433c-0.246,0.432-0.659,0.646-1.069,0.867C11.792,127.82,11.576,127.803,11.585,128.048z"/>
<path fill-rule="evenodd" clip-rule="evenodd" fill="#DDD7C4" d="M92.836,90.464c0.004,1.128-1.246,2.546-2.355,2.588
	c-0.57,0.022-1.078-0.229-1.363-0.775c-0.35-0.67-0.588-1.388-0.477-2.138c0.153-1.033,1.491-1.998,2.805-1.561
	C92.414,88.902,92.832,89.51,92.836,90.464z"/>
<path fill-rule="evenodd" clip-rule="evenodd" fill="#DDD7C4" d="M76.407,42.492c-0.006,1.518-0.664,2.41-1.9,2.571
	c-0.91,0.118-2.041-0.587-2.313-1.445c-0.322-1.01,0.085-1.939,1.054-2.456c0.342-0.182,0.701-0.305,1.075-0.388
	C75.642,40.483,76.412,41.121,76.407,42.492z"/>
<path fill-rule="evenodd" clip-rule="evenodd" fill="#E48E27" d="M22.373,88.785c0.006-1.521,1.054-2.68,2.321-2.533
	c0.877,0.102,1.386,0.677,1.69,1.46c0.285,0.735,0.218,1.411-0.351,2.005c-0.65,0.68-1.472,0.982-2.374,1.121
	c-0.372,0.057-0.609-0.158-0.792-0.43C22.539,89.921,22.383,89.373,22.373,88.785z"/>
<path fill-rule="evenodd" clip-rule="evenodd" fill="#E48E27" d="M85.85,31.615c1.491-0.055,2.058,0.737,1.568,2.046
	c-0.211,0.562-0.524,1.074-0.906,1.529c-0.868,1.032-2.521,0.843-3.188-0.343c-0.762-1.36-0.244-2.629,1.249-3.029
	C85.024,31.696,85.486,31.613,85.85,31.615z"/>
<path fill-rule="evenodd" clip-rule="evenodd" fill="#DDD7C4" d="M83.011,117.188c-1.146,0.002-2.288-1.023-2.225-2.107
	c0.066-1.123,0.666-2.065,1.957-2.09c1.484-0.029,2.685,0.834,2.698,1.887C85.454,115.834,84.031,117.188,83.011,117.188z"/>
<path fill-rule="evenodd" clip-rule="evenodd" fill="#111224" d="M31.477,28.721c-0.58-0.018-1.267-0.274-1.604-1.043
	c-0.379-0.863-0.151-1.655,0.433-2.366c0.531-0.646,1.185-0.836,1.99-0.613c0.764,0.211,1.366,0.652,1.908,1.209
	c0.328,0.338,0.359,0.684,0.179,1.098C33.943,28.016,32.84,28.728,31.477,28.721z"/>
<path fill-rule="evenodd" clip-rule="evenodd" fill="#C2AE7F" d="M37.183,96.063c0.011,0.644-0.354,1.082-0.796,1.463
	c-0.579,0.5-1.287,0.716-2.025,0.855c-0.357,0.065-0.608-0.09-0.822-0.359c-0.812-1.023-0.688-2.832,0.263-3.738
	c0.581-0.553,1.344-0.703,2.051-0.367C36.753,94.342,37.114,95.115,37.183,96.063z"/>
<path fill-rule="evenodd" clip-rule="evenodd" fill="#C2AE7F" d="M32.392,15.693c-0.774,0.026-1.428-0.257-1.795-1.009
	c-0.413-0.844-0.179-1.614,0.362-2.312c0.517-0.666,1.169-0.928,2.02-0.69c0.655,0.183,1.192,0.534,1.689,0.973
	c0.658,0.583,0.726,1.045,0.195,1.763C34.264,15.229,33.471,15.709,32.392,15.693z"/>
<path fill-rule="evenodd" clip-rule="evenodd" fill="#E48E27" d="M71.812,111.254c0.033,0.436-0.096,0.881-0.259,1.322
	c-0.344,0.926-0.685,1.114-1.644,0.898c-1.276-0.289-2.254-1.527-2.196-2.775c0.022-0.496,0.218-0.9,0.605-1.212
	c0.797-0.645,1.662-0.579,2.52-0.191C71.648,109.664,71.836,110.396,71.812,111.254z"/>
<path fill-rule="evenodd" clip-rule="evenodd" fill="#C2AE7F" d="M124.892,53.468c0.003,1.177-0.474,1.958-1.132,2.663
	c-0.258,0.275-0.57,0.265-0.887,0.195c-1.262-0.278-2.286-1.864-2.043-3.143c0.169-0.883,0.669-1.377,1.559-1.539
	C123.616,51.421,124.901,52.448,124.892,53.468z"/>
<path fill-rule="evenodd" clip-rule="evenodd" fill="#C2AE7F" d="M93.573,58.167c0.28-0.043,0.587,0.087,0.904,0.107
	c0.495,0.033,0.729,0.354,0.799,0.776c0.178,1.083-0.12,2.038-0.947,2.774c-0.767,0.684-1.644,0.805-2.344,0.39
	c-0.773-0.458-1.185-1.49-0.975-2.449C91.234,58.742,92.145,58.165,93.573,58.167z"/>
<path fill-rule="evenodd" clip-rule="evenodd" fill="#C2AE7F" d="M21.113,68.107c-0.438-0.012-1.129-0.248-1.462-1.033
	c-0.381-0.896-0.143-1.718,0.472-2.425c0.522-0.602,1.177-0.771,1.962-0.544c0.813,0.232,1.436,0.716,1.986,1.325
	c0.25,0.275,0.215,0.577,0.105,0.896C23.826,67.346,22.669,68.109,21.113,68.107z"/>
<path fill-rule="evenodd" clip-rule="evenodd" fill="#C2AE7F" d="M91.473,121.081c0.006-0.931,0.416-1.682,1.227-2.087
	c0.896-0.449,1.749-0.063,2.508,0.456c1.453,0.997,1.376,1.768-0.078,2.923c-0.645,0.512-1.439,0.699-2.289,0.463
	C91.945,122.587,91.479,122.008,91.473,121.081z"/>
<path fill-rule="evenodd" clip-rule="evenodd" fill="#C2AE7F" d="M81.782,128.044c-1.496,0-2.991-0.001-4.487-0.001
	c0.219-1.52,1.401-2.162,2.76-1.482C80.75,126.909,81.493,127.217,81.782,128.044z"/>
<path fill-rule="evenodd" clip-rule="evenodd" fill="#C2AE7F" d="M101.332,128.037c-1.274,0.02-2.547,0.064-3.82-0.024
	c0.516-0.569,1.146-0.972,1.877-1.182C100.18,126.604,100.962,127.117,101.332,128.037z"/>
<path fill-rule="evenodd" clip-rule="evenodd" fill="#C2AE7F" d="M42.079,76.116c-0.257-1.065-0.402-2.142-0.554-3.225
	c-0.047-0.312,0.217-0.232,0.373-0.229c1.457,0.047,2.91-0.105,4.366-0.134c1.654-0.044,3.312-0.072,4.966-0.167
	c0.428-0.021,0.857,0,1.285-0.004c0.156-0.003,0.337,0.051,0.449-0.127c0.25,0.059,0.504,0.109,0.765,0.127
	c0.453,0.033,0.663-0.134,0.605-0.59c0.216,0.036,0.229,0.246,0.321,0.384c0.281,0.42,0.52,0.869,0.821,1.275
	c0.239,0.318,0.507,0.667,1.007,0.479c0.109,0.174,0.221,0.34,0.464,0.318c0.496,0.453,1.16,0.559,1.739,0.822
	c0.025,0.186,0.192,0.192,0.308,0.272c0.547,0.352,1.145,0.225,1.732,0.199c0.373,0.475,0.84,0.808,1.413,0.989
	c0.025,0.21,0.199,0.231,0.348,0.297c0.395,0.167,0.812,0.123,1.214,0.087c0.66-0.051,1.287-0.206,1.551-0.945
	c0.051-0.127,0.178-0.229,0.271-0.341c0.055,0.011,0.116,0.018,0.17,0.025c0.004,0.354,0.207,0.485,0.544,0.481
	c0.805-0.007,1.608-0.003,2.417-0.003c0.771,0,0.771,0,0.808-0.79c2.265,0,4.529,0,6.794,0c0.211,0.63,0.739,0.895,1.294,1.123
	c0.019,0.047,0.021,0.108,0.055,0.138c0.518,0.435,1.88,0.558,2.475,0.21c0.178-0.108,0.471-0.138,0.442-0.456
	c0.572-0.065,0.935-0.457,1.318-0.823c0.559,0.008,1.123-0.039,1.674,0.033c0.385,0.054,0.609-0.051,0.747-0.362
	c0.166-0.37,0.416-0.485,0.812-0.464c0.373,0.015,0.602-0.185,0.587-0.609c-0.011-0.405,0.007-0.789-0.565-0.753
	c-0.018-0.225-0.032-0.446-0.047-0.667c0.015-0.174,0.029-0.348,0.043-0.521c2.167,0.051,4.33,0.138,6.497,0.094l0,0
	c0.146,0.159,0.337,0.095,0.515,0.098c0.739,0.004,1.479,0.008,2.218,0.004c0.312,0,0.471,0.095,0.398,0.442
	c-0.377,1.782-0.833,3.551-1.623,5.188c-1.055,2.188-2.537,4.029-4.754,5.146c-1.131,0.576-2.355,0.862-3.62,0.993
	c-1.203,0.123-2.402,0.028-3.599,0.094c-2.308,0.123-4.594,0.392-6.833,0.993c-2.218,0.602-4.254,1.616-6.226,2.768
	c-2.188,1.269-4.471,2.276-7.004,2.565c-2.95,0.334-5.896,0.355-8.758-0.587c-1.652-0.543-3.105-1.42-4.442-2.555
	c-1.562-1.329-2.652-2.989-3.594-4.75c-0.997-1.866-1.644-3.877-2.076-5.953c-0.015-0.062-0.004-0.134-0.004-0.196
	c0.152-0.003,0.31-0.018,0.279-0.228C42.426,76.051,42.224,76.135,42.079,76.116z"/>
<path fill-rule="evenodd" clip-rule="evenodd" fill="#FAC837" d="M56.993,61.986c0.261-1.358,0.261-1.357,1.602-1.36
	c2.66-0.007,5.323,0.007,7.983-0.04c2.051-0.036,4.105-0.043,6.16-0.038c0.413,0,0.521,0.161,0.413,0.549
	c-0.258,0.926-0.247,0.928,0.713,0.924c0.084-0.004,0.163,0,0.247,0c0.178,0.67,0.377,0.828,1.065,0.83
	c1.127,0.004,2.257,0.004,3.392,0c0.652-0.003,0.877-0.199,1-0.83c0.515-0.007,1.021-0.011,1.532-0.018
	c0.087,0.286,0.315,0.283,0.551,0.286c0.769,0.005,0.775,0.011,0.71,0.734c-0.018,0.233,0.012,0.44,0.275,0.491
	c0.258,0.047,0.385-0.11,0.45-0.344c0.101-0.384,0.108-0.773,0.13-1.163c0.192-0.013,0.352,0,0.398,0.247
	c0.08,0.388,0.174,0.819,0.04,1.163c-0.178,0.449-0.656,0.138-1,0.194c-0.301,0.049-0.616,0.016-0.928,0.016
	c-0.083-0.33-0.348-0.29-0.598-0.29c-3.16,0.005-6.319,0.005-9.476,0.018c-0.369,0.001-0.515-0.043-0.358-0.46
	c0.265-0.696,0.007-1.036-0.732-1.031c-2.058,0.009-4.116,0.023-6.17,0.042C61.924,61.929,59.457,61.959,56.993,61.986z"/>
<path fill-rule="evenodd" clip-rule="evenodd" fill="#3F3D3B" d="M83.216,62.006c-0.021,0.39-0.029,0.779-0.13,1.163
	c-0.065,0.234-0.192,0.392-0.45,0.344c-0.264-0.051-0.293-0.257-0.275-0.491c0.065-0.723,0.059-0.729-0.71-0.734
	c-0.235-0.003-0.464,0-0.551-0.286c0.192-0.392,0.551-0.163,0.834-0.229c0.155-0.036,0.416,0.109,0.435-0.167
	c0.011-0.313-0.269-0.216-0.449-0.229c-0.163-0.014-0.326,0.004-0.493-0.007c-0.155-0.009-0.297-0.068-0.293-0.257
	c0.003-0.185,0.138-0.232,0.301-0.254c0.202-0.025,0.511,0.116,0.576-0.102c0.068-0.228-0.186-0.431-0.349-0.612
	c-0.659-0.746-1.492-1.105-2.485-1.105c-7.012-0.018-14.02,0.17-21.023,0.503c-0.199,0.011-0.392,0.035-0.591,0.043
	c-0.373,0.019-0.608,0.214-0.725,0.563c-0.105,0.328-0.214,0.656-0.315,0.988c-0.08,0.255-0.225,0.417-0.504,0.328
	c-0.257-0.082-0.293-0.295-0.225-0.523c0.134-0.424,0.253-0.855,0.424-1.261c0.243-0.576,0.732-0.833,1.333-0.862
	c7.135-0.35,14.273-0.511,21.415-0.545C81.006,58.263,82.984,59.597,83.216,62.006z"/>
<path fill-rule="evenodd" clip-rule="evenodd" fill="#FAC837" d="M85.089,72.167c-0.014,0.174-0.028,0.348-0.043,0.521
	c-0.199-0.21-0.377-0.493-0.725-0.231c-0.207-0.095-0.424-0.059-0.642-0.044c-0.703-0.333-1.445-0.069-2.17-0.138
	c-0.12-0.007-0.214,0.072-0.298,0.152c-0.373-0.008-0.742-0.015-1.112-0.021c-0.308-0.265-0.642-0.446-1.065-0.436
	c-0.511,0.022-1.021,0-1.529,0.008c-0.638,0.007-1,0.29-1.206,0.895c-0.102,0.294-0.203,0.584-0.309,0.873
	c-1.927-0.003-3.854-0.014-5.782-0.018c-0.178-0.004-0.362,0.04-0.519-0.08c-0.018-0.119,0-0.254-0.156-0.301
	c-0.047-0.054-0.098-0.108-0.148-0.163c0.312-0.011,0.413-0.191,0.413-0.485c-0.003-0.504,0.011-1.011,0.022-1.519
	c4.21,0,8.428,0,12.642,0.004c0.011,0.315,0.105,0.598,0.436,0.699c0.278,0.087,0.579,0.182,0.801-0.138c0.123,0,0.242,0,0.369,0
	c0.174,0.25,0.348,0.25,0.529,0.008c0.152,0,0.304,0,0.456,0C85.063,71.892,85.075,72.029,85.089,72.167z"/>
<path fill-rule="evenodd" clip-rule="evenodd" fill="#3F3D3B" d="M48.586,51.031c0.003-1.572,0.938-2.859,2.413-3.297
	c0.368-0.112,0.428-0.253,0.37-0.62c-0.348-2.179,0.817-4.269,2.83-5.134c1.985-0.852,4.287-0.272,5.642,1.457
	c0.225,0.29,0.38,0.315,0.71,0.187c1.765-0.697,3.707,0.52,3.917,2.433c0.025,0.256,0.054,0.54-0.29,0.569
	c-0.315,0.027-0.33-0.235-0.362-0.478c-0.203-1.455-1.5-2.339-2.845-1.979c-0.449,0.116-0.503,0.37-0.366,0.719
	c0.076,0.201,0.134,0.4,0.17,0.611c0.043,0.235,0.087,0.496-0.229,0.556c-0.319,0.06-0.362-0.19-0.413-0.43
	c-0.377-1.67-1.373-2.783-3.037-3.232c-2.87-0.777-5.642,1.819-5.078,4.725c0.056,0.295,0.147,0.464,0.491,0.485
	c0.271,0.018,0.54,0.134,0.804,0.217c0.239,0.08,0.442,0.225,0.321,0.504c-0.11,0.263-0.335,0.199-0.549,0.118
	c-1.058-0.4-2.047-0.277-2.904,0.48c-0.817,0.727-1.107,1.652-0.868,2.725c0.058,0.253,0.145,0.525-0.185,0.61
	c-0.333,0.087-0.386-0.208-0.457-0.449C48.594,51.535,48.594,51.255,48.586,51.031z"/>
<path fill-rule="evenodd" clip-rule="evenodd" fill="#EDAB3D" d="M63.924,67.409c0.46,0.002,0.92,0.002,1.38,0.004
	c0,0.896,0,1.793,0,2.69c-0.151,0-0.308-0.004-0.463-0.004c-0.015-0.227-0.145-0.292-0.362-0.292
	c-3.08-0.007-6.164-0.013-9.247-0.03c-0.232-0.004-0.33,0.085-0.37,0.286c-0.247-0.19-0.165-0.464-0.127-0.68
	c0.105-0.61,0.268-1.21,0.404-1.815c0.056-0.248,0.251-0.219,0.425-0.218c0.917,0.012,1.83,0.029,2.747,0.04
	c0.185,1.04,0.254,1.102,1.345,1.104c1.036,0.006,2.072,0,3.105-0.002C63.642,68.492,63.852,68.293,63.924,67.409z"/>
<path fill-rule="evenodd" clip-rule="evenodd" fill="#EDAB3D" d="M84.364,69.315c0.182,0.261,0.489,0.465,0.406,0.854
	c-0.087,0.009-0.174,0.017-0.265,0.025c-0.119-0.237-0.286-0.233-0.481-0.092c-0.146,0.005-0.294,0.016-0.442,0.023
	c-0.326-0.254-0.634-0.127-0.935,0.049c-0.269-0.112-0.555-0.023-0.826-0.062c-0.319-0.36-1.236-0.36-1.54,0
	c-0.275,0-0.548,0-0.823,0c-0.051-0.225-0.225-0.247-0.416-0.247c-0.718,0.002-1.428,0.006-2.146-0.005
	c-0.206-0.006-0.341,0.072-0.435,0.241c-0.192,0.041-0.384,0.039-0.572,0c-0.102-0.169-0.243-0.241-0.446-0.241
	c-1.608,0.007-3.218,0.005-4.826,0.004c-0.188,0-0.37,0.003-0.428,0.233c-0.127,0-0.254,0-0.381,0c-0.058-0.89-0.058-1.781,0-2.673
	c0.175-0.001,0.345-0.001,0.515-0.003c0.084,0.869,0.298,1.068,1.182,1.068c0.638,0.002,1.271,0.002,1.913,0
	c0.935,0,1.116-0.155,1.229-1.058c0.138-0.006,0.279-0.009,0.417-0.011c0.003,0.178,0.014,0.354,0.014,0.532
	c-0.003,0.223,0.012,0.432,0.294,0.479c0.065,0.364,0.319,0.456,0.648,0.455c0.862-0.01,1.729-0.01,2.591-0.013
	c0.051,0.369,0.352,0.278,0.576,0.297c0.848,0.072,1.707,0.108,2.504,0.458c0.225,0.102,0.413,0.169,0.525-0.083
	c0.12-0.271-0.155-0.315-0.308-0.398c-0.533-0.292-1.142-0.283-1.714-0.424c0.094-0.186,0.185-0.368,0.278-0.553
	c0.772,0.112,1.479,0.435,2.214,0.655c0.349,0.104,0.682,0.234,0.913,0.549C83.879,69.748,84.14,69.685,84.364,69.315z"/>
<path fill-rule="evenodd" clip-rule="evenodd" fill="#FAC837" d="M54.926,71.102c1.328,0,2.654-0.008,3.98-0.004
	c2.138,0.004,4.268,0.011,6.398,0.019c0.008,0.532,0.022,1.065,0.019,1.602c0,0.235,0.062,0.413,0.315,0.467
	c0,0.135-0.051,0.275,0.04,0.398c0.003,0.033-0.012,0.063-0.037,0.084c-0.094,0.094-0.217,0.058-0.333,0.065
	c-0.167-0.196-0.275-0.438-0.493-0.591c-0.203-0.765-0.605-1.29-1.493-1.261c-0.522,0.014-1.044-0.004-1.569,0.011
	c-0.594,0.015-0.967,0.297-1.17,0.862c-0.12,0.326-0.217,0.652-0.326,0.979c-1.218-0.102-2.435-0.084-3.653-0.029
	c-0.036-0.138-0.051-0.29-0.17-0.396C55.757,72.695,55.39,71.869,54.926,71.102z"/>
<path fill-rule="evenodd" clip-rule="evenodd" fill="#3F3D3B" d="M54.333,71.769c0.058,0.456-0.152,0.623-0.605,0.59
	c-0.261-0.018-0.515-0.068-0.765-0.127c-0.358-0.21-0.58-0.521-0.703-0.913c-0.147-0.471-0.321-0.935-0.468-1.405
	c-0.177-0.582-0.163-1.161,0.024-1.747c1.074-3.348,2.136-6.701,3.212-10.049c0.341-1.06,1.287-1.604,2.301-1.357
	c0.703,0.168,1.095,0.87,0.852,1.518c-0.069,0.183-0.159,0.333-0.395,0.275c-0.213-0.054-0.21-0.217-0.199-0.391
	c0.047-0.705-0.271-0.977-0.971-0.83c-0.493,0.105-0.823,0.406-0.989,0.87c-0.156,0.433-0.275,0.877-0.428,1.312
	c-0.071,0.201-0.062,0.308,0.181,0.319c0.192,0.007,0.319,0.116,0.293,0.317c-0.025,0.223-0.199,0.265-0.398,0.273
	c-0.299,0.015-0.805,0.833-0.694,1.109c0.045,0.116,0.167,0.076,0.255,0.109c0.156,0.056,0.243,0.163,0.214,0.337
	c-0.025,0.156-0.13,0.217-0.272,0.239c-0.158,0.023-0.377-0.073-0.457,0.106c-0.13,0.297-0.214,0.618-0.306,0.933
	c-0.04,0.13,0.056,0.17,0.167,0.178c0.198,0.013,0.317,0.116,0.301,0.312c-0.02,0.229-0.205,0.268-0.396,0.29
	c-0.279,0.033-0.75,0.824-0.649,1.088c0.045,0.122,0.158,0.089,0.25,0.111c0.142,0.034,0.236,0.126,0.234,0.275
	c-0.003,0.168-0.112,0.257-0.273,0.302c-0.163,0.042-0.398-0.09-0.486,0.129c-0.123,0.305-0.21,0.623-0.293,0.942
	c-0.036,0.148,0.105,0.13,0.196,0.142c0.196,0.028,0.293,0.148,0.273,0.34c-0.016,0.174-0.143,0.239-0.31,0.258
	c-0.152,0.018-0.366-0.065-0.438,0.132c-0.116,0.322-0.212,0.658-0.272,0.993c-0.031,0.154,0.149,0.142,0.257,0.142
	c0.192,0.003,0.33,0.083,0.337,0.28c0.005,0.192-0.118,0.312-0.312,0.307c-0.279-0.01-0.304,0.128-0.207,0.331
	c0.167,0.355,0.083,0.946,0.768,0.852c0.147-0.021,0.232,0.123,0.249,0.261c0.013,0.116-0.049,0.229-0.163,0.283
	c-0.1,0.043-0.212,0.062-0.324,0.094c0.292,0.479,0.648,0.572,1.315,0.377l-0.007-0.007c-0.065,0.138,0.005,0.138,0.108,0.108
	L54.333,71.769z"/>
<path fill-rule="evenodd" clip-rule="evenodd" fill="#3F3D3B" d="M56.993,61.986c2.464-0.027,4.932-0.058,7.399-0.082
	c2.054-0.018,4.113-0.032,6.17-0.042c0.739-0.005,0.997,0.335,0.732,1.031c-0.156,0.417-0.011,0.462,0.358,0.46
	c3.156-0.013,6.315-0.013,9.476-0.018c0.25,0,0.515-0.04,0.598,0.29c-0.08,0.299-0.318,0.287-0.555,0.287
	c-1.427,0-2.858,0-4.293,0.003c-1.794,0.003-3.588,0.015-5.381,0.018c-0.815,0-1.059-0.304-0.798-1.065
	c0.146-0.431-0.068-0.42-0.366-0.417c-4.229,0.051-8.457,0.094-12.686,0.141c-0.145,0.002-0.293,0.007-0.442,0.004
	c-0.159-0.004-0.337,0.029-0.42-0.17C56.692,62.206,56.833,62.09,56.993,61.986z"/>
<path fill-rule="evenodd" clip-rule="evenodd" fill="#3F3D3B" d="M87.307,53.18c-0.018-0.977-0.456-1.701-1.333-2.134
	c-0.805-0.4-1.801-0.239-2.486,0.373c-0.098,0.087-0.181,0.192-0.286,0.268c-0.134,0.098-0.282,0.091-0.405-0.025
	c-0.127-0.116-0.142-0.271-0.051-0.402c0.104-0.145,0.225-0.301,0.377-0.386c0.388-0.223,0.326-0.483,0.151-0.813
	c-0.601-1.156-1.985-1.714-3.242-1.286c-1.207,0.411-1.936,1.643-1.726,2.924c0.025,0.163,0.051,0.326,0.08,0.487
	c0.036,0.19-0.032,0.328-0.218,0.384c-0.191,0.056-0.312-0.045-0.398-0.205c-0.344-0.641-0.576-0.768-1.191-0.648
	c-0.624,0.123-1.138,0.663-1.207,1.277c-0.015,0.128-0.011,0.263-0.007,0.393c0.014,0.223-0.044,0.409-0.294,0.431
	c-0.286,0.025-0.352-0.179-0.373-0.413c-0.152-1.38,1.076-2.553,2.496-2.346c0.337,0.049,0.41-0.04,0.457-0.344
	c0.25-1.44,1.369-2.513,2.815-2.723c1.369-0.199,2.771,0.507,3.381,1.797c0.21,0.437,0.416,0.471,0.837,0.42
	c1.79-0.218,3.345,1.205,3.271,2.975c-0.007,0.254,0.062,0.638-0.373,0.611C87.184,53.767,87.304,53.43,87.307,53.18z"/>
<path fill-rule="evenodd" clip-rule="evenodd" fill="#3F3D3B" d="M65.639,73.185c-0.254-0.054-0.315-0.231-0.315-0.467
	c0.004-0.536-0.011-1.069-0.019-1.602c0-0.337,0-0.675,0-1.013c0-0.897,0-1.794,0-2.69c0.008-0.866,0.015-1.738,0.022-2.607
	c0.003-0.777,0.253-1.027,1.032-1.031c0.837,0,1.674-0.004,2.511,0.003c0.635,0.003,0.899,0.261,0.914,0.895
	c0.014,0.917,0.018,1.835,0.024,2.753c-0.058,0.892-0.058,1.783,0,2.673c-0.043,0.36-0.05,0.719,0.012,1.081
	c-0.012,0.508-0.025,1.015-0.022,1.519c0,0.294-0.102,0.475-0.413,0.489c-0.278-0.145-0.576-0.058-0.865-0.051
	C67.559,73.152,66.595,73.058,65.639,73.185z M69.16,71.17c0.04-0.358,0.048-0.717,0-1.074c0-0.89,0-1.779,0-2.67
	c0.011-0.889,0.015-1.777,0.033-2.666c0.003-0.301-0.123-0.398-0.421-0.395c-0.818,0.017-1.645,0.013-2.464,0
	c-0.275-0.003-0.392,0.105-0.388,0.377c0.011,0.888,0.019,1.775,0.025,2.663c-0.051,0.898-0.043,1.799,0,2.698
	c-0.029,0.35-0.043,0.701,0.011,1.049c-0.083,0.391-0.015,0.79-0.036,1.181c-0.015,0.247,0.12,0.301,0.337,0.298
	c0.855-0.008,1.711-0.008,2.565,0.003c0.25,0.004,0.366-0.068,0.355-0.329C69.164,71.924,69.164,71.543,69.16,71.17z"/>
<path fill-rule="evenodd" clip-rule="evenodd" fill="#3F3D3B" d="M63.924,67.409c-0.072,0.884-0.282,1.083-1.163,1.083
	c-1.033,0.002-2.069,0.008-3.105,0.002c-1.091-0.002-1.16-0.063-1.345-1.104c0.083-0.521,0.022-1.047,0.037-1.57
	c0.021-0.629,0.275-0.89,0.909-0.894c1.247-0.003,2.497-0.003,3.743,0.004c0.624,0,0.888,0.273,0.899,0.902
	C63.91,66.36,63.917,66.884,63.924,67.409z M63.269,65.833c0.073-0.216-0.033-0.31-0.235-0.312c-0.471-0.006-0.942,0-1.413-0.006
	c-0.239-0.002-0.268,0.127-0.218,0.317c-0.011,0.392-0.011,0.782-0.036,1.174c-0.011,0.206,0.105,0.529-0.246,0.529
	c-0.344-0.004-0.243-0.323-0.257-0.533c-0.011-0.197,0.018-0.395-0.007-0.589c-0.04-0.289,0.123-0.603-0.098-0.871
	c-0.493-0.007-0.982-0.015-1.475-0.027c-0.217-0.005-0.333,0.067-0.33,0.31c0.007,0.591,0,1.182,0.003,1.776
	c0,0.141,0.033,0.264,0.21,0.268c1.261,0.008,2.518,0.015,3.775,0.029c0.25,0,0.366-0.105,0.362-0.35
	C63.294,66.978,63.283,66.403,63.269,65.833z"/>
<path fill-rule="evenodd" clip-rule="evenodd" fill="#3F3D3B" d="M54.926,71.102c0.464,0.768,0.832,1.594,1.509,2.206
	c0.12,0.105,0.134,0.258,0.17,0.396c-0.098,0.036-0.116,0.116-0.123,0.203c-0.5,0.188-0.768-0.16-1.007-0.479
	c-0.301-0.406-0.54-0.855-0.821-1.275c-0.092-0.138-0.105-0.348-0.321-0.384l0.007,0.007c0.007-0.08,0.018-0.167-0.108-0.108
	l0.007,0.007c0.096-0.167-0.058-0.261-0.119-0.377c-0.642-1.183-0.812-2.43-0.424-3.72c0.413-1.388,0.866-2.759,1.301-4.14
	c0.091-0.279,0.192-0.58,0.569-0.438c0.344,0.127,0.236,0.417,0.152,0.674c-0.435,1.38-0.89,2.753-1.304,4.141
	C54.067,68.981,54.232,70.091,54.926,71.102z"/>
<path fill-rule="evenodd" clip-rule="evenodd" fill="#FAC837" d="M51.641,40.139c0.67-0.011,1.312,0.105,1.917,0.4
	c0.232,0.114,0.555,0.198,0.399,0.553c-0.149,0.34-0.417,0.194-0.67,0.09c-1.569-0.648-3.026-0.455-4.343,0.62
	c-1.622,1.323-1.94,3.767-0.723,5.468c0.16,0.227,0.355,0.471,0.062,0.68c-0.317,0.225-0.511-0.056-0.665-0.297
	c-1.02-1.6-1.156-3.286-0.272-4.957C48.238,41.008,49.704,40.141,51.641,40.139z"/>
<path fill-rule="evenodd" clip-rule="evenodd" fill="#3F3D3B" d="M75.371,68.435c-0.282-0.047-0.297-0.256-0.294-0.479
	c0-0.178-0.011-0.354-0.014-0.532c0.003-0.66,0.025-1.317,0.007-1.975c-0.007-0.359,0.116-0.497,0.485-0.493
	c1.203,0.013,2.402-0.002,3.602-0.007c0.982-0.003,1.073-0.011,1.142,0.969c0.08,1.159,0.591,1.759,1.736,1.921
	c0.463,0.063,0.909,0.275,1.352,0.45c0.478,0.186,0.854,0.488,0.978,1.026c-0.225,0.369-0.485,0.433-0.765,0.063
	c-0.231-0.314-0.564-0.445-0.913-0.549c-0.735-0.221-1.441-0.543-2.214-0.655c-0.449-0.057-0.59-0.359-0.648-0.763
	c-0.076-0.535-0.195-1.063-0.275-1.602c-0.036-0.254-0.119-0.37-0.398-0.364c-1.065,0.018-2.134,0.025-3.203,0.011
	c-0.322-0.004-0.381,0.13-0.377,0.411c0.019,0.69,0.011,1.379,0.011,2.067C75.581,68.134,75.614,68.34,75.371,68.435z"/>
<path fill-rule="evenodd" clip-rule="evenodd" fill="#3F3D3B" d="M74.646,67.435c-0.112,0.902-0.294,1.058-1.229,1.058
	c-0.642,0.002-1.275,0.002-1.913,0c-0.884,0-1.098-0.199-1.182-1.068c0.011-0.525,0.011-1.051,0.025-1.576
	c0.011-0.595,0.294-0.877,0.881-0.884c0.841-0.007,1.682-0.007,2.519,0c0.568,0.007,0.852,0.277,0.869,0.844
	C74.639,66.348,74.636,66.891,74.646,67.435z M72.208,65.838c0.003-0.108,0.062-0.263-0.105-0.273
	c-0.322-0.018-0.652-0.015-0.979,0.006c-0.166,0.009-0.185,0.159-0.185,0.297c0,0.57,0,1.146,0.004,1.718
	c0,0.187,0.051,0.331,0.282,0.288c0.815,0.007,1.627,0.015,2.442,0.025c0.239,0.003,0.362-0.102,0.358-0.348
	c-0.011-0.571-0.018-1.142-0.025-1.711c0.044-0.312-0.191-0.312-0.373-0.275c-0.297,0.059-0.655-0.199-0.888,0.178
	c-0.011,0.021,0.011,0.062,0.015,0.095c-0.007,0.452-0.015,0.909-0.021,1.364c0,0.179-0.033,0.344-0.25,0.344
	c-0.214,0-0.254-0.157-0.258-0.339C72.223,66.75,72.215,66.293,72.208,65.838z"/>
<path fill-rule="evenodd" clip-rule="evenodd" fill="#3F3D3B" d="M79.567,62.021c-0.123,0.63-0.348,0.826-1,0.83
	c-1.135,0.004-2.265,0.004-3.392,0c-0.688-0.002-0.888-0.159-1.065-0.83c0.116-0.359,0.239-0.716,0.344-1.076
	c0.135-0.442,0.428-0.632,0.877-0.63c1.112,0.001,2.232-0.013,3.345-0.007c0.594,0.003,0.858,0.283,0.877,0.878
	C79.557,61.463,79.563,61.742,79.567,62.021z M76.596,61.111c0.108-0.159,0.021-0.199-0.123-0.201c-0.377,0-0.754-0.014-1.127,0.002
	c-0.275,0.015-0.707,1.022-0.544,1.254c0.069,0.087,0.175,0.076,0.272,0.047c1.167,0.152,1.203,0.129,1.5-0.958
	C76.589,61.209,76.589,61.159,76.596,61.111z M77.176,61.191c-0.468,1.065-0.468,1.065,0.678,1.064c0.047,0,0.094,0,0.145,0
	c1.033-0.006,1.033-0.006,0.932-1.06c0.058-0.225-0.062-0.295-0.258-0.297c-0.405,0-0.812,0.007-1.214-0.003
	C77.241,60.891,77.165,60.996,77.176,61.191z"/>
<path fill-rule="evenodd" clip-rule="evenodd" fill="#3F3D3B" d="M46.854,71.043c1.299,0,2.596,0,3.892,0
	c0.192,0,0.438-0.108,0.442,0.269c0.002,0.333-0.188,0.319-0.411,0.326c-2.662,0.102-5.321,0.203-7.984,0.305
	c-0.192,0.007-0.388,0.058-0.41-0.262c-0.021-0.322,0.145-0.337,0.382-0.344c1.364-0.055,2.727-0.112,4.089-0.17
	C46.854,71.13,46.854,71.083,46.854,71.043z"/>
<path fill-rule="evenodd" clip-rule="evenodd" fill="#3F3D3B" d="M54.862,70.063c0.04-0.201,0.138-0.29,0.37-0.286
	c3.083,0.018,6.167,0.023,9.247,0.03c0.217,0,0.348,0.065,0.362,0.292c-0.003,0.219-0.138,0.248-0.326,0.244
	c-3.098-0.025-6.196-0.039-9.292-0.054C55.043,70.288,54.893,70.279,54.862,70.063z"/>
<path fill-rule="evenodd" clip-rule="evenodd" fill="#3F3D3B" d="M89.158,71.479c-0.971,0-1.942,0-2.913,0
	c-0.192-0.008-0.398,0.043-0.388-0.283c0.004-0.318,0.178-0.326,0.413-0.318c1.921,0.062,3.845,0.115,5.769,0.174
	c0.195,0.007,0.337,0.007,0.337,0.282c-0.004,0.283-0.123,0.315-0.362,0.312c-0.953-0.011-1.906-0.003-2.855-0.003
	C89.158,71.587,89.158,71.532,89.158,71.479z"/>
<path fill-rule="evenodd" clip-rule="evenodd" fill="#FAC837" d="M45.673,39.336c0.073,0.037,0.188,0.067,0.272,0.138
	c0.395,0.343,0.781,0.694,1.167,1.045c0.178,0.16,0.265,0.344,0.069,0.547c-0.194,0.207-0.37,0.125-0.549-0.04
	c-0.386-0.352-0.777-0.697-1.168-1.047c-0.132-0.118-0.201-0.257-0.136-0.437C45.378,39.403,45.497,39.356,45.673,39.336z"/>
<path fill-rule="evenodd" clip-rule="evenodd" fill="#FAC837" d="M54.797,37.747c-0.176,0.446-0.388,1.013-0.628,1.567
	c-0.078,0.179-0.267,0.259-0.46,0.158c-0.185-0.098-0.227-0.275-0.154-0.468c0.199-0.521,0.398-1.043,0.603-1.562
	c0.078-0.192,0.23-0.281,0.437-0.214C54.779,37.291,54.837,37.436,54.797,37.747z"/>
<path fill-rule="evenodd" clip-rule="evenodd" fill="#FAC837" d="M46.042,47.563c0.232,0.011,0.352,0.051,0.413,0.188
	c0.067,0.156,0.056,0.319-0.083,0.399c-0.555,0.315-1.116,0.616-1.685,0.906c-0.13,0.069-0.257-0.025-0.333-0.142
	c-0.076-0.114-0.125-0.277-0.018-0.366C44.869,48.101,45.524,47.875,46.042,47.563z"/>
<path fill-rule="evenodd" clip-rule="evenodd" fill="#FAC837" d="M50.489,38.834c0,0.217-0.083,0.358-0.297,0.395
	c-0.21,0.033-0.366-0.069-0.413-0.264c-0.134-0.555-0.255-1.114-0.364-1.674c-0.031-0.163-0.009-0.333,0.212-0.377
	c0.199-0.036,0.382,0.004,0.438,0.212C50.219,37.693,50.351,38.264,50.489,38.834z"/>
<path fill-rule="evenodd" clip-rule="evenodd" fill="#3F3D3B" d="M81.31,65.583c-0.112,0-0.231,0.016-0.344-0.004
	c-0.218-0.038-0.352-0.17-0.337-0.405c0.018-0.21,0.17-0.343,0.362-0.323c0.366,0.04,0.576-0.113,0.731-0.428
	c0.105-0.221,0.315-0.293,0.537-0.165c0.21,0.122,0.191,0.324,0.119,0.52C82.161,65.358,81.843,65.599,81.31,65.583z"/>
<path fill-rule="evenodd" clip-rule="evenodd" fill="#FAC837" d="M44.004,43.722c0.46,0.049,0.918,0.098,1.375,0.145
	c0.255,0.029,0.384,0.156,0.364,0.426c-0.02,0.292-0.23,0.295-0.426,0.277c-0.46-0.04-0.917-0.096-1.373-0.156
	c-0.25-0.036-0.587,0.003-0.555-0.395C43.426,43.617,43.76,43.74,44.004,43.722z"/>
<path fill-rule="evenodd" clip-rule="evenodd" fill="#FAC837" d="M58.116,40.2c0.181,0.029,0.33,0.058,0.398,0.214
	c0.054,0.13,0.047,0.279-0.065,0.362c-0.261,0.196-0.532,0.38-0.812,0.536c-0.127,0.069-0.29,0.033-0.409-0.083
	c-0.12-0.116-0.087-0.25-0.015-0.359C57.442,40.537,57.823,40.411,58.116,40.2z"/>
<path fill-rule="evenodd" clip-rule="evenodd" fill="#A9BBD2" d="M84.506,70.195c0.091-0.009,0.178-0.017,0.265-0.025
	c0.231,0.065,0.29,0.235,0.286,0.453c-0.007,0.381-0.004,0.758-0.004,1.131c-0.152,0-0.304,0-0.456,0
	C84.575,71.239,84.622,70.71,84.506,70.195z"/>
<path fill-rule="evenodd" clip-rule="evenodd" fill="#FAC837" d="M43.791,38.374c-0.005-0.257,0.13-0.391,0.354-0.4
	c0.217-0.009,0.33,0.154,0.333,0.352c0.001,0.215-0.094,0.372-0.352,0.378C43.877,38.708,43.839,38.534,43.791,38.374z"/>
<path fill-rule="evenodd" clip-rule="evenodd" fill="#FAC837" d="M47.662,49.455c-0.023,0.174-0.116,0.315-0.338,0.315
	c-0.249,0-0.352-0.156-0.346-0.384c0.003-0.235,0.152-0.304,0.364-0.301C47.568,49.09,47.669,49.205,47.662,49.455z"/>
<path fill-rule="evenodd" clip-rule="evenodd" fill="#FAC837" d="M52.029,38.403c0.192,0.025,0.358,0.113,0.348,0.326
	c-0.007,0.203-0.102,0.392-0.352,0.374c-0.217-0.015-0.38-0.142-0.357-0.377C51.688,38.539,51.808,38.403,52.029,38.403z"/>
<path fill-rule="evenodd" clip-rule="evenodd" fill="#FAC837" d="M55.58,35.667c-0.021,0.221-0.127,0.37-0.37,0.358
	c-0.214-0.011-0.326-0.145-0.317-0.351c0.009-0.218,0.11-0.375,0.364-0.354C55.464,35.341,55.587,35.446,55.58,35.667z"/>
<path fill-rule="evenodd" clip-rule="evenodd" fill="#FAC837" d="M45.883,46.063c-0.035,0.25-0.125,0.39-0.346,0.392
	c-0.221,0-0.395-0.105-0.4-0.332c-0.002-0.194,0.142-0.343,0.341-0.346C45.684,45.773,45.836,45.893,45.883,46.063z"/>
<path fill-rule="evenodd" clip-rule="evenodd" fill="#FAC837" d="M41.694,44.165c-0.207-0.015-0.352-0.127-0.34-0.368
	c0.007-0.212,0.134-0.33,0.35-0.324c0.217,0.005,0.324,0.134,0.332,0.346C42.046,44.038,41.941,44.157,41.694,44.165z"/>
<path fill-rule="evenodd" clip-rule="evenodd" fill="#FAC837" d="M43.2,49.708c-0.038,0.208-0.167,0.319-0.368,0.313
	c-0.199-0.006-0.355-0.125-0.35-0.325c0.005-0.215,0.147-0.358,0.386-0.333C43.071,49.386,43.191,49.498,43.2,49.708z"/>
<path fill-rule="evenodd" clip-rule="evenodd" fill="#FAC837" d="M46.284,42.401c-0.036,0.181-0.092,0.343-0.328,0.354
	c-0.221,0.009-0.346-0.105-0.362-0.308c-0.015-0.207,0.091-0.355,0.313-0.355C46.104,42.092,46.254,42.175,46.284,42.401z"/>
<path fill-rule="evenodd" clip-rule="evenodd" fill="#FAC837" d="M48.413,39.287c0.19,0.036,0.326,0.138,0.333,0.348
	c0.007,0.221-0.152,0.326-0.34,0.333c-0.203,0.007-0.326-0.132-0.332-0.339C48.068,39.414,48.204,39.313,48.413,39.287z"/>
<path fill-rule="evenodd" clip-rule="evenodd" fill="#FAC837" d="M55.852,40.111c-0.04,0.207-0.134,0.332-0.359,0.323
	c-0.217-0.005-0.344-0.11-0.337-0.328c0.007-0.208,0.127-0.335,0.344-0.322C55.703,39.798,55.83,39.903,55.852,40.111z"/>
<path fill-rule="evenodd" clip-rule="evenodd" fill="#FAC837" d="M60.243,39.407c-0.015,0.196-0.098,0.333-0.323,0.341
	c-0.21,0.005-0.355-0.094-0.358-0.303c0-0.187,0.087-0.354,0.315-0.354C60.083,39.09,60.214,39.186,60.243,39.407z"/>
<path fill-rule="evenodd" clip-rule="evenodd" fill="#D4DEEC" d="M50.579,64.612c0.024,0.094,0.088,0.166,0.008,0.234
	c-0.032,0.027-0.081-0.005-0.102-0.036C50.42,64.714,50.52,64.685,50.579,64.612z"/>
<path fill-rule="evenodd" clip-rule="evenodd" fill="#D4DEEC" d="M50.771,73.739c-0.02-0.036-0.084-0.025-0.085-0.073
	c-0.002-0.051,0.048-0.059,0.085-0.064c0.044-0.008,0.068,0.015,0.063,0.061C50.831,73.7,50.81,73.727,50.771,73.739z"/>
<path fill-rule="evenodd" clip-rule="evenodd" fill="#D4DEEC" d="M75.291,65.086c-0.029,0.004-0.047-0.002-0.046-0.023
	c0.004-0.072,0.075-0.078,0.117-0.111c0.017-0.013,0.052,0.007,0.049,0.027C75.398,65.046,75.309,65.031,75.291,65.086z"/>
<path fill-rule="evenodd" clip-rule="evenodd" fill="#D4DEEC" d="M55.561,68.404c0.042,0.002,0.08,0.009,0.089,0.057
	c0.007,0.033-0.015,0.055-0.044,0.044c-0.038-0.013-0.095-0.005-0.102-0.062C55.501,68.411,55.533,68.406,55.561,68.404z"/>
<path fill-rule="evenodd" clip-rule="evenodd" fill="#D4DEEC" d="M51.341,62.604c0,0.035-0.016,0.066-0.059,0.07
	c-0.034,0.004-0.065-0.012-0.062-0.051c0.004-0.038,0.035-0.062,0.071-0.07C51.326,62.545,51.339,62.567,51.341,62.604z"/>
<path fill-rule="evenodd" clip-rule="evenodd" fill="#D4DEEC" d="M74.934,67.856c0.03-0.009,0.06-0.016,0.088-0.024
	c0.03-0.01,0.06-0.024,0.089-0.004c0.006,0.004,0.01,0.025,0.005,0.033c-0.02,0.037-0.059,0.035-0.093,0.032
	C74.992,67.891,74.948,67.913,74.934,67.856z"/>
<path fill-rule="evenodd" clip-rule="evenodd" fill="#D4DEEC" d="M75.62,61.604c-0.039-0.08-0.072-0.124-0.049-0.183
	c0.002-0.006,0.026-0.012,0.031-0.008C75.658,61.457,75.64,61.512,75.62,61.604z"/>
<path fill-rule="evenodd" clip-rule="evenodd" fill="#A9BBD2" d="M42.079,76.116c0.145,0.019,0.348-0.065,0.384,0.167
	c0.031,0.21-0.127,0.225-0.279,0.228C42.05,76.406,42.079,76.258,42.079,76.116z"/>
<path fill-rule="evenodd" clip-rule="evenodd" fill="#D4DEEC" d="M74.389,65.525c0.012-0.02,0.028-0.027,0.051-0.021
	c0.003,0.001,0.004,0.007,0.006,0.011C74.426,65.52,74.407,65.522,74.389,65.525L74.389,65.525z"/>
<path fill-rule="evenodd" clip-rule="evenodd" fill="#A9BBD2" d="M80.521,76.334c0.028,0.318-0.265,0.348-0.442,0.456
	c-0.595,0.348-1.957,0.225-2.475-0.21c-0.033-0.029-0.036-0.091-0.055-0.138c0.131,0.021,0.257,0.04,0.388,0.058
	c0.765,0.08,1.479-0.021,2.084-0.551c0.185-0.151,0.373-0.344,0.166-0.576c-0.191-0.213-0.377-0.047-0.54,0.112
	c-0.678,0.688-2.398,0.609-2.892-0.398c0.033-0.369,0-0.739,0.073-1.112c0.134-0.688,0.666-1.04,1.115-1.468
	c0.362-0.003,0.722-0.007,1.08-0.018c0.421-0.011,0.678,0.192,0.794,0.591c0.087,0.297,0.195,0.594,0.301,0.884
	c0.054,0.145,0.163,0.218,0.312,0.167s0.191-0.167,0.159-0.319c-0.055-0.217-0.116-0.441-0.17-0.659
	c1.344-0.008,2.688-0.008,4.032-0.011c0.087,0.38-0.166,0.395-0.431,0.398c-0.786,0.004-1.569,0.018-2.355,0.018
	c-0.409,0-0.544,0.171-0.352,0.551c-0.004,0.084-0.007,0.167-0.015,0.247c-0.246,0.007-0.496,0.007-0.742,0.021
	c-0.174,0.011-0.326,0.095-0.323,0.301c0.004,0.214,0.167,0.265,0.341,0.271c0.275,0.008,0.547,0,0.885,0
	c-0.218,0.392-0.515,0.58-0.834,0.739C80.281,75.855,80.245,76.069,80.521,76.334z M77.788,73.493
	c-0.167,0.159-0.261,0.348-0.214,0.583c-0.29,0.148-0.269,0.366-0.119,0.605c0.253,0.405,0.645,0.5,1.087,0.464
	c0.087,0.301,0.304,0.191,0.467,0.127c0.489-0.192,0.631-0.591,0.428-1.135c-0.123-0.801-0.565-1.178-1.257-1.08
	C77.915,73.095,77.752,73.203,77.788,73.493z"/>
<path fill-rule="evenodd" clip-rule="evenodd" fill="#FDFDF7" d="M77.943,72.507c-0.449,0.428-0.981,0.779-1.115,1.468
	c-0.073,0.373-0.04,0.743-0.073,1.112c-0.231-0.058-0.413-0.015-0.5,0.232c-2.265,0-4.529,0-6.794,0
	c-0.003-0.095-0.003-0.188-0.007-0.283c0.479,0,0.953-0.007,1.428-0.007c0.221,0,0.409-0.072,0.42-0.312
	c0.015-0.271-0.188-0.355-0.428-0.362c-0.405-0.008-0.814,0-1.225,0c0.011-0.235,0.025-0.472,0.04-0.707
	c0.156,0.12,0.341,0.076,0.519,0.08c1.928,0.004,3.855,0.015,5.782,0.018c-0.024,0.457-0.221,0.638-0.717,0.609
	c-0.888-0.051-1.779-0.015-2.663-0.015c-0.261,0-0.551,0.007-0.569,0.33c-0.015,0.373,0.301,0.358,0.572,0.358
	c1.084,0,2.171,0,3.258,0.015c0.25,0,0.345-0.123,0.406-0.337c0.13-0.446,0.264-0.881,0.409-1.319
	C76.969,72.515,77.03,72.475,77.943,72.507z"/>
<path fill-rule="evenodd" clip-rule="evenodd" fill="#3F3D3B" d="M60.258,73.732c0.108-0.326,0.206-0.652,0.326-0.979
	c0.203-0.565,0.576-0.848,1.17-0.862c0.525-0.015,1.047,0.003,1.569-0.011c0.888-0.029,1.29,0.496,1.493,1.261
	c0.145,0.504,0.243,1.025,0.497,1.489c-0.008,0.102-0.011,0.199-0.021,0.297c-0.146,0.102-0.305,0.148-0.486,0.094l0.007,0.008
	c-0.174-0.515-0.337-1.029-0.533-1.533c-0.112-0.293-0.094-0.659-0.399-0.873c-0.616-0.268-1.271-0.058-1.902-0.138
	c-0.453-0.054-0.743,0.138-0.873,0.602c-0.152,0.559-0.348,1.095-0.522,1.646c-0.05,0.166-0.116,0.352-0.319,0.312
	c-0.529-0.105-1.051,0.138-1.58,0.003c-0.58-0.264-1.243-0.369-1.739-0.822c0.062-0.5,0.221-0.594,0.663-0.413
	c0.62,0.247,1.239,0.442,1.913,0.559C60.214,74.489,60.164,74.108,60.258,73.732z"/>
<path fill-rule="evenodd" clip-rule="evenodd" fill="#3F3D3B" d="M81.313,74.108c-0.192-0.38-0.058-0.551,0.352-0.551
	c0.786,0,1.569-0.014,2.355-0.018c0.265-0.004,0.518-0.019,0.431-0.398c0.08-0.25-0.293-0.413-0.13-0.685
	c0.348-0.262,0.525,0.021,0.725,0.231c0.015,0.221,0.029,0.442,0.047,0.667c-0.068,0.475-0.354,0.768-0.822,0.753
	c-0.392-0.007-0.565,0.182-0.692,0.486c-0.119,0.282-0.318,0.384-0.619,0.369c-0.377-0.021-0.75-0.007-1.188-0.007
	c0.098,0.21,0.13,0.38,0.068,0.554c-0.384,0.366-0.746,0.758-1.318,0.823c-0.275-0.265-0.239-0.479,0.104-0.646
	c0.319-0.159,0.616-0.348,0.834-0.739c-0.338,0-0.609,0.008-0.885,0c-0.174-0.007-0.337-0.058-0.341-0.271
	c-0.003-0.206,0.149-0.29,0.323-0.301c0.246-0.015,0.496-0.015,0.742-0.021c0.595,0,1.199,0.123,1.779-0.072
	c-0.004-0.059-0.007-0.116-0.007-0.175C82.484,74.108,81.9,74.108,81.313,74.108z"/>
<path fill-rule="evenodd" clip-rule="evenodd" fill="#A9BBD2" d="M69.689,73.648c-0.015,0.235-0.029,0.472-0.04,0.707
	c-0.416,0.123-0.395,0.377-0.195,0.681c0.004,0.095,0.004,0.188,0.007,0.283c-0.036,0.79-0.036,0.79-0.808,0.79
	c-0.809,0-1.612-0.004-2.417,0.003c-0.337,0.004-0.54-0.127-0.544-0.481c0.95-0.008,1.899-0.008,2.849-0.015
	c0.203-0.007,0.492,0.051,0.489-0.261c-0.004-0.309-0.294-0.239-0.493-0.243c-0.884-0.011-1.765-0.025-2.648-0.032
	c0-0.105,0-0.214,0.004-0.319c0.916-0.007,1.837-0.015,2.761-0.025c0.163-0.003,0.417,0.055,0.413-0.21
	c-0.004-0.271-0.261-0.191-0.424-0.191c-0.888-0.019-1.775-0.025-2.66-0.037c0.004-0.115,0.004-0.238,0.011-0.354
	c0.877-0.008,1.758-0.008,2.639-0.033c0.202-0.003,0.539,0.135,0.562-0.199c0.018-0.354-0.362-0.152-0.536-0.268
	c0.278-0.182,0.587-0.051,0.876-0.095C69.689,73.395,69.672,73.529,69.689,73.648z"/>
<path fill-rule="evenodd" clip-rule="evenodd" fill="#FDFDF7" d="M81.839,75.511c0.062-0.174,0.029-0.344-0.068-0.554
	c0.438,0,0.812-0.015,1.188,0.007c0.301,0.015,0.5-0.087,0.619-0.369c0.127-0.305,0.301-0.493,0.692-0.486
	c0.468,0.015,0.754-0.278,0.822-0.753c0.572-0.036,0.555,0.348,0.565,0.753c0.015,0.425-0.214,0.624-0.587,0.609
	c-0.396-0.021-0.646,0.094-0.812,0.464c-0.138,0.312-0.362,0.416-0.747,0.362C82.962,75.472,82.397,75.519,81.839,75.511z"/>
<path fill-rule="evenodd" clip-rule="evenodd" fill="#FDFDF7" d="M58.685,75.047c0.529,0.135,1.051-0.108,1.58-0.003
	c0.203,0.04,0.269-0.146,0.319-0.312c0.174-0.551,0.37-1.087,0.522-1.646c0.13-0.464,0.42-0.655,0.873-0.602
	c0.631,0.08,1.287-0.13,1.902,0.138c-0.536,0.059-1.083,0.036-1.583,0.29c-0.152,0.08-0.312,0.123-0.257,0.348
	c-0.033,0.025-0.062,0.059-0.091,0.087c-0.431,0.059-0.478,0.436-0.583,0.735c-0.101,0.298-0.13,0.62-0.192,0.932
	c-0.112-0.159-0.253-0.261-0.438-0.138c-0.293,0.203-0.036,0.428-0.011,0.642c-0.587,0.025-1.185,0.152-1.732-0.199
	C58.877,75.239,58.71,75.232,58.685,75.047z"/>
<path fill-rule="evenodd" clip-rule="evenodd" fill="#3F3D3B" d="M60.725,75.519c-0.025-0.214-0.283-0.438,0.011-0.642
	c0.185-0.123,0.326-0.021,0.438,0.138c0.638,1.08,2.185,1.269,3.022,0.348c0.181-0.195,0.359-0.315,0.616-0.333l-0.007-0.008
	c0.145,0.352,0.007,0.616-0.25,0.852c-0.293,0.272-0.624,0.453-1.011,0.563c-0.464,0.13-0.935,0.047-1.406,0.072
	C61.565,76.326,61.098,75.993,60.725,75.519z"/>
<path fill-rule="evenodd" clip-rule="evenodd" fill="#3F3D3B" d="M76.255,75.319c0.087-0.247,0.269-0.29,0.5-0.232
	c0.493,1.008,2.214,1.087,2.892,0.398c0.163-0.159,0.349-0.325,0.54-0.112c0.207,0.232,0.019,0.425-0.166,0.576
	c-0.605,0.529-1.319,0.631-2.084,0.551c-0.131-0.018-0.257-0.036-0.388-0.058C76.994,76.214,76.466,75.949,76.255,75.319z"/>
<path fill-rule="evenodd" clip-rule="evenodd" fill="#A9BBD2" d="M62.138,76.508c0.471-0.025,0.942,0.058,1.406-0.072
	c0.388-0.109,0.718-0.29,1.011-0.563c0.257-0.235,0.395-0.5,0.25-0.852c0.181,0.055,0.34,0.008,0.486-0.094
	c0.104,0.055,0.104,0.156,0.119,0.254c-0.025,0.155-0.007,0.304,0.112,0.424c-0.094,0.112-0.221,0.214-0.271,0.341
	c-0.265,0.739-0.892,0.895-1.551,0.945c-0.402,0.036-0.819,0.08-1.214-0.087C62.337,76.739,62.164,76.718,62.138,76.508z"/>
<path fill-rule="evenodd" clip-rule="evenodd" fill="#FDFDF7" d="M60.258,73.732c-0.094,0.376-0.044,0.757-0.736,0.638
	c-0.674-0.116-1.293-0.312-1.913-0.559c-0.442-0.181-0.602-0.087-0.663,0.413c-0.243,0.021-0.355-0.145-0.464-0.318
	c0.007-0.087,0.025-0.167,0.123-0.203C57.823,73.648,59.04,73.631,60.258,73.732z"/>
<path fill-rule="evenodd" clip-rule="evenodd" fill="#3F3D3B" d="M65.522,75.605c-0.119-0.12-0.138-0.269-0.112-0.424
	c0.156-0.033,0.315-0.069,0.479-0.102c0.884,0.007,1.765,0.021,2.648,0.032c0.199,0.004,0.489-0.065,0.493,0.243
	c0.003,0.312-0.286,0.254-0.489,0.261c-0.949,0.007-1.898,0.007-2.849,0.015C65.639,75.623,65.577,75.616,65.522,75.605z"/>
<path fill-rule="evenodd" clip-rule="evenodd" fill="#FDFDF7" d="M69.82,71.181c-0.062-0.362-0.055-0.721-0.012-1.081
	c0.127,0,0.254,0,0.381,0c0.047,0.255,0.239,0.277,0.449,0.277c1.598-0.008,3.188-0.008,4.783,0c0.221,0,0.388-0.051,0.468-0.273
	c0.188,0.039,0.38,0.041,0.572,0c0.065,0.103,0.098,0.266,0.261,0.259c0.895-0.029,1.797,0.108,2.688-0.074
	c0.025,0.172-0.072,0.28-0.199,0.371c-0.102,0.065-0.195,0.131-0.127,0.271c0.072,0.135,0.178,0.099,0.298,0.069
	c0.438-0.095,0.808-0.312,1.134-0.608c0.275-0.008,0.555-0.022,0.833-0.015c0.214,0.003,0.396-0.029,0.472-0.263
	c0.271,0.038,0.558-0.051,0.826,0.062c-0.239,0.303-0.138,0.672-0.186,1.009C78.248,71.181,74.03,71.181,69.82,71.181z"/>
<path fill-rule="evenodd" clip-rule="evenodd" fill="#3F3D3B" d="M77.943,72.507c-0.913-0.032-0.975,0.008-1.257,0.881
	c-0.146,0.438-0.279,0.873-0.409,1.319c-0.062,0.214-0.156,0.337-0.406,0.337c-1.087-0.015-2.174-0.015-3.258-0.015
	c-0.271,0-0.587,0.015-0.572-0.358c0.019-0.323,0.309-0.33,0.569-0.33c0.884,0,1.775-0.036,2.663,0.015
	c0.496,0.028,0.692-0.152,0.717-0.609c0.105-0.289,0.207-0.579,0.309-0.873c0.206-0.604,0.568-0.888,1.206-0.895
	c0.508-0.008,1.019,0.015,1.529-0.008c0.424-0.011,0.758,0.171,1.065,0.436c0.105,0.246,0.214,0.496,0.319,0.746
	c0.054,0.218,0.115,0.442,0.17,0.659c0.032,0.152-0.011,0.269-0.159,0.319s-0.258-0.022-0.312-0.167
	c-0.105-0.29-0.214-0.587-0.301-0.884c-0.116-0.398-0.373-0.602-0.794-0.591C78.665,72.5,78.306,72.504,77.943,72.507z"/>
<path fill-rule="evenodd" clip-rule="evenodd" fill="#FDFDF7" d="M80.419,73.152c-0.105-0.25-0.214-0.5-0.319-0.746
	c0.37,0.007,0.739,0.014,1.112,0.021c-0.036,0.312,0.102,0.445,0.417,0.435c0.536-0.015,1.076-0.018,1.608-0.007
	c0.315,0.003,0.442-0.146,0.442-0.442c0.218-0.015,0.435-0.051,0.642,0.044c-0.163,0.271,0.21,0.435,0.13,0.685
	C83.107,73.145,81.763,73.145,80.419,73.152z"/>
<path fill-rule="evenodd" clip-rule="evenodd" fill="#3F3D3B" d="M82.462,71.185c0.048-0.337-0.054-0.706,0.186-1.009
	c0.301-0.176,0.608-0.303,0.935-0.049c0.007,0.161-0.033,0.297-0.185,0.38c-0.294-0.043-0.438,0.072-0.413,0.377
	c0.021,0.246-0.091,0.569,0.34,0.562c0.211-0.003,0.345,0.08,0.374,0.301c-0.222,0.319-0.522,0.225-0.801,0.138
	C82.567,71.782,82.473,71.5,82.462,71.185z"/>
<path fill-rule="evenodd" clip-rule="evenodd" fill="#3F3D3B" d="M83.68,72.413c0,0.297-0.127,0.445-0.442,0.442
	c-0.532-0.011-1.072-0.008-1.608,0.007c-0.315,0.011-0.453-0.123-0.417-0.435c0.084-0.08,0.178-0.159,0.298-0.152
	C82.234,72.344,82.977,72.08,83.68,72.413z"/>
<path fill-rule="evenodd" clip-rule="evenodd" fill="#D4DEEC" d="M69.533,73.348c-0.289,0.044-0.598-0.087-0.876,0.095
	c-0.758,0-1.512,0-2.265,0c-0.037-0.065-0.065-0.072-0.102,0c-0.207,0.051-0.41,0.098-0.612,0.141
	c-0.091-0.123-0.04-0.264-0.04-0.398c0.956-0.127,1.92-0.032,2.881-0.047c0.289-0.007,0.587-0.094,0.865,0.051
	C69.436,73.239,69.486,73.294,69.533,73.348z"/>
<path fill-rule="evenodd" clip-rule="evenodd" fill="#3F3D3B" d="M84.506,70.195c0.116,0.515,0.069,1.044,0.091,1.559
	c-0.182,0.242-0.355,0.242-0.529-0.008c-0.004-0.159-0.007-0.318-0.007-0.481c0.076-0.388-0.065-0.775-0.036-1.161
	C84.22,69.962,84.387,69.958,84.506,70.195z"/>
<path fill-rule="evenodd" clip-rule="evenodd" fill="#A9BBD2" d="M84.061,71.265c0,0.163,0.003,0.322,0.007,0.481
	c-0.127,0-0.246,0-0.369,0c-0.029-0.221-0.163-0.304-0.374-0.301c-0.431,0.008-0.318-0.315-0.34-0.562
	c-0.025-0.305,0.119-0.42,0.413-0.377C83.375,71.065,83.513,71.225,84.061,71.265z"/>
<path fill-rule="evenodd" clip-rule="evenodd" fill="#D4DEEC" d="M75.371,68.435c0.243-0.095,0.21-0.301,0.21-0.5
	c0-0.688,0.008-1.377-0.011-2.067c-0.004-0.281,0.055-0.415,0.377-0.411c1.069,0.015,2.138,0.007,3.203-0.011
	c0.279-0.006,0.362,0.11,0.398,0.364c0.08,0.538,0.199,1.066,0.275,1.602c0.059,0.403,0.199,0.706,0.648,0.763
	c-0.094,0.185-0.185,0.367-0.278,0.553c-0.402-0.029-0.809-0.051-1.211-0.095c-0.202-0.02-0.354-0.002-0.373,0.245
	c-0.862,0.003-1.729,0.003-2.591,0.013C75.69,68.891,75.437,68.799,75.371,68.435z M78.063,68.42c0.366,0,0.729,0.011,1.087-0.002
	c0.214-0.009,0.536,0.085,0.529-0.263c-0.004-0.312-0.305-0.231-0.504-0.231c-0.46-0.011-0.924,0-1.381-0.008
	c-1.362-0.021-1.178,0.254-1.199-1.255c-0.007-0.354,0.131-0.512,0.496-0.502c0.54,0.015,1.084,0.002,1.627,0.002
	c0.167-0.002,0.366,0.001,0.385-0.216c0.015-0.241-0.182-0.279-0.377-0.279c-0.608,0-1.222-0.013-1.826,0.008
	c-0.479,0.014-0.765,0.297-0.79,0.775c-0.019,0.393-0.019,0.788,0,1.185c0.025,0.513,0.297,0.769,0.819,0.784
	C77.31,68.431,77.687,68.42,78.063,68.42z"/>
<path fill-rule="evenodd" clip-rule="evenodd" fill="#3F3D3B" d="M75.89,70.104c-0.08,0.223-0.247,0.273-0.468,0.273
	c-1.595-0.008-3.186-0.008-4.783,0c-0.21,0-0.402-0.022-0.449-0.277c0.058-0.23,0.239-0.233,0.428-0.233
	c1.608,0.001,3.218,0.003,4.826-0.004C75.646,69.862,75.788,69.935,75.89,70.104z"/>
<path fill-rule="evenodd" clip-rule="evenodd" fill="#3F3D3B" d="M78.61,68.877c0.019-0.247,0.171-0.265,0.373-0.245
	c0.402,0.044,0.809,0.065,1.211,0.095c0.572,0.141,1.181,0.132,1.714,0.424c0.152,0.083,0.428,0.128,0.308,0.398
	c-0.112,0.252-0.301,0.185-0.525,0.083c-0.797-0.35-1.656-0.386-2.504-0.458C78.962,69.155,78.661,69.246,78.61,68.877z"/>
<path fill-rule="evenodd" clip-rule="evenodd" fill="#3F3D3B" d="M79.411,70.288c-0.892,0.183-1.794,0.045-2.688,0.074
	c-0.163,0.007-0.195-0.156-0.261-0.259c0.094-0.169,0.229-0.247,0.435-0.241c0.718,0.011,1.428,0.007,2.146,0.005
	c0.191,0,0.365,0.022,0.416,0.247C79.444,70.174,79.426,70.231,79.411,70.288z"/>
<path fill-rule="evenodd" clip-rule="evenodd" fill="#A9BBD2" d="M79.411,70.288c0.015-0.057,0.033-0.114,0.047-0.174
	c0.275,0,0.548,0,0.823,0c0.021,0.136,0.094,0.237,0.235,0.277C80.19,70.688,79.82,70.905,79.383,71
	c-0.12,0.029-0.226,0.065-0.298-0.069c-0.068-0.141,0.025-0.206,0.127-0.271C79.339,70.568,79.437,70.46,79.411,70.288z
	 M79.676,70.292c0.029-0.017,0.058-0.033,0.087-0.051c-0.025-0.019-0.051-0.055-0.065-0.05c-0.036,0.008-0.068,0.038-0.098,0.059
	C79.625,70.263,79.654,70.277,79.676,70.292z"/>
<path fill-rule="evenodd" clip-rule="evenodd" fill="#3F3D3B" d="M80.517,70.392c-0.142-0.04-0.214-0.142-0.235-0.277
	c0.304-0.36,1.221-0.36,1.54,0c-0.076,0.233-0.258,0.266-0.472,0.263C81.071,70.369,80.792,70.384,80.517,70.392z"/>
<path fill-rule="evenodd" clip-rule="evenodd" fill="#FDFDF7" d="M84.061,71.265c-0.548-0.04-0.686-0.199-0.663-0.758
	c0.151-0.083,0.191-0.219,0.185-0.38c0.148-0.008,0.297-0.019,0.442-0.023C83.995,70.489,84.137,70.877,84.061,71.265z"/>
<path fill-rule="evenodd" clip-rule="evenodd" fill="#3F3D3B" d="M65.679,73.583c0.202-0.043,0.405-0.09,0.612-0.141
	c0.032,0,0.064,0,0.102,0c0.753,0,1.507,0,2.265,0c0.174,0.115,0.554-0.087,0.536,0.268c-0.022,0.334-0.359,0.196-0.562,0.199
	c-0.881,0.025-1.762,0.025-2.639,0.033c-0.163-0.036-0.333-0.065-0.352-0.275C65.667,73.646,65.682,73.616,65.679,73.583z"/>
<path fill-rule="evenodd" clip-rule="evenodd" fill="#A9BBD2" d="M65.313,74.631c-0.254-0.464-0.352-0.985-0.497-1.489
	c0.217,0.152,0.326,0.395,0.493,0.591c0.047,0.231,0.112,0.464,0.305,0.63c-0.011,0.087-0.029,0.182-0.044,0.271
	C65.482,74.634,65.396,74.634,65.313,74.631z"/>
<path fill-rule="evenodd" clip-rule="evenodd" fill="#FDFDF7" d="M65.613,74.362c-0.192-0.166-0.258-0.398-0.305-0.63
	c0.116-0.008,0.239,0.028,0.333-0.065c0.019,0.21,0.188,0.239,0.352,0.275c-0.007,0.116-0.007,0.239-0.011,0.354
	C65.859,74.319,65.74,74.334,65.613,74.362z"/>
<path fill-rule="evenodd" clip-rule="evenodd" fill="#FDFDF7" d="M54.232,71.667c0.126-0.059,0.116,0.028,0.108,0.108
	C54.237,71.805,54.167,71.805,54.232,71.667z"/>
<path fill-rule="evenodd" clip-rule="evenodd" fill="#EDAB3D" d="M69.16,67.426c0,0.891,0,1.78,0,2.67
	c-1.076,0.004-2.145,0.008-3.214,0.008c-0.043-0.899-0.051-1.8,0-2.698c0.174,0.006,0.348,0.011,0.519,0.015
	c0.083,0.832,0.278,0.996,1.163,0.987c0.735-0.009,0.979-0.233,1.036-0.981C68.831,67.426,68.994,67.426,69.16,67.426z"/>
<path fill-rule="evenodd" clip-rule="evenodd" fill="#FAC837" d="M69.16,71.17c0.004,0.373,0.004,0.754,0.019,1.135
	c0.011,0.261-0.105,0.333-0.355,0.329c-0.854-0.011-1.71-0.011-2.565-0.003c-0.217,0.003-0.352-0.051-0.337-0.298
	c0.021-0.391-0.047-0.79,0.04-1.181C67.026,71.159,68.092,71.167,69.16,71.17z"/>
<path fill-rule="evenodd" clip-rule="evenodd" fill="#FDFDF7" d="M69.16,67.426c-0.166,0-0.329,0-0.496,0
	c-0.007-0.591-0.007-1.184-0.021-1.772c-0.019-0.545-0.29-0.806-0.834-0.822c-0.145-0.005-0.297-0.002-0.441,0
	c-0.616,0.013-0.866,0.259-0.877,0.866c-0.008,0.574-0.015,1.15-0.025,1.723c-0.171-0.004-0.345-0.009-0.519-0.015
	c-0.007-0.888-0.015-1.775-0.025-2.663c-0.004-0.272,0.112-0.38,0.388-0.377c0.819,0.013,1.646,0.017,2.464,0
	c0.298-0.003,0.424,0.094,0.421,0.395C69.175,65.648,69.171,66.537,69.16,67.426z"/>
<path fill-rule="evenodd" clip-rule="evenodd" fill="#FDFDF7" d="M69.16,71.17c-1.068-0.003-2.134-0.011-3.199-0.018
	c-0.058-0.348-0.044-0.699-0.015-1.049c1.069,0,2.138-0.004,3.214-0.008C69.208,70.453,69.2,70.812,69.16,71.17z"/>
<path fill-rule="evenodd" clip-rule="evenodd" fill="#D4DEEC" d="M60.758,65.543c0.221,0.269,0.058,0.582,0.098,0.871
	c0.025,0.194-0.003,0.392,0.007,0.589c0.014,0.21-0.087,0.529,0.257,0.533c0.352,0,0.235-0.323,0.246-0.529
	c0.025-0.392,0.025-0.782,0.036-1.174c0.624,0,1.243,0,1.866,0c0.015,0.57,0.025,1.145,0.036,1.716
	c0.004,0.244-0.112,0.35-0.362,0.35c-1.257-0.015-2.515-0.021-3.775-0.029c0.007-0.46,0.025-0.922,0.007-1.384
	c-0.025-0.428,0.062-0.633,0.572-0.687C60.069,65.768,60.519,65.967,60.758,65.543z"/>
<path fill-rule="evenodd" clip-rule="evenodd" fill="#FDFDF7" d="M60.758,65.543c-0.239,0.424-0.688,0.225-1.011,0.256
	c-0.511,0.054-0.598,0.259-0.572,0.687c0.018,0.462,0,0.924-0.007,1.384c-0.178-0.004-0.21-0.127-0.21-0.268
	c-0.003-0.595,0.004-1.186-0.003-1.776c-0.003-0.242,0.112-0.314,0.33-0.31C59.776,65.528,60.265,65.536,60.758,65.543z"/>
<path fill-rule="evenodd" clip-rule="evenodd" fill="#FDFDF7" d="M63.269,65.833c-0.623,0-1.243,0-1.866,0
	c-0.05-0.19-0.021-0.319,0.218-0.317c0.471,0.006,0.942,0,1.413,0.006C63.236,65.523,63.341,65.617,63.269,65.833z"/>
<path fill-rule="evenodd" clip-rule="evenodd" fill="#D4DEEC" d="M74.001,65.84c0.008,0.569,0.015,1.14,0.025,1.711
	c0.004,0.246-0.119,0.351-0.358,0.348c-0.815-0.011-1.627-0.019-2.442-0.025c0-0.438,0.004-0.877,0.004-1.315
	c0-0.652,0.065-0.71,0.735-0.72c0.08,0,0.163,0,0.243,0c0.007,0.455,0.015,0.912,0.018,1.368c0.004,0.182,0.044,0.339,0.258,0.339
	c0.217,0,0.25-0.165,0.25-0.344c0.007-0.455,0.015-0.912,0.021-1.364C73.168,65.838,73.585,65.84,74.001,65.84z"/>
<path fill-rule="evenodd" clip-rule="evenodd" fill="#FDFDF7" d="M72.208,65.838c-0.08,0-0.163,0-0.243,0
	c-0.67,0.01-0.735,0.067-0.735,0.72c0,0.438-0.004,0.877-0.004,1.315c-0.231,0.043-0.282-0.102-0.282-0.288
	c-0.004-0.572-0.004-1.147-0.004-1.718c0-0.138,0.019-0.288,0.185-0.297c0.326-0.021,0.656-0.023,0.979-0.006
	C72.27,65.575,72.211,65.729,72.208,65.838z"/>
<path fill-rule="evenodd" clip-rule="evenodd" fill="#FDFDF7" d="M74.001,65.84c-0.416,0-0.833-0.002-1.246-0.003
	c-0.004-0.033-0.025-0.073-0.015-0.095c0.232-0.377,0.591-0.119,0.888-0.178C73.81,65.528,74.045,65.528,74.001,65.84z"/>
<path fill-rule="evenodd" clip-rule="evenodd" fill="#D4DEEC" d="M78.93,61.195c0.102,1.054,0.102,1.054-0.932,1.06
	c-0.051,0-0.098,0-0.145,0c-1.146,0.001-1.146,0.001-0.678-1.064C77.759,61.193,78.346,61.195,78.93,61.195z"/>
<path fill-rule="evenodd" clip-rule="evenodd" fill="#D4DEEC" d="M76.596,61.111c-0.007,0.047-0.007,0.098-0.021,0.143
	c-0.297,1.087-0.333,1.111-1.5,0.958c0.231-0.877,0.268-0.909,1.142-1.027C76.342,61.169,76.469,61.137,76.596,61.111z"/>
<path fill-rule="evenodd" clip-rule="evenodd" fill="#FDFDF7" d="M76.596,61.111c-0.127,0.025-0.254,0.058-0.38,0.074
	c-0.874,0.118-0.91,0.15-1.142,1.027c-0.098,0.029-0.203,0.04-0.272-0.047c-0.163-0.232,0.269-1.239,0.544-1.254
	c0.373-0.016,0.75-0.002,1.127-0.002C76.617,60.912,76.704,60.952,76.596,61.111z"/>
<path fill-rule="evenodd" clip-rule="evenodd" fill="#FDFDF7" d="M78.93,61.195c-0.584,0-1.171-0.002-1.754-0.004
	c-0.011-0.195,0.065-0.3,0.282-0.297c0.402,0.011,0.809,0.003,1.214,0.003C78.868,60.899,78.987,60.97,78.93,61.195z"/>
<path fill-rule="evenodd" clip-rule="evenodd" fill="#3F3D3B" d="M78.542,75.146c-0.442,0.036-0.834-0.059-1.087-0.464
	c-0.149-0.239-0.171-0.457,0.119-0.605c0.178,0.044,0.246,0.185,0.326,0.33c0.155,0.278,0.431,0.282,0.685,0.195
	c0.301-0.102,0.345-0.366,0.297-0.638c-0.054-0.29-0.264-0.406-0.532-0.406c-0.192,0.008-0.392,0.08-0.562-0.064
	c-0.036-0.29,0.127-0.398,0.392-0.436c0.691-0.098,1.134,0.279,1.257,1.08C79.328,74.642,79.125,75.065,78.542,75.146z"/>
<path fill-rule="evenodd" clip-rule="evenodd" fill="#FDFDF7" d="M77.788,73.493c0.17,0.145,0.369,0.072,0.562,0.064
	c0.269,0,0.479,0.116,0.532,0.406c0.048,0.271,0.004,0.536-0.297,0.638c-0.254,0.087-0.529,0.083-0.685-0.195
	c-0.08-0.146-0.148-0.286-0.326-0.33C77.527,73.841,77.621,73.652,77.788,73.493z"/>
<path fill-rule="evenodd" clip-rule="evenodd" fill="#D4DEEC" d="M78.542,75.146c0.583-0.08,0.786-0.504,0.895-1.008
	c0.203,0.544,0.062,0.942-0.428,1.135C78.846,75.337,78.629,75.446,78.542,75.146z"/>
<path fill-rule="evenodd" clip-rule="evenodd" fill="#D4DEEC" d="M81.313,74.108c0.587,0,1.171,0,1.758,0
	c0,0.059,0.003,0.116,0.007,0.175c-0.58,0.195-1.185,0.072-1.779,0.072C81.307,74.275,81.31,74.192,81.313,74.108z"/>
<path fill-rule="evenodd" clip-rule="evenodd" fill="#3F3D3B" d="M69.454,75.036c-0.199-0.304-0.221-0.558,0.195-0.681
	c0.41,0,0.819-0.008,1.225,0c0.239,0.007,0.442,0.091,0.428,0.362c-0.011,0.239-0.199,0.312-0.42,0.312
	C70.407,75.029,69.933,75.036,69.454,75.036z"/>
<path fill-rule="evenodd" clip-rule="evenodd" fill="#A9BBD2" d="M64.813,75.029c-0.257,0.018-0.435,0.138-0.616,0.333
	c-0.837,0.921-2.384,0.732-3.022-0.348c0.062-0.312,0.091-0.634,0.192-0.932c0.105-0.3,0.152-0.677,0.583-0.735
	c0,0.258-0.42,0.573,0.105,0.761c-0.036,0.218-0.054,0.436,0.203,0.54c-0.13,0.656,0.384,0.428,0.678,0.504
	c0.101,0.29,0.312,0.182,0.482,0.12c0.587-0.207,0.735-0.765,0.362-1.33c-0.055-0.015-0.109-0.029-0.163-0.047
	c0-0.063,0-0.124,0-0.186c0.072-0.471-0.268-0.568-0.605-0.648c-0.348-0.083-0.656,0.091-0.971,0.199
	c-0.055-0.225,0.105-0.268,0.257-0.348c0.5-0.254,1.047-0.231,1.583-0.29c0.305,0.214,0.287,0.58,0.399,0.873
	C64.475,74,64.638,74.515,64.813,75.029z"/>
<path fill-rule="evenodd" clip-rule="evenodd" fill="#D4DEEC" d="M65.313,74.631c0.083,0.003,0.17,0.003,0.257,0.003
	c0.105,0.044,0.214,0.084,0.323,0.127c-0.004,0.105-0.004,0.214-0.004,0.319c-0.163,0.032-0.322,0.068-0.479,0.102
	c-0.015-0.098-0.015-0.199-0.119-0.254C65.302,74.83,65.305,74.732,65.313,74.631z"/>
<path fill-rule="evenodd" clip-rule="evenodd" fill="#3F3D3B" d="M65.893,74.761c-0.109-0.043-0.218-0.083-0.323-0.127
	c0.015-0.09,0.033-0.185,0.044-0.271c0.127-0.028,0.246-0.043,0.369-0.065c0.885,0.012,1.772,0.019,2.66,0.037
	c0.163,0,0.42-0.08,0.424,0.191c0.004,0.265-0.25,0.207-0.413,0.21C67.729,74.746,66.809,74.754,65.893,74.761z"/>
<path fill-rule="evenodd" clip-rule="evenodd" fill="#3F3D3B" d="M62.041,73.261c0.315-0.108,0.623-0.282,0.971-0.199
	c0.337,0.08,0.678,0.178,0.605,0.648c-0.178,0.08-0.33,0.036-0.5-0.058c-0.33-0.174-0.631-0.138-0.815,0.235
	c-0.054,0.105-0.127,0.185-0.247,0.221c-0.525-0.188-0.105-0.503-0.105-0.761C61.979,73.319,62.008,73.286,62.041,73.261z"/>
<path fill-rule="evenodd" clip-rule="evenodd" fill="#A9BBD2" d="M66.393,73.442c-0.037,0-0.069,0-0.102,0
	C66.327,73.37,66.355,73.377,66.393,73.442z"/>
<path fill-rule="evenodd" clip-rule="evenodd" fill="#3F3D3B" d="M78.063,68.42c-0.377,0-0.754,0.011-1.134-0.002
	c-0.522-0.016-0.794-0.271-0.819-0.784c-0.019-0.396-0.019-0.792,0-1.185c0.025-0.479,0.312-0.762,0.79-0.775
	c0.604-0.021,1.218-0.008,1.826-0.008c0.195,0,0.392,0.038,0.377,0.279c-0.019,0.217-0.218,0.214-0.385,0.216
	c-0.543,0-1.087,0.013-1.627-0.002c-0.365-0.01-0.503,0.148-0.496,0.502c0.021,1.509-0.163,1.233,1.199,1.255
	c0.457,0.008,0.921-0.003,1.381,0.008c0.199,0,0.5-0.08,0.504,0.231c0.007,0.348-0.315,0.254-0.529,0.263
	C78.792,68.431,78.43,68.42,78.063,68.42z"/>
<path fill-rule="evenodd" clip-rule="evenodd" fill="#FDFDF7" d="M79.676,70.292c-0.021-0.015-0.051-0.029-0.076-0.042
	c0.029-0.021,0.062-0.051,0.098-0.059c0.015-0.005,0.04,0.031,0.065,0.05C79.733,70.259,79.705,70.275,79.676,70.292z"/>
<path fill-rule="evenodd" clip-rule="evenodd" fill="#3F3D3B" d="M66.465,67.42c0.011-0.572,0.018-1.148,0.025-1.723
	c0.011-0.607,0.261-0.854,0.877-0.866c0.145-0.002,0.297-0.005,0.441,0c0.544,0.016,0.815,0.277,0.834,0.822
	c0.015,0.589,0.015,1.182,0.021,1.772c-0.058,0.748-0.301,0.973-1.036,0.981C66.743,68.416,66.548,68.252,66.465,67.42z
	 M66.99,66.619L66.99,66.619c0,0.279,0.015,0.558-0.008,0.837c-0.025,0.402,0.199,0.457,0.525,0.445
	c0.326-0.011,0.642,0.031,0.627-0.456c-0.021-0.525-0.021-1.053,0.004-1.578c0.019-0.4-0.119-0.542-0.536-0.549
	c-0.46-0.004-0.678,0.119-0.62,0.61C67.012,66.155,66.99,66.389,66.99,66.619z"/>
<path fill-rule="evenodd" clip-rule="evenodd" fill="#FDFDF7" d="M62.055,74.108c0.12-0.036,0.192-0.115,0.247-0.221
	c0.185-0.373,0.485-0.409,0.815-0.235c0.17,0.094,0.322,0.138,0.5,0.058c0,0.062,0,0.123,0,0.186
	c-0.149,0.018-0.247,0.104-0.268,0.25c-0.062,0.46-0.359,0.536-0.754,0.478c-0.109-0.014-0.225,0.019-0.337,0.025
	C62,74.544,62.019,74.326,62.055,74.108z"/>
<path fill-rule="evenodd" clip-rule="evenodd" fill="#3F3D3B" d="M62.258,74.648c0.112-0.007,0.228-0.039,0.337-0.025
	c0.395,0.059,0.692-0.018,0.754-0.478c0.021-0.146,0.119-0.232,0.268-0.25c0.054,0.018,0.108,0.032,0.163,0.047
	c0.138,0.667-0.105,1.015-0.844,1.21C62.642,75.076,62.127,75.305,62.258,74.648z"/>
<path fill-rule="evenodd" clip-rule="evenodd" fill="#D4DEEC" d="M62.936,75.152c0.739-0.195,0.982-0.543,0.844-1.21
	c0.373,0.565,0.225,1.123-0.362,1.33C63.247,75.334,63.037,75.442,62.936,75.152z"/>
<path fill-rule="evenodd" clip-rule="evenodd" fill="#D4DEEC" d="M66.99,66.619c0-0.23,0.021-0.464-0.008-0.69
	c-0.058-0.491,0.16-0.614,0.62-0.61c0.417,0.007,0.555,0.148,0.536,0.549c-0.025,0.525-0.025,1.053-0.004,1.578
	c0.015,0.487-0.301,0.445-0.627,0.456c-0.326,0.012-0.551-0.043-0.525-0.445C67.005,67.177,66.99,66.898,66.99,66.619L66.99,66.619z
	"/>
</svg>
