<?xml version="1.0" encoding="utf-8"?>
<!-- Generator: Adobe Illustrator 16.0.0, SVG Export Plug-In . SVG Version: 6.00 Build 0)  -->
<!DOCTYPE svg PUBLIC "-//W3C//DTD SVG 1.1//EN" "http://www.w3.org/Graphics/SVG/1.1/DTD/svg11.dtd">
<svg version="1.1" id="圖層_1" xmlns="http://www.w3.org/2000/svg" xmlns:xlink="http://www.w3.org/1999/xlink" x="0px" y="0px"
	 width="480px" height="480px" viewBox="0 0 480 480" enable-background="new 0 0 480 480" xml:space="preserve">
<path fill-rule="evenodd" clip-rule="evenodd" fill="#C2AE7F" d="M380.962,0.056c0.497,5.236-1.3,9.418-5.852,12.176
	c-4.836,2.929-10.781,1.016-14.279-2.421c-1.993-1.962-1.684-4.812,0.421-6.8c1.088-1.027,2.251-1.972,3.382-2.955
	C370.077,0.056,375.517,0.056,380.962,0.056z"/>
<path fill-rule="evenodd" clip-rule="evenodd" fill="#111224" d="M481.314,282.398c-0.964-0.313-1.366,0.605-2,0.971
	c-3.813,2.176-7.309,0.718-8.1-3.592c-0.604-3.297-1.052-6.631-1.341-9.964c-0.498-5.815,4.176-9.252,9.664-7.231
	c0.586,0.22,1.187,0.408,1.776,0.609C481.314,269.593,481.314,275.998,481.314,282.398z"/>
<path fill-rule="evenodd" clip-rule="evenodd" fill="#C2AE7F" d="M481.314,356.349c-2.403,0.971-4.487,2.597-7.154,3.099
	c-3.246,0.61-5.909-0.066-7.865-2.729c-1.935-2.636-1.839-5.346,0.117-7.98c0.146-0.191,0.242-0.417,0.366-0.618
	c3.462-5.681,6.298-6.52,12.367-3.742c0.711,0.327,1.293,0.983,2.169,0.929C481.314,348.985,481.314,352.667,481.314,356.349z"/>
<path fill-rule="evenodd" clip-rule="evenodd" fill="#E48E27" d="M1.142,207.49c0.656-0.555,1.311-1.114,1.967-1.669
	c2.95-2.489,6.572-2.679,9.997-0.525c2.729,1.72,3.522,4.304,2.486,8.233c-0.53,2.011-1.189,3.98-2.291,5.761
	c-2.092,3.377-5.26,3.718-8.223,0.983c-1.721-1.59-2.292-3.955-3.936-5.579C1.142,212.292,1.142,209.892,1.142,207.49z"/>
<path fill-rule="evenodd" clip-rule="evenodd" fill="#C2AE7F" d="M307.013,0.056c0.591,4.218-1.008,7.834-3.325,11.142
	c-1.852,2.649-4.553,2.755-6.883,0.497c-2.393-2.323-4.956-4.495-5.966-7.908c-0.37-1.243-0.685-2.442-0.632-3.731
	C295.811,0.056,301.409,0.056,307.013,0.056z"/>
<path fill-rule="evenodd" clip-rule="evenodd" fill="#DDD7C4" d="M481.314,168.118c-4.707,0.575-7.851-2.11-9.861-5.695
	c-2.836-5.053,2.406-13.102,9.861-11.11C481.314,156.914,481.314,162.515,481.314,168.118z"/>
<path fill-rule="evenodd" clip-rule="evenodd" fill="#C2AE7F" d="M481.314,480.232c-4.495-0.028-8.993-0.052-13.484-0.079
	c-0.282-3.278,0.205-6.345,2.458-8.92c3.286-3.755,5.916-4.353,11.026-2.528C481.314,472.552,481.314,476.391,481.314,480.232z"/>
<path fill-rule="evenodd" clip-rule="evenodd" fill="#E48E27" d="M481.314,31.749c-2.242,0.682-4.539,0.876-6.851,0.586
	c-3.11-0.392-4.722-2.206-4.224-5.193c0.692-4.175,2.92-7.523,6.487-9.862c1.399-0.918,2.993-1.013,4.587-0.417
	C481.314,21.824,481.314,26.785,481.314,31.749z"/>
<path fill-rule="evenodd" clip-rule="evenodd" fill="#E48E27" d="M1.142,16.862c3.064,0.87,5.111,2.72,5.838,5.923
	c1.119,4.926-0.814,7.925-5.838,8.964C1.142,26.785,1.142,21.824,1.142,16.862z"/>
<path fill-rule="evenodd" clip-rule="evenodd" fill="#DDD7C4" d="M1.142,151.792c2.703,0.511,4.356,2.282,4.938,4.797
	c0.756,3.275-0.144,6.436-1.686,9.332c-0.622,1.165-1.803,2.002-3.252,2.196C1.142,162.676,1.142,157.234,1.142,151.792z"/>
<path fill-rule="evenodd" clip-rule="evenodd" fill="#111224" d="M1.142,264.153c0.138-0.192,0.307-0.399,0.541-0.184
	c4.858,4.445,6.333,12.492,0.052,17.505c-0.115,0.094-0.392-0.018-0.593-0.038C1.142,275.68,1.142,269.916,1.142,264.153z"/>
<path fill-rule="evenodd" clip-rule="evenodd" fill="#DDD7C4" d="M191.292,0.056c0.119,1.759-1.13,2.584-2.467,2.741
	c-4.742,0.561-9.512,1.149-14.277,0.15c-1.648-0.347-2.987-1.096-3.423-2.892C177.846,0.056,184.568,0.056,191.292,0.056z"/>
<path fill-rule="evenodd" clip-rule="evenodd" fill="#C2AE7F" d="M481.314,1.976c-3.458,1.315-6.953,1.93-10.635,0.854
	c-1.506-0.443-2.586-1.121-2.81-2.774c3.843,0,7.686,0.106,11.521-0.048C481.055-0.062,481.681,0.333,481.314,1.976z"/>
<path fill-rule="evenodd" clip-rule="evenodd" fill="#C2AE7F" d="M1.142,345.783c2.23,1.05,3.873,2.541,3.776,5.242
	c-0.088,2.447-1.739,3.583-3.776,4.361C1.142,352.183,1.142,348.985,1.142,345.783z"/>
<path fill-rule="evenodd" clip-rule="evenodd" fill="#C2AE7F" d="M3.081,480.166c-0.646,0.023-1.291,0.042-1.938,0.066
	c0-3.522,0-7.043,0-10.565c2.286,1.205,3.435,4.647,2.649,8.01C3.596,478.516,3.32,479.336,3.081,480.166z"/>
<path fill-rule="evenodd" clip-rule="evenodd" fill="#E48E27" d="M97.178,0.056c-5.013,3.055-9.454,3.055-12.966,0
	C88.532,0.056,92.855,0.056,97.178,0.056z"/>
<path fill-rule="evenodd" clip-rule="evenodd" fill="#111224" d="M196.952,49.345c-2.561,0-4.317,0.059-6.066-0.015
	c-2.93-0.122-5.268-1.179-6.264-4.227c-1.053-3.224-0.326-6.147,2.116-8.295c3.266-2.877,7.178-4.084,11.539-2.772
	c4.427,1.333,6.697,4.77,7.902,8.881c0.934,3.188-0.982,5.696-4.301,6.108C199.983,49.263,198.062,49.276,196.952,49.345z"/>
<path fill-rule="evenodd" clip-rule="evenodd" fill="#111224" d="M73.766,427.9c-1.024-0.132-2.068-0.192-3.076-0.408
	c-3.692-0.788-5.352-3.836-3.662-7.217c1.526-3.057,3.372-5.964,5.21-8.853c2.131-3.354,4.26-4.318,7.336-3.592
	c3.055,0.717,5.699,3.47,5.969,6.742C86.164,422.142,81.505,428.149,73.766,427.9z"/>
<path fill-rule="evenodd" clip-rule="evenodd" fill="#111224" d="M278.155,332.114c-0.112-4.142,1.073-6.045,4.163-7.213
	c3.006-1.134,6.777-0.098,8.882,2.434c5.533,6.66,3.531,15.269-4.38,18.837c-3.315,1.5-6.315,0.132-7.207-3.427
	C278.699,339.096,278.512,335.34,278.155,332.114z"/>
<path fill-rule="evenodd" clip-rule="evenodd" fill="#111224" d="M453.555,442.803c-1.198,0-2.396,0.019-3.592,0
	c-4.107-0.057-6.053-1.271-7.081-4.403c-1.036-3.156-0.013-6.78,2.786-8.731c7.563-5.266,15.652-2.762,18.766,6.387
	c1.074,3.165-0.651,5.66-3.967,6.359c-0.465,0.098-0.938,0.22-1.41,0.224c-1.836,0.029-3.667,0.011-5.502,0.011
	C453.555,442.7,453.555,442.755,453.555,442.803z"/>
<path fill-rule="evenodd" clip-rule="evenodd" fill="#111224" d="M154.919,246.104c-1.67,0-3.344,0.023-5.017-0.009
	c-2.736-0.048-5.03-0.878-6.132-3.664c-1.158-2.925-0.832-5.734,1.194-8.086c3.841-4.463,12.757-6.355,17.708,0.434
	c0.793,1.088,1.465,2.288,2.024,3.513c1.797,3.947-0.185,7.295-4.515,7.614c-1.746,0.127-3.508,0.021-5.263,0.021
	C154.919,245.987,154.919,246.044,154.919,246.104z"/>
<path fill-rule="evenodd" clip-rule="evenodd" fill="#111224" d="M418.69,51.601c-2.901,0.061-5.679-1.339-8.125-3.309
	c-2.458-1.979-2.594-5.198-0.231-7.313c3.27-2.929,6.889-5.472,10.875-7.31c4.487-2.073,9.575,2.372,9.079,7.725
	C429.78,46.864,424.566,51.61,418.69,51.601z"/>
<path fill-rule="evenodd" clip-rule="evenodd" fill="#E48E27" d="M17.673,325.553c-2.162-0.103-4.668-0.914-6.935-2.306
	c-2.568-1.575-3.294-4.483-1.444-6.81c2.941-3.695,6.423-6.974,10.517-9.327c4.205-2.42,9.84,1.891,9.479,7.301
	C28.918,319.992,24.759,325.423,17.673,325.553z"/>
<path fill-rule="evenodd" clip-rule="evenodd" fill="#48828C" d="M188.253,295.716c-1.68,0-3.357,0.075-5.026-0.019
	c-2.575-0.15-4.901-0.826-6.041-3.504c-1.223-2.889-1.017-5.696,0.947-8.121c3.733-4.608,12.834-6.644,17.866,0.234
	c0.928,1.276,1.712,2.717,2.26,4.192c1.31,3.535-0.535,6.438-4.281,6.874c-1.899,0.226-3.817,0.286-5.726,0.424
	C188.253,295.768,188.253,295.739,188.253,295.716z"/>
<path fill-rule="evenodd" clip-rule="evenodd" fill="#E48E27" d="M249.743,26.354c-0.112,2.561-1.229,5.378-3.165,7.777
	c-2.18,2.696-5.501,2.6-7.812-0.251c-2.209-2.725-4.229-5.61-6.22-8.504c-1.484-2.152-2.108-4.476-0.594-6.942
	c1.665-2.707,4.16-3.977,7.244-3.843C244.735,14.834,249.71,20.199,249.743,26.354z"/>
<path fill-rule="evenodd" clip-rule="evenodd" fill="#48828C" d="M377.581,284.528c-0.132-4.361,1.055-6.275,4.253-7.433
	c3.052-1.112,6.733-0.052,8.858,2.54c5.485,6.696,3.404,15.32-4.545,18.795c-3.333,1.46-6.284,0.038-7.15-3.545
	C378.138,291.309,377.937,287.631,377.581,284.528z"/>
<path fill-rule="evenodd" clip-rule="evenodd" fill="#48828C" d="M26.909,118.204c-3.273,0.027-6.08-1.315-8.521-3.297
	c-2.729-2.218-2.668-5.566,0.171-7.792c2.755-2.16,5.702-4.081,8.631-6.011c2.335-1.539,4.771-2.147,7.355-0.385
	c2.729,1.865,3.808,4.497,3.452,7.644C37.399,113.625,32.166,118.173,26.909,118.204z"/>
<path fill-rule="evenodd" clip-rule="evenodd" fill="#48828C" d="M288.626,33.68c2.997,0.005,5.622,1.192,7.963,2.882
	c2.818,2.035,2.948,5.446,0.243,7.795c-2.645,2.293-5.506,4.352-8.347,6.403c-2.341,1.686-4.863,2.436-7.544,0.642
	c-2.711-1.81-3.911-4.398-3.607-7.585C277.854,38.325,283.135,33.652,288.626,33.68z"/>
<path fill-rule="evenodd" clip-rule="evenodd" fill="#48828C" d="M98.083,214.469c-0.081-4.202,1.004-6.015,3.951-7.188
	c3.009-1.198,6.585-0.48,8.751,2.031c5.984,6.924,4.284,15.569-4.762,19.372c-3.015,1.267-5.66-0.293-6.5-3.651
	C98.606,221.387,98.416,217.628,98.083,214.469z"/>
<path fill-rule="evenodd" clip-rule="evenodd" fill="#E48E27" d="M403.081,55.79c8.323-0.056,12.669,5.883,12.06,13.486
	c-0.244,3.039-2.859,4.633-5.931,4.003c-3.451-0.711-6.739-1.973-10.021-3.206c-3.981-1.494-5.111-3.212-4.901-6.919
	c0.188-3.285,2.566-6.107,5.96-6.94C401.401,55.933,402.612,55.858,403.081,55.79z"/>
<path fill-rule="evenodd" clip-rule="evenodd" fill="#48828C" d="M117.43,142.25c-1.357-0.002-2.714,0.024-4.07-0.007
	c-3.989-0.088-5.877-1.299-6.872-4.357c-1.02-3.14,0.033-6.854,2.782-8.763c8.042-5.59,16.159-2.196,18.91,6.851
	c0.806,2.65-0.802,5.019-3.608,5.806C122.227,142.435,119.809,142.088,117.43,142.25z"/>
<path fill-rule="evenodd" clip-rule="evenodd" fill="#C2AE7F" d="M215.53,108.009c-1.434,0-2.875,0.091-4.304-0.019
	c-2.67-0.207-5.024-1.005-6.026-3.863c-0.993-2.839-0.823-5.656,1.21-7.867c3.191-3.469,7.285-4.871,11.928-3.596
	c4.817,1.324,7.216,5.055,8.35,9.592c0.619,2.471-1.32,4.771-4.013,5.31C220.318,108.037,217.924,108.059,215.53,108.009z"/>
<path fill-rule="evenodd" clip-rule="evenodd" fill="#48828C" d="M205.091,459.619c-1.181-0.165-2.39-0.226-3.542-0.517
	c-3.099-0.778-4.739-3.475-3.542-6.391c1.731-4.211,4.148-8.085,7.059-11.598c1.599-1.927,3.823-2.152,6.134-1.471
	c2.949,0.866,4.936,2.915,5.411,5.831C217.911,453.424,212.893,459.82,205.091,459.619z"/>
<path fill-rule="evenodd" clip-rule="evenodd" fill="#E48E27" d="M317.722,376.605c-0.469,7.597-7.464,13.271-14.746,10.695
	c-7.343-2.603-8.226-6.198-2.546-11.432c1.818-1.674,3.713-3.269,5.584-4.887c2.204-1.894,4.558-2.912,7.437-1.43
	C316.401,371.076,317.652,373.553,317.722,376.605z"/>
<path fill-rule="evenodd" clip-rule="evenodd" fill="#DDD7C4" d="M329.534,78.068c0.489-4.107,2.608-7.466,6.397-9.54
	c4.238-2.319,8.29-1.177,12.195,1.165c1.929,1.151,2.791,2.683,2.645,4.926c-0.069,1.116-0.448,1.937-1.194,2.746
	c-2.665,2.902-5.908,5.081-9.146,7.237c-2.222,1.482-4.655,2.033-7.178,0.495C330.697,83.539,329.647,81.203,329.534,78.068z"/>
<path fill-rule="evenodd" clip-rule="evenodd" fill="#48828C" d="M158.559,425.602c-1.436,0-2.872,0.015-4.308-0.003
	c-2.692-0.028-5.07-0.646-6.317-3.396c-1.355-2.977-0.979-5.768,0.989-8.313c4.282-5.537,13.653-5.387,17.741,0.276
	c1.027,1.422,1.969,2.941,2.453,4.634c0.949,3.343-0.63,5.918-4.118,6.476c-2.112,0.339-4.288,0.272-6.437,0.384
	C158.561,425.641,158.561,425.622,158.559,425.602z"/>
<path fill-rule="evenodd" clip-rule="evenodd" fill="#C2AE7F" d="M24.281,408.141c-0.159-0.015-1.043-0.023-1.895-0.197
	c-4.393-0.891-5.945-4.075-3.789-7.989c1.576-2.861,3.302-5.642,5.081-8.38c2.04-3.138,4.03-4.021,6.97-3.336
	c3.13,0.728,5.52,3.273,6.007,6.405C37.835,402.203,32.609,408.253,24.281,408.141z"/>
<path fill-rule="evenodd" clip-rule="evenodd" fill="#E48E27" d="M439.666,366.595c0.132,2.864-1.182,5.438-2.861,7.782
	c-1.978,2.759-5.247,2.983-7.619,0.46c-2.841-3.028-5.326-6.4-7.255-10.067c-2.466-4.694,1.778-10.077,7.405-9.636
	C434.938,355.569,439.731,360.803,439.666,366.595z"/>
<path fill-rule="evenodd" clip-rule="evenodd" fill="#C2AE7F" d="M420.557,288.584c6.663,0.051,11.541,9.106,8.295,15.451
	c-1.476,2.889-3.862,4.887-6.771,6.146c-3.318,1.44-6.119,0-6.949-3.507c-0.856-3.644-1.227-7.386-1.425-11.112
	C413.472,291.126,416.131,288.551,420.557,288.584z"/>
<path fill-rule="evenodd" clip-rule="evenodd" fill="#DDD7C4" d="M338.683,316.683c0.006,5.138-5.696,11.056-10.438,10.884
	c-1.78-0.063-3.304-0.826-3.802-2.411c-1.482-4.713-2.312-9.623-1.861-14.541c0.361-3.925,5.42-6.321,9.224-4.775
	C335.758,307.453,338.68,312.054,338.683,316.683z"/>
<path fill-rule="evenodd" clip-rule="evenodd" fill="#C2AE7F" d="M418.915,143.881c0.039-8.337,8.311-13.783,15.32-10.922
	c2.462,1.007,5.262,1.854,5.801,5.112c0.567,3.412-1.966,5.013-4.118,6.75c-1.855,1.503-3.844,2.854-5.81,4.226
	c-2.194,1.533-4.458,2.471-7.121,0.979C420.187,148.458,418.973,146.05,418.915,143.881z"/>
<path fill-rule="evenodd" clip-rule="evenodd" fill="#C2AE7F" d="M222.034,359.429c-0.063-5.088,1.168-7.044,4.183-8.066
	c3.198-1.082,6.801-0.055,8.853,2.524c5.313,6.682,3.495,14.742-4.189,18.554c-3.487,1.726-6.649,0.334-7.433-3.534
	C222.725,365.327,222.36,361.68,222.034,359.429z"/>
<path fill-rule="evenodd" clip-rule="evenodd" fill="#C2AE7F" d="M445.476,30.313c-1.701,0-2.981,0.007-4.262-0.003
	c-4.221-0.027-6.092-1.268-7.091-4.689c-0.934-3.186,0.37-6.638,3.244-8.595c7.156-4.872,15.692-1.933,18.293,6.3
	c0.986,3.109-0.329,5.594-3.454,6.539C449.855,30.576,447.436,30.154,445.476,30.313z"/>
<path fill-rule="evenodd" clip-rule="evenodd" fill="#DDD7C4" d="M410.396,405.81c-1.521,0-3.039,0.051-4.559-0.01
	c-2.42-0.099-4.605-0.764-5.771-3.141c-1.343-2.726-1.234-5.455,0.481-7.959c2.173-3.159,7.995-5.392,11.447-4.548
	c4.638,1.131,8.582,5.242,9.265,9.66c0.511,3.282-1.738,5.726-5.594,5.955c-1.749,0.103-3.511,0.018-5.27,0.018
	C410.396,405.795,410.396,405.8,410.396,405.81z"/>
<path fill-rule="evenodd" clip-rule="evenodd" fill="#DDD7C4" d="M456.206,82.245c-3.795-0.404-7.43-1.309-9.601-4.8
	c-1.388-2.228-0.741-4.523,1.271-6.133c2.922-2.34,6.113-4.281,9.205-6.377c4.707-3.189,10.052,1.292,10.359,5.739
	C467.786,75.775,462.507,82.678,456.206,82.245z"/>
<path fill-rule="evenodd" clip-rule="evenodd" fill="#DDD7C4" d="M50.119,254.211c-0.021,5.449-5.13,10.955-10.07,10.937
	c-2.34-0.005-3.697-1.088-4.394-3.284c-0.9-2.841-1.174-5.776-1.329-8.707c-0.089-1.711-0.673-3.361-0.15-5.19
	c1.179-4.127,6.227-6.4,9.995-4.281C47.854,245.757,50.137,249.799,50.119,254.211z"/>
<path fill-rule="evenodd" clip-rule="evenodd" fill="#DDD7C4" d="M128.575,421.616c1.07-0.163,2.132,0.249,3.165,0.958
	c3.084,2.104,6.153,4.253,8.865,6.809c3.222,3.038,2.652,7.718-1.046,10.249c-3.89,2.665-7.792,1.736-11.455-0.31
	c-3.692-2.067-5.399-5.41-5.084-9.738c0.11-1.515,0.212-3.015,0.625-4.473C124.29,422.836,125.993,421.612,128.575,421.616z"/>
<path fill-rule="evenodd" clip-rule="evenodd" fill="#DDD7C4" d="M147.401,188.784c-1.357,0-2.714,0.007-4.072-0.003
	c-4.233-0.029-5.826-1.202-6.938-5.096c-0.797-2.795,0.776-6.644,3.394-8.308c7.233-4.592,14.922-2.028,18.032,6.019
	c1.473,3.806-0.729,6.999-5.149,7.334c-1.746,0.132-3.511,0.022-5.268,0.022C147.401,188.762,147.401,188.771,147.401,188.784z"/>
<path fill-rule="evenodd" clip-rule="evenodd" fill="#E48E27" d="M97.775,480.153c-4.77,0.004-9.54,0.009-14.312,0.013
	c-1.432-1.611-2.704-3.349-3.643-5.293c-1.818-3.748-0.15-6.94,3.915-7.611c3.557-0.591,7.161-0.685,10.739-0.693
	c5.583-0.015,8.602,5.552,5.896,10.499C99.707,478.281,98.729,479.201,97.775,480.153z"/>
<path fill-rule="evenodd" clip-rule="evenodd" fill="#48828C" d="M69.907,189.531c-2.33-0.024-4.405-1.467-5.887-3.869
	c-1.438-2.326-0.984-4.535,0.375-6.748c4.595-7.48,8.028-8.277,15.449-3.477c0.865,0.557,1.732,1.185,2.41,1.951
	c1.475,1.66,2.007,3.793,0.514,5.464C79.52,186.487,75.64,189.26,69.907,189.531z"/>
<path fill-rule="evenodd" clip-rule="evenodd" fill="#48828C" d="M270.169,106.593c-0.065-5.689,1.872-8.078,7.142-9.021
	c1.891-0.337,3.79-0.637,5.722-0.438c3.353,0.342,5.087,2.762,4.29,6.002c-0.797,3.264-1.674,6.449-3.991,9.101
	c-2.348,2.689-5.04,3.76-8.519,2.762c-3.453-0.987-4.437-3.57-4.55-6.773C270.238,107.588,270.188,106.952,270.169,106.593z"/>
<path fill-rule="evenodd" clip-rule="evenodd" fill="#C2AE7F" d="M242.118,437.345c-4.295-0.136-8.435-5.735-5.642-9.904
	c1.061-1.584,1.98-3.3,3.231-4.716c1.721-1.956,3.879-2.918,6.63-2.131c3.05,0.872,5.788,2.275,8.075,4.437
	c2.228,2.098,2.008,4.839-0.3,6.832C250.804,434.714,247.314,437.148,242.118,437.345z"/>
<path fill-rule="evenodd" clip-rule="evenodd" fill="#48828C" d="M47.788,44.632c-0.063,3.88,0.056,7.144-3.175,8.792
	c-3.736,1.909-7.786,2.413-11.823,1.006c-1.799-0.629-2.921-2.305-2.519-4.185c0.749-3.499,1.648-6.997,4.211-9.765
	c3.185-3.437,5.7-4.249,9.31-2.877C47.502,39.012,48.013,42.034,47.788,44.632z"/>
<path fill-rule="evenodd" clip-rule="evenodd" fill="#48828C" d="M184.453,389.056c-0.093-2.308,0.579-4.437,1.445-6.514
	c1.258-3.025,3.728-4.268,6.827-4.379c2.905-0.104,4.672,1.471,5.919,4.022c3.735,7.634,2.777,10.696-4.808,14.541
	c-1.06,0.534-2.19,1.019-3.341,1.271c-2.744,0.602-5.081-1.157-5.438-3.952C184.849,392.38,184.654,390.721,184.453,389.056z"/>
<path fill-rule="evenodd" clip-rule="evenodd" fill="#48828C" d="M110.931,472.903c-2.313-0.065-4.425-1.481-5.857-3.912
	c-1.306-2.216-0.973-4.397,0.308-6.564c4.491-7.614,8.118-8.473,15.589-3.586c1.196,0.778,2.456,1.542,3.091,2.915
	c0.711,1.543,0.987,3.283-0.208,4.53C120.483,469.794,116.683,472.669,110.931,472.903z"/>
<path fill-rule="evenodd" clip-rule="evenodd" fill="#48828C" d="M466.983,398.139c-2.696,0.004-4.729-1.544-6.136-3.949
	c-1.293-2.218-0.904-4.403,0.389-6.561c4.436-7.389,7.879-8.263,15.221-3.722c0.941,0.58,1.868,1.256,2.626,2.059
	c1.535,1.621,2.081,3.835,0.638,5.452C476.428,395.095,472.522,397.988,466.983,398.139z"/>
<path fill-rule="evenodd" clip-rule="evenodd" fill="#48828C" d="M37.596,183.727c-0.007-5.154,4.966-8.486,9.623-6.451
	c8.051,3.517,9.324,6.883,5.542,14.807c-0.478,1-1.046,1.995-1.751,2.839c-1.375,1.647-3.238,2.112-5.198,1.363
	C42.133,194.872,37.601,187.815,37.596,183.727z"/>
<path fill-rule="evenodd" clip-rule="evenodd" fill="#C2AE7F" d="M392.39,375.296c-0.517,2.813-1.58,6.144-3.789,8.966
	c-1.317,1.68-4.108,2.209-5.612,0.995c-3.646-2.954-6.819-6.312-7.658-11.202c-0.881-5.158,4.192-9.398,9.083-7.616
	c1.81,0.661,3.502,1.571,5.046,2.711C391.272,370.486,392.483,372.212,392.39,375.296z"/>
<path fill-rule="evenodd" clip-rule="evenodd" fill="#48828C" d="M425.889,114.792c-2.688-0.051-4.693-1.612-6.123-4.009
	c-1.341-2.244-0.901-4.383,0.412-6.532c4.619-7.559,8.178-8.372,15.629-3.454c1.539,1.016,3.054,2.057,3.408,4.099
	c0.202,1.157,0.235,2.385-0.547,3.196C435.221,111.641,431.412,114.608,425.889,114.792z"/>
<path fill-rule="evenodd" clip-rule="evenodd" fill="#48828C" d="M340.784,395.272c-2.935,0.032-4.993-1.468-6.462-3.845
	c-1.42-2.307-0.966-4.521,0.394-6.742c4.554-7.424,8.427-8.283,15.668-3.336c0.979,0.673,2.04,1.31,2.663,2.378
	c0.946,1.623,1.187,3.335,0.084,4.967C350.951,391.93,344.676,395.227,340.784,395.272z"/>
<path fill-rule="evenodd" clip-rule="evenodd" fill="#C2AE7F" d="M45.732,350.031c-0.394,3.404-1.59,6.696-3.709,9.552
	c-1.663,2.236-4.683,2.302-6.701,0.394c-2.732-2.583-5.393-5.161-6.411-9.031c-0.879-3.347,0.019-5.997,2.519-8.155
	c2.218-1.912,4.714-1.663,7.167-0.469c1.431,0.694,2.834,1.473,4.155,2.355C44.569,345.896,45.642,347.611,45.732,350.031z"/>
<path fill-rule="evenodd" clip-rule="evenodd" fill="#C2AE7F" d="M377.125,113.443c0.17,2.575-0.027,5.786-3.081,7.248
	c-3.774,1.802-7.914,2.597-12.026,0.874c-1.712-0.716-2.5-2.335-2.143-4.147c0.619-3.128,1.452-6.211,3.412-8.845
	c2.879-3.861,5.927-5.008,9.909-3.689C376.175,105.868,377.146,107.859,377.125,113.443z"/>
<path fill-rule="evenodd" clip-rule="evenodd" fill="#C2AE7F" d="M206.387,154.649c3.604,0.55,7.14,2.292,9.967,5.25
	c1.484,1.553,1.297,4.198-0.254,5.666c-3.09,2.929-6.4,5.429-10.887,5.96c-3.103,0.368-5.262-0.907-6.955-3.213
	c-1.561-2.128-1.541-4.414-0.258-6.735c1.009-1.826,2.141-3.549,3.654-4.997C202.835,155.45,204.192,154.666,206.387,154.649z"/>
<path fill-rule="evenodd" clip-rule="evenodd" fill="#48828C" d="M343.176,247.815c-0.304,3.489-1.551,6.659-3.648,9.443
	c-1.435,1.914-4.347,2.416-5.984,0.985c-2.996-2.626-5.903-5.346-7.037-9.435c-0.904-3.255-0.216-6.101,2.213-8.238
	c2.468-2.176,5.056-2.008,7.733-0.507c1.458,0.817,2.949,1.595,4.304,2.56C342.491,243.859,343.359,245.606,343.176,247.815z"/>
<path fill-rule="evenodd" clip-rule="evenodd" fill="#C2AE7F" d="M144.714,39.141c-0.145-2.448,0.451-4.727,1.463-6.945
	c1.339-2.933,3.877-4.017,6.771-4.096c2.687-0.073,4.517,1.507,5.761,3.946c3.766,7.393,2.678,10.846-4.795,14.516
	c-1.07,0.525-2.18,1.03-3.33,1.308c-2.522,0.614-4.839-0.963-5.328-3.505c-0.167-0.858-0.322-1.724-0.41-2.594
	C144.756,40.899,144.754,40.02,144.714,39.141z"/>
<path fill-rule="evenodd" clip-rule="evenodd" fill="#C2AE7F" d="M370.439,167.682c-0.053-5.879,6.535-10.602,12.122-9.417
	c1.396,0.297,2.771,0.696,3.965,1.586c2.665,1.98,3.27,5.403,1.163,7.969c-1.663,2.029-3.544,3.881-5.758,5.359
	c-2.634,1.756-5.252,1.447-7.905,0.04C371.471,171.867,370.621,169.588,370.439,167.682z"/>
<path fill-rule="evenodd" clip-rule="evenodd" fill="#C2AE7F" d="M74.413,378.846c-5.285,0.071-8.073-3.69-6.419-8.14
	c0.689-1.857,1.505-3.699,2.509-5.407c1.94-3.297,4.682-4.397,8.815-3.606c3.076,0.592,4.445,3.006,5.174,5.689
	c1.048,3.872-2.938,9.528-7.521,10.92C75.988,378.603,74.955,378.734,74.413,378.846z"/>
<path fill-rule="evenodd" clip-rule="evenodd" fill="#C2AE7F" d="M430.433,460.509c-0.019,5.811-6.171,10.378-11.545,9.482
	c-1.241-0.211-2.479-0.54-3.619-1.169c-3.762-2.067-4.531-6.32-1.557-9.392c1.603-1.65,3.385-3.142,5.35-4.384
	c2.658-1.68,5.225-1.412,7.878,0.108C429.447,456.59,430.424,458.736,430.433,460.509z"/>
<path fill-rule="evenodd" clip-rule="evenodd" fill="#C2AE7F" d="M118.943,281.418c4.398,0.132,7.845,1.885,9.786,5.993
	c1.599,3.387-0.04,7.006-3.639,7.907c-2.467,0.617-4.995,1.086-7.557,0.923c-3.871-0.252-7.162-3.624-7.237-7.31
	c-0.081-3.907,3.075-7.198,7.213-7.514C117.983,281.385,118.463,281.418,118.943,281.418z"/>
<path fill-rule="evenodd" clip-rule="evenodd" fill="#C2AE7F" d="M37.155,283.918c-0.153,4.108-1.724,7.428-5.473,9.411
	c-2.746,1.454-6.028,0.493-7.397-2.245c-1.402-2.801-2.145-5.861-2.286-8.976c-0.136-3.029,2.938-6.401,6.11-7.104
	c2.844-0.634,6.349,1.115,7.782,3.859C36.717,280.447,37.19,282.112,37.155,283.918z"/>
<path fill-rule="evenodd" clip-rule="evenodd" fill="#C2AE7F" d="M424.061,234.771c3.583,0.053,5.964,1.842,7.061,5.304
	c1.596,5.032-0.43,10.592-4.67,12.824c-3.311,1.745-6.653,0.615-8.089-2.832c-1.046-2.513-1.575-5.194-1.734-7.887
	C416.398,238.278,420.093,234.712,424.061,234.771z"/>
<path fill-rule="evenodd" clip-rule="evenodd" fill="#C2AE7F" d="M239.878,305.887c0.103,3.793-1.445,6.813-4.482,9.008
	c-3.383,2.453-7.606,1.14-8.925-2.813c-0.676-2.031-1.174-4.15-1.46-6.264c-0.603-4.479,2.541-8.451,6.766-8.773
	C236.529,296.678,239.863,300.317,239.878,305.887z"/>
<path fill-rule="evenodd" clip-rule="evenodd" fill="#C2AE7F" d="M159.726,99.42c-3.628,0.198-6.055-1.421-7.596-4.7
	c-1.392-2.969-0.569-5.525,1.321-7.771c2.055-2.445,5.022-2.573,7.947-2.356c4.766,0.347,8.958,4.555,8.856,8.797
	c-0.064,2.613-1.366,4.407-3.911,5.077C164.18,99.036,161.968,99.378,159.726,99.42z"/>
<path fill-rule="evenodd" clip-rule="evenodd" fill="#DDD7C4" d="M191.796,480.147c-7.058,0-14.115,0.006-21.172,0.006
	c-1.396-5.266,0.158-8.915,4.429-11.024c6.16-3.039,11.73-0.854,14.155,2.732C190.858,474.305,192.906,476.775,191.796,480.147z"/>
<path fill-rule="evenodd" clip-rule="evenodd" fill="#111224" d="M411.813,195.686c5.87,0.091,9.414,4.709,7.914,10.335
	c-0.496,1.869-1.416,3.535-2.597,5.068c-2.279,2.963-3.583,3.227-6.874,1.339c-3.738-2.146-6.026-6.588-5.482-10.649
	C405.275,198.019,408.037,195.628,411.813,195.686z"/>
<path fill-rule="evenodd" clip-rule="evenodd" fill="#E48E27" d="M203.015,200.257c-0.407,2.913-1.302,6.219-3.413,9.032
	c-1.652,2.215-4.174,2.636-6.332,0.989c-3.24-2.475-5.246-5.843-5.687-9.895c-0.408-3.764,3.414-7.484,7.391-7.526
	C199.414,192.806,202.959,195.832,203.015,200.257z"/>
<path fill-rule="evenodd" clip-rule="evenodd" fill="#E48E27" d="M146.161,376.919c4.01,0,6.827,2.092,8.155,5.843
	c1.007,2.861,0.159,5.332-2.856,7.7c-1.947,1.524-4.02,2.897-6.463,3.554c-2.988,0.808-5.339-0.502-6.008-3.454
	c-0.766-3.387-0.176-6.717,1.103-9.84C141.191,378.021,143.472,376.774,146.161,376.919z"/>
<path fill-rule="evenodd" clip-rule="evenodd" fill="#E48E27" d="M364.245,419.461c3.385,0.553,6.832,1.974,9.585,4.68
	c1.969,1.927,1.866,4.346-0.138,6.391c-2.555,2.599-5.813,4.009-9.351,4.427c-3.952,0.463-7.389-3.087-7.502-7.325
	C356.729,423.188,359.953,419.413,364.245,419.461z"/>
<path fill-rule="evenodd" clip-rule="evenodd" fill="#111224" d="M348.418,29.613c-3.159-0.125-5.763-0.995-7.09-3.888
	c-1.453-3.161-0.632-6.063,1.406-8.708c1.891-2.452,4.282-3.399,7.372-2.63c3.33,0.828,5.861,2.775,8.037,5.306
	c0.929,1.078,0.614,2.241,0.154,3.375C356.783,26.788,352.4,29.624,348.418,29.613z"/>
<path fill-rule="evenodd" clip-rule="evenodd" fill="#E48E27" d="M28.675,437.828c3.127,0.375,6.525,1.89,9.303,4.548
	c2.03,1.947,2.014,4.347,0.026,6.382c-2.663,2.72-6.07,4.188-9.803,4.498c-3.606,0.299-6.741-2.964-7.146-6.979
	C20.623,442,24.022,437.828,28.675,437.828z"/>
<path fill-rule="evenodd" clip-rule="evenodd" fill="#111224" d="M76.989,303.987c-2.166-0.093-4.724-1.079-6.018-3.943
	c-1.477-3.273-0.46-6.207,1.662-8.891c1.904-2.405,4.382-3.066,7.263-2.35c3.212,0.802,5.721,2.707,7.85,5.182
	c1.008,1.172,0.715,2.368,0.2,3.582C86.371,301.282,82.04,304.021,76.989,303.987z"/>
<path fill-rule="evenodd" clip-rule="evenodd" fill="#E48E27" d="M473.354,122.4c0.091,3.917-1.648,5.777-4.147,7.046
	c-3.238,1.638-6.249,0.812-8.979-1.201c-2.245-1.652-2.762-3.995-2.103-6.634c0.692-2.738,1.766-5.319,3.527-7.532
	c2.129-2.672,4.817-2.938,7.231-0.593C471.614,116.138,472.874,119.563,473.354,122.4z"/>
<path fill-rule="evenodd" clip-rule="evenodd" fill="#DDD7C4" d="M40.916,218.068c4.598,0.037,8.415,2.321,9.343,5.586
	c0.087,0.308,0.237,0.608,0.258,0.917c0.204,2.855-4.638,8.636-7.765,9.237c-3.512,0.676-8.326-2.262-9.243-5.604
	C31.983,222.643,35.129,218.022,40.916,218.068z"/>
<path fill-rule="evenodd" clip-rule="evenodd" fill="#111224" d="M277.532,474.506c0.079,0-0.404,0.029-0.877-0.003
	c-5.164-0.357-6.631-2.173-5.647-7.271c0.686-3.563,2.675-6.282,5.999-7.868c3.817-1.818,7.68-0.436,9.435,3.297
	c1.954,4.146,0.59,9.064-3.026,10.767C281.743,474.215,279.961,474.62,277.532,474.506z"/>
<path fill-rule="evenodd" clip-rule="evenodd" fill="#E48E27" d="M48.32,144.671c-3.195,0.18-5.05-1.702-6.321-4.282
	c-1.606-3.264-0.657-6.261,1.402-8.946c1.697-2.209,4.068-2.636,6.686-1.967c2.589,0.665,4.958,1.832,7.09,3.396
	c3.133,2.295,3.201,5.482,0.291,8.064C55.377,142.793,50.775,144.675,48.32,144.671z"/>
<path fill-rule="evenodd" clip-rule="evenodd" fill="#DDD7C4" d="M74.146,29.05c0.054-4.868,3.029-7.824,7.209-7.864
	c1.626-0.017,3.145,0.394,4.652,0.885c5.723,1.854,7.077,5.739,3.444,10.55c-1.918,2.542-4.258,4.871-7.935,4.306
	c-3.608-0.554-6.115-2.516-7.099-6.141C74.212,30.028,74.171,29.228,74.146,29.05z"/>
<path fill-rule="evenodd" clip-rule="evenodd" fill="#111224" d="M351.893,188.207c6.405,0.082,8.268,2.606,6.588,8.391
	c-0.886,3.055-2.657,5.423-5.527,6.865c-3.621,1.821-7.531,0.568-9.398-2.951c-2.101-3.967-1.059-8.913,2.332-10.794
	C347.874,188.612,350.041,188.123,351.893,188.207z"/>
<path fill-rule="evenodd" clip-rule="evenodd" fill="#DDD7C4" d="M43.396,480.181c-2.561,0-5.121,0-7.684,0
	c-1.02-2.251-2.907-4.132-2.406-6.991c0.603-3.433,1.124-6.777,4.877-8.343c2.935-1.228,7.552-0.395,9.545,1.806
	c2.161,2.383,2.569,6.349,0.982,9.134c-0.922,1.623-2.474,2.429-4.014,3.259C44.172,479.327,43.361,479.261,43.396,480.181z"/>
<path fill-rule="evenodd" clip-rule="evenodd" fill="#DDD7C4" d="M179.28,336.893c0.015,4.234-4.682,9.556-8.851,9.715
	c-2.136,0.084-4.044-0.862-5.116-2.91c-1.312-2.515-2.209-5.211-1.791-8.024c0.577-3.883,5.601-7.508,10.535-5.861
	C177.696,331.026,179.266,333.31,179.28,336.893z"/>
<path fill-rule="evenodd" clip-rule="evenodd" fill="#DDD7C4" d="M294.524,221.881c0.183,1.242-0.13,2.734-0.566,4.182
	c-1.256,4.194-4.306,5.678-8.638,3.868c-5.636-2.359-7.836-7.691-5.262-12.111c3.134-5.37,10.33-6.051,13.744-0.652
	C294.686,218.571,294.487,220.079,294.524,221.881z"/>
<path fill-rule="evenodd" clip-rule="evenodd" fill="#DDD7C4" d="M286.826,158.89c-0.024,5.7-2.495,9.05-7.138,9.655
	c-3.418,0.445-7.662-2.204-8.685-5.427c-1.21-3.793,0.319-7.283,3.959-9.222c1.283-0.685,2.634-1.146,4.036-1.456
	C283.95,151.345,286.845,153.741,286.826,158.89z"/>
<path fill-rule="evenodd" clip-rule="evenodd" fill="#E48E27" d="M83.907,332.733c0.023-5.711,3.957-10.063,8.719-9.51
	c3.292,0.384,5.204,2.542,6.347,5.481c1.073,2.763,0.82,5.299-1.315,7.53c-2.443,2.551-5.529,3.687-8.917,4.207
	c-1.397,0.216-2.286-0.592-2.976-1.613C84.53,337.001,83.946,334.942,83.907,332.733z"/>
<path fill-rule="evenodd" clip-rule="evenodd" fill="#E48E27" d="M322.286,118.041c5.598-0.205,7.728,2.766,5.889,7.684
	c-0.793,2.11-1.969,4.033-3.405,5.742c-3.258,3.875-9.462,3.167-11.966-1.29c-2.864-5.106-0.919-9.873,4.689-11.376
	C319.186,118.349,320.92,118.036,322.286,118.041z"/>
<path fill-rule="evenodd" clip-rule="evenodd" fill="#DDD7C4" d="M311.626,439.397c-4.308,0.006-8.594-3.845-8.355-7.914
	c0.249-4.22,2.5-7.757,7.349-7.851c5.575-0.108,10.081,3.132,10.132,7.087C320.799,434.314,315.458,439.397,311.626,439.397z"/>
<path fill-rule="evenodd" clip-rule="evenodd" fill="#111224" d="M118.095,107.174c-2.178-0.068-4.757-1.031-6.022-3.918
	c-1.423-3.242-0.568-6.216,1.626-8.887c1.993-2.423,4.451-3.138,7.475-2.301c2.87,0.795,5.128,2.447,7.164,4.541
	c1.232,1.27,1.348,2.57,0.672,4.125C127.359,104.527,123.216,107.198,118.095,107.174z"/>
<path fill-rule="evenodd" clip-rule="evenodd" fill="#C2AE7F" d="M139.523,360.066c0.042,2.414-1.332,4.061-2.987,5.491
	c-2.176,1.876-4.833,2.69-7.608,3.213c-1.343,0.247-2.282-0.334-3.086-1.347c-3.05-3.847-2.583-10.64,0.985-14.039
	c2.183-2.077,5.048-2.642,7.702-1.383C137.909,353.604,139.267,356.508,139.523,360.066z"/>
<path fill-rule="evenodd" clip-rule="evenodd" fill="#C2AE7F" d="M121.533,58.25c-2.907,0.101-5.363-0.963-6.742-3.789
	c-1.551-3.167-0.674-6.061,1.361-8.682c1.94-2.498,4.392-3.487,7.585-2.591c2.458,0.688,4.478,2.004,6.345,3.655
	c2.471,2.188,2.726,3.922,0.732,6.617C128.563,56.503,125.586,58.308,121.533,58.25z"/>
<path fill-rule="evenodd" clip-rule="evenodd" fill="#E48E27" d="M269.568,417.116c0.123,1.632-0.36,3.31-0.975,4.965
	c-1.289,3.475-2.569,4.182-6.171,3.372c-4.793-1.084-8.464-5.736-8.249-10.42c0.086-1.866,0.82-3.381,2.274-4.553
	c2.991-2.42,6.242-2.18,9.462-0.719C268.955,411.142,269.658,413.889,269.568,417.116z"/>
<path fill-rule="evenodd" clip-rule="evenodd" fill="#C2AE7F" d="M468.899,200.107c0.015,4.418-1.776,7.354-4.249,9.999
	c-0.967,1.035-2.144,0.993-3.33,0.733c-4.736-1.046-8.587-7-7.671-11.803c0.634-3.315,2.513-5.17,5.851-5.779
	C464.111,192.419,468.939,196.279,468.899,200.107z"/>
<path fill-rule="evenodd" clip-rule="evenodd" fill="#C2AE7F" d="M325.947,147.019c1.056-0.163,2.204,0.326,3.396,0.405
	c1.86,0.123,2.738,1.332,3,2.914c0.667,4.068-0.45,7.654-3.556,10.418c-2.883,2.57-6.174,3.022-8.801,1.465
	c-2.906-1.72-4.45-5.598-3.661-9.199C317.165,149.18,320.583,147.012,325.947,147.019z"/>
<path fill-rule="evenodd" clip-rule="evenodd" fill="#C2AE7F" d="M79.177,255.085c-1.644-0.044-4.239-0.935-5.491-3.883
	c-1.43-3.363-0.537-6.447,1.773-9.107c1.96-2.26,4.417-2.894,7.367-2.044c3.055,0.872,5.392,2.69,7.46,4.975
	c0.938,1.037,0.807,2.171,0.396,3.363C89.365,252.224,85.02,255.089,79.177,255.085z"/>
<path fill-rule="evenodd" clip-rule="evenodd" fill="#C2AE7F" d="M261.861,262.892c0.018-4.545,3.268-7.671,7.596-7.311
	c5.115,0.427,8.511,4.374,7.69,9.003c-0.502,2.818-1.866,5.22-3.682,7.42c-1.214,1.476-2.636,1.611-4.291,1.115
	C265.096,271.89,261.847,267.346,261.861,262.892z"/>
<path fill-rule="evenodd" clip-rule="evenodd" fill="#C2AE7F" d="M343.401,454.02c0.023-3.498,1.561-6.317,4.604-7.841
	c3.366-1.684,6.57-0.234,9.42,1.716c5.455,3.742,5.167,6.636-0.291,10.974c-2.423,1.927-5.411,2.63-8.6,1.74
	C345.178,459.674,343.429,457.5,343.401,454.02z"/>
<path fill-rule="evenodd" clip-rule="evenodd" fill="#C2AE7F" d="M307.009,480.166c-5.618,0-11.231-0.004-16.85-0.004
	c0.821-5.707,5.261-8.121,10.363-5.566C303.135,475.904,305.924,477.062,307.009,480.166z"/>
<path fill-rule="evenodd" clip-rule="evenodd" fill="#C2AE7F" d="M380.428,480.139c-4.784,0.075-9.566,0.243-14.346-0.09
	c1.933-2.138,4.305-3.652,7.045-4.437C376.1,474.759,379.039,476.688,380.428,480.139z"/>
<g>
	<g>
		<path fill-rule="evenodd" clip-rule="evenodd" fill="#B1A898" d="M212.359,231.784c0-1.111,0-2.223,0-3.335
			c0.185-0.129,0.154-0.344,0.18-0.521c0.314-2.172,1.059-4.188,2.248-6.027c2.145-3.319,5.136-5.499,8.935-6.595
			c0.806-0.232,1.658-0.222,2.438-0.542c1.764,0,3.527,0,5.291,0c0.085,0.142,0.233,0.109,0.36,0.124
			c0.971,0.11,1.937,0.284,2.854,0.61c5.318,1.894,8.773,5.531,10.249,11.014c0.192,0.717,0.185,1.47,0.454,2.167
			c0,1.035,0,2.07,0,3.105c-0.25,0.43-0.172,0.926-0.277,1.384c-1.24,5.425-4.361,9.314-9.565,11.356
			c-3.904,1.531-7.982,1.565-11.962,0.442c-5.504-1.554-9.02-5.259-10.673-10.738C212.646,233.425,212.637,232.577,212.359,231.784z
			 M230.196,238.673c0.531,0.639,0.69,0.659,0.894,0.114c0.043-0.115-0.005-0.293,0.184-0.312c0.133-0.013,0.205,0.101,0.254,0.2
			c0.07,0.138,0.117,0.396,0.015,0.421c-0.54,0.131-0.165,0.413-0.119,0.622c0.036,0.163,0.132,0.312,0.196,0.468
			c0.131,0.321-0.226,0.495-0.31,0.438c-0.449-0.303-0.75,0.161-1.132,0.164c-0.243,0.001-0.247,0.269-0.193,0.455
			c0.058,0.198,0.271,0.378,0.426,0.252c0.423-0.344,0.148,0.153,0.247,0.182c-0.092,0.001-0.184-0.002-0.275,0.004
			c-0.159,0.01-0.311,0.044-0.314,0.244c-0.001,0.107,0.089,0.167,0.185,0.185c0.159,0.029,0.311,0.008,0.366-0.174
			c0.026-0.085,0.018-0.182,0.026-0.272c0.305,0.072,0.605,0.13,0.841-0.163c0.196-0.244,0.422-0.246,0.636-0.088
			c-0.156,0.072-0.517-0.213-0.466,0.29c0.019,0.183-0.103,0.155-0.226,0.104c-0.229-0.095-0.423-0.02-0.534,0.188
			c-0.062,0.115-0.052,0.28,0.121,0.327c0.229,0.062,0.523,0.223,0.659-0.077c0.169-0.372,0.566-0.186,0.617-0.138
			c0.578,0.544,0.525-0.118,0.664-0.342c0.091-0.146,0.104-0.341,0.165-0.564c0.15,0.237,0.079,0.524,0.386,0.6
			c-0.186,0.141-0.49,0.039-0.454,0.324c0.025,0.197,0.205,0.263,0.397,0.224c0.086-0.018,0.12,0.023,0.184,0.068
			c0.351,0.249,0.75,0.158,0.811-0.242c0.046-0.311,0.245-0.547,0.273-0.846c0.011-0.122-0.048-0.336,0.154-0.281
			c0.261,0.07,0.046,0.233,0,0.351c-0.092,0.235-0.184,0.543,0.131,0.589c0.247,0.036,0.57-0.077,0.734-0.36
			c0.194-0.338-0.19-0.29-0.292-0.429c-0.087-0.119-0.253-0.21-0.28-0.336c-0.096-0.444-0.408-0.407-0.719-0.354
			c-0.105,0.018-0.205,0.136-0.287-0.014c-0.109-0.198,0.101-0.215,0.19-0.278c0.291-0.208,0.425-0.449,0.258-0.81
			c-0.127,0.093-0.232,0.169-0.479,0.351c0.561-0.949-0.634-1.15-0.434-1.869c-0.27,0.2-0.164,0.472-0.278,0.791
			c-0.176-0.51-0.316-0.908-0.451-1.309c-0.081-0.241-0.25-0.482,0.003-0.728c0.058-0.056-0.168-0.244,0.084-0.225
			c0.194,0.015,0.083,0.171,0.089,0.265c0.013,0.191,0.002,0.383,0.019,0.573c0.014,0.151,0.036,0.328,0.199,0.385
			c0.171,0.06,0.262-0.105,0.377-0.198c0.036-0.029-0.048-0.192,0.104-0.092c0.708,0.471,0.886,1.294,0.962,1.987
			c0.059,0.536,0.221,0.54,0.567,0.542c1.289,0.007,2.578,0.003,3.867,0.003c0.001-0.051,0.003-0.101,0.005-0.152
			c-0.861,0.045-1.661-0.304-2.536-0.31c0.661-0.969,0.621-2.014-0.076-2.799l-0.013,0.014c0.248,0.142,0.789-0.002,0.578,0.595
			c-0.013,0.035,0.073,0.136,0.131,0.16c0.383,0.155,1.416-0.274,1.451-0.667c0.035-0.397,0.271-0.513,0.545-0.636
			c0.562-0.252,0.689-0.712,0.666-1.273c-0.024-0.565-0.475-0.777-0.84-1.059c-0.088-0.068-0.326,0.048-0.294-0.159
			c0.023-0.154,0.163-0.285,0.36-0.313c0.36-0.05,0.648,0.13,0.948,0.319c0.072-0.287,0.006-0.495-0.142-0.695
			c-0.171,0.143-0.269,0.464-0.585,0.198c-0.324-0.273-0.001-0.365,0.115-0.529c0.156-0.222,0.306-0.49,0.206-0.745
			c-0.185-0.468,0.049-0.985-0.241-1.475c-0.091,0.301-0.173,0.571-0.293,0.969c-0.021-0.393-0.341-0.521-0.363-0.322
			c-0.047,0.417-0.355,0.594-0.525,0.887c-0.056,0.096-0.245,0.208-0.072,0.332c0.143,0.103,0.277,0.021,0.391-0.111
			c0.139-0.161,0.049-0.476,0.371-0.537c0.014,0.106,0.048,0.202,0.033,0.291c-0.052,0.313,0.287,0.685-0.124,0.942
			c-0.477,0.298-0.521-0.274-0.787-0.404c-0.495-0.242-0.395-0.735-0.365-1.116c0.021-0.257,0.388-0.382,0.68-0.439
			c0.106-0.021,0.239-0.003,0.275-0.179c-0.111-0.02-0.226-0.07-0.328-0.052c-0.353,0.063-0.838-0.019-0.73,0.614
			c0.014,0.081-0.07,0.315-0.125,0.268c-0.19-0.168-0.422-0.091-0.608-0.175c-0.129-0.059-0.073-0.227-0.023-0.358
			c0.281-0.726-0.137-1.278-0.887-1.228c-0.206,0.014-0.625-0.073-0.514-0.335c0.179-0.42-0.145-0.376-0.304-0.488
			c-0.232-0.164-0.459-0.365-0.721-0.449c-0.675-0.216-1.151-0.945-1.987-0.761c-0.1,0.022-0.367-0.083-0.345-0.242
			c0.063-0.46-0.315-0.505-0.564-0.666c-0.45-0.292-0.923-0.547-1.364-0.851c-0.471-0.323-0.953-0.558-1.546-0.469
			c-0.491,0.073-0.985,0.123-1.477,0.193c-0.359,0.052-0.72,0.105-1.074,0.185c-0.403,0.091-0.568,0.426-0.701,0.772
			c-0.062,0.161,0.115,0.271,0.187,0.285c0.663,0.126,0.554,0.613,0.511,1.06c-0.05,0.509-0.113,1.017-0.19,1.522
			c-0.038,0.25-0.144,0.41-0.455,0.482c-0.535,0.125-1.064,0.051-1.595,0.078c-0.617,0.031-1.156,0.193-1.636,0.628
			c-0.962,0.873-1.62,1.998-2.512,2.927c-0.211,0.22-0.299,0.523-0.256,0.852c0.1,0.768-0.324,1.388-0.626,2.03
			c-0.201,0.427-0.063,0.778,0.406,0.818c0.478,0.041,0.954,0.088,1.43,0.138c0.657,0.069,0.965,0.388,1.026,1.059
			c0.021,0.228,0.154,0.385,0.321,0.519c0.1,0.081,0.276,0.134,0.184,0.3c-0.088,0.158-0.236,0.043-0.358,0.014
			c-0.197-0.047-0.364-0.109-0.33-0.375c0.03-0.242-0.147-0.278-0.335-0.276c-0.325,0.003-0.651,0.007-0.976,0.014
			c-0.375,0.008-0.756-0.024-1.101,0.228c0.416,0,0.833,0,1.249,0c0,0.038,0,0.076,0,0.114c-0.631,0-1.261,0-1.892,0
			c0.8,0.168,1.602,0.182,2.405,0.159c0.129-0.003,0.324-0.027,0.342,0.125c0.028,0.234-0.213,0.195-0.335,0.19
			c-0.569-0.023-1.121,0.062-1.671,0.19c1.512,0.216,3.035,0.116,4.551,0.275c-1.291,0-2.582,0-3.872,0c0,0.059,0,0.117,0,0.176
			c2.372,0,4.744,0,7.116,0c0.001,0.053,0.002,0.106,0.003,0.16c-0.717,0.059-1.458-0.138-2.158,0.117
			c1.857,0.116,3.71,0.13,5.56,0.016c0-0.054-0.001-0.108-0.001-0.163c-0.64,0-1.28,0-1.919,0c0-0.058-0.001-0.115-0.002-0.173
			c0.766,0,1.532,0,2.298,0c-0.005-0.067-0.01-0.134-0.015-0.201c-0.587,0-1.175,0-1.763,0c0-0.009,0-0.019-0.001-0.028
			c0.715,0,1.43,0,2.146,0c-0.183-0.188,0.015-0.598-0.334-0.574c-0.723,0.05-1.498-0.209-2.238,0.412
			c0.226-0.346,0.386-0.591,0.546-0.836c-0.092,0.369,0.058,0.413,0.371,0.433c0.51,0.033,0.791-0.093,0.689-0.661L230.196,238.673z
			 M221.334,224.624c-0.085,0.384-0.305,0.704-0.279,1.145c0.021,0.359-0.037,0.831-0.322,1.165
			c-0.123,0.144-0.245,0.394-0.473,0.089c-0.196-0.262-0.395-0.151-0.472,0.081c-0.175,0.526-0.327,1.063-0.444,1.605
			c-0.133,0.618,0.348,1.15,0.297,1.764c0.279,0.021,0.475,0.151,0.557,0.428c0.134-0.056,0.296-0.084,0.389-0.18
			c0.048-0.049,0.169-0.203,0.003-0.341c-0.4-0.332-0.164-0.705-0.084-1.065c0.193,0.237,0.583,0.557,0.48,0.664
			c-0.383,0.401,0.293,0.292,0.194,0.506c0.275-0.026,0.066-0.291,0.191-0.391c0.213,0.158,0.346,0.335,0.145,0.628
			c0.166-0.151,0.362-0.317,0.349-0.464c-0.018-0.203,0.06-0.155,0.163-0.152c0.079,0.002,0.174,0.238,0.234-0.012
			c0.025-0.106-0.024-0.197-0.13-0.221c-0.419-0.093-0.399-0.375-0.341-0.705c0.024-0.138,0.053-0.313-0.087-0.43
			c-0.139-0.117-0.219-0.277-0.029-0.363c0.193-0.086,0.521,0.014,0.509,0.192c-0.022,0.361,0.283,0.507,0.38,0.785
			c0.158,0.451,0.815,0.477,1.099,0.087c0.237-0.326,0.589-0.314,0.719,0.046c0.062,0.17,0.174,0.195,0.294,0.198
			c0.297,0.007,0.647,0.099,0.83-0.232c0.211-0.382,0.256-0.811,0.206-1.245c-0.006-0.056-0.021-0.125-0.132-0.137
			c-0.457-0.052-0.557-0.238-0.365-0.672c0.051-0.115,0.173-0.178,0.049-0.341c-0.382-0.503-0.127-1.185,0.487-1.4
			c0.967-0.339,1.986-0.323,2.985-0.432c0.367-0.04,0.714-0.322,1.133-0.053c0.192,0.123,0.151,0.359,0.393,0.443
			c0.921,0.323,1.765,0.864,2.445,1.507c0.529,0.499,1.3-0.101,1.642,0.599c0.118-0.084,0.232-0.176,0.356-0.252
			c0.11-0.067,0.22-0.026,0.324,0.034c0.077,0.045,0.125,0.128,0.059,0.181c-0.446,0.353-0.022,0.5,0.178,0.602
			c0.791,0.403,1.429,0.979,2.006,1.636c0.238,0.272,0.678,0.308,0.853,0.07c-0.587-0.201-0.601-0.237-0.16-0.606
			c0.165-0.138,0.306-0.194,0.075-0.445c-0.137-0.149-0.447-0.401-0.386-0.48c0.257-0.329,0.145-0.667,0.06-0.96
			c-0.172-0.594-0.033-1.363-0.867-1.636c-0.242-0.08-0.261-0.396-0.264-0.643c-0.002-0.178,0.006-0.356-0.1-0.504
			c-0.048-0.066-0.105-0.194-0.218-0.138c-0.075,0.038-0.134,0.125-0.179,0.203c-0.278,0.486,0.428,1.105-0.207,1.563
			c-0.04,0.028,0.078,0.271,0.118,0.416c0.025,0.091,0.054,0.183,0.059,0.275c0.005,0.086-0.057,0.141-0.144,0.142
			c-0.055,0-0.11-0.021-0.166-0.032c0.095-0.321-0.278-0.666-0.243-0.737c0.279-0.567-0.175-0.846-0.356-1.269
			c-0.272,0.224-0.385,0.475-0.418,0.756c-0.02,0.168-0.149,0.231-0.239,0.334c-0.073-0.1-0.157-0.192-0.217-0.299
			c-0.1-0.177-0.185-0.362-0.302-0.597c-0.082,0.214-0.128,0.337-0.177,0.46c-0.055,0.14-0.111,0.28-0.167,0.419
			c-0.047,0.116-0.138,0.231-0.247,0.121c-0.188-0.189-0.18-0.491-0.388-0.701c-0.124-0.125,0.111-0.22,0.23-0.309
			c0.14-0.104,0.11-0.261-0.054-0.296c-0.214-0.046-0.156-0.154-0.186-0.312c-0.106-0.56,0.029-1.129-0.119-1.691
			c-0.044-0.167-0.059-0.307-0.218-0.307c-0.199,0-0.137,0.192-0.141,0.316c-0.006,0.228,0.077,0.498-0.017,0.677
			c-0.242,0.462-0.314,0.954-0.217,1.427c0.05,0.246,0.129,0.399-0.15,0.448c-0.294,0.052-0.325-0.214-0.357-0.413
			c-0.094-0.58-0.122-1.174-0.272-1.738c-0.066-0.248,0-0.811-0.465-0.67c-0.298,0.09-0.232,0.577-0.208,0.909
			c0.001,0.024,0.075,0.038,0.084,0.066c0.055,0.172-0.05,0.405-0.121,0.437c-0.265,0.117-0.262-0.157-0.272-0.297
			c-0.026-0.338-0.118-0.644-0.322-0.983c-0.178,0.715-0.523,1.357,0.002,2.209c-0.626-0.406-1.104-0.638-1.616-0.206
			c-0.046,0.039-0.245-0.022-0.208-0.12c0.209-0.561-0.471-0.946-0.278-1.5c0.043-0.125,0-0.269-0.23-0.274
			c0.057,0.505-0.414,0.955-0.086,1.499c0.077,0.127-0.04,0.342-0.248,0.385c-0.216,0.045-0.217-0.099-0.263-0.265
			c-0.094-0.339-0.246-0.662-0.407-1.078c-0.119,0.401-0.37,0.632-0.403,0.973c-0.011,0.117,0.025,0.295-0.136,0.35
			c-0.229,0.078-0.165-0.208-0.298-0.267c-0.063-0.028-0.107-0.096-0.216-0.198c0.05,0.458-0.383,0.678-0.34,1.082
			c0.009,0.086-0.084,0.112-0.166,0.113c-0.108,0-0.179-0.036-0.189-0.159c-0.02-0.256-0.053-0.532-0.104-0.758
			c-0.1-0.436-0.183-0.886-0.23-1.318c-0.048-0.44-0.241-0.387-0.539-0.35c0.039,0.131,0.145,0.302,0.099,0.37
			c-0.403,0.598-0.195,1.287-0.29,1.926c-0.031,0.214-0.037,0.362-0.238,0.389c-0.221,0.029-0.199-0.197-0.286-0.325
			c-0.221-0.324,0.096-0.822-0.313-1.031c-0.331,0.212-0.305,0.545-0.336,0.839c-0.024,0.223-0.04,0.437-0.159,0.627
			c-0.213,0.342-0.589,0.575-0.691,0.984c-0.042,0.17-0.143,0.161-0.247,0.154c-0.136-0.008-0.202-0.081-0.141-0.231
			C221.936,225.972,221.432,225.331,221.334,224.624z M222.217,220.656c0.044-0.289-0.068-0.581,0.08-0.848
			c0.046-0.083,0.045-0.187-0.062-0.247c-0.098-0.054-0.142,0.034-0.183,0.086c-0.083,0.105-0.15,0.241-0.316,0.166
			c-0.158-0.072-0.106-0.23-0.111-0.355c-0.007-0.21-0.001-0.421,0.009-0.631c0.008-0.165,0.074-0.3,0.253-0.337
			c0.178-0.036,0.268,0.082,0.375,0.202c0.113,0.127,0.022,0.411,0.306,0.409c0.131-0.92,0.131-0.92-0.718-0.915
			c-0.189,0.001-0.387,0.037-0.566-0.005c-0.3-0.071-0.298,0.063-0.213,0.263c0.102,0.241,0.057,0.49,0.07,0.736
			c0.019,0.344-0.216,0.728-0.138,0.979c0.168,0.54-0.007,1.077,0.127,1.581c0.081,0.303-0.436,0.64-0.005,0.781
			c0.16,0.052,0.585-0.179,0.872-0.329c0.672-0.351,0.761-0.524,0.542-1.218c-0.237,0.264-0.276,0.643-0.551,0.865
			c-0.139,0.113-0.321,0.254-0.35-0.066c-0.039-0.417-0.031-0.84-0.031-1.261c0-0.064,0.045-0.155,0.098-0.188
			c0.107-0.065,0.166,0.031,0.223,0.109C221.989,220.518,221.985,220.668,222.217,220.656z M236.496,220.713
			c0.147-0.327,0.091-0.69,0.111-1.024c0.013-0.22-0.169-0.098-0.259,0.011c-0.085,0.103-0.169,0.23-0.319,0.095
			c-0.114-0.102-0.075-1.188,0.052-1.271c0.237-0.156,0.426-0.092,0.574,0.149c0.088,0.145,0.085,0.363,0.302,0.452
			c0.128-0.977,0.094-1.024-0.801-0.948c-0.259,0.022-0.517,0.068-0.802,0.018c0.115,0.601,0.259,1.158-0.035,1.692
			c-0.073,0.132,0.016,0.212,0.031,0.317c0.062,0.439,0.271,0.888-0.067,1.309c-0.055,0.068-0.055,0.16,0.029,0.188
			c0.514,0.171,0.961,0.476,1.442,0.713c0.105,0.052,0.222-0.011,0.19-0.117c-0.082-0.279,0.149-0.583-0.048-0.881
			c-0.241,0.167-0.321,0.528-0.669,0.395c-0.365-0.139-0.255-0.47-0.284-0.739c-0.018-0.17-0.013-0.344-0.009-0.515
			c0.003-0.109-0.021-0.252,0.134-0.273c0.137-0.018,0.198,0.086,0.224,0.21C236.311,220.589,236.348,220.673,236.496,220.713z
			 M233.516,220.204c0.07-0.112-0.122-0.41,0.117-0.443c0.288-0.04,0.326,0.266,0.353,0.491c0.021,0.169,0.063,0.377-0.011,0.509
			c-0.318,0.568,0.31,0.444,0.468,0.656c0.045,0.061,0.183-0.012,0.163-0.143c-0.059-0.375-0.045-0.791-0.21-1.113
			c-0.156-0.305-0.083-0.436,0.085-0.672c0.218-0.309,0.25-0.684,0.024-1.027c-0.225-0.341-0.563-0.346-0.919-0.285
			c-0.149,0.025-0.302,0.058-0.452,0.053c-0.178-0.006-0.225-0.012-0.241,0.229c-0.048,0.715,0.251,1.444-0.08,2.145
			c-0.045,0.096,0.033,0.179,0.087,0.171c0.247-0.038,0.437,0.27,0.636,0.163c0.219-0.117-0.078-0.33-0.022-0.512
			C233.53,220.374,233.516,220.313,233.516,220.204z M224.448,221.146c0.243-0.059,0.42-0.105,0.599-0.143
			c0.107-0.022,0.25,0.006,0.276-0.14c0.028-0.155-0.145-0.147-0.218-0.222c-0.395-0.401-0.658-0.817-0.36-1.415
			c0.17-0.341,0.35-0.676,0.584-1.005c-0.471-0.061-0.934-0.206-0.863,0.517c0.011,0.119-0.128,0.253-0.199,0.383
			c-0.366-0.261-0.23-0.599-0.152-0.934c-0.202,0.012-0.352,0.021-0.502,0.028c-0.122,0.005-0.285-0.094-0.344,0.086
			c-0.046,0.142,0.119,0.17,0.194,0.246c0.551,0.562,0.635,0.987,0.327,1.691c-0.188,0.431-0.381,0.859-0.633,1.427
			c0.384-0.256,0.915-0.059,0.852-0.747c-0.022-0.243,0.168-0.521,0.372-0.743C224.578,220.626,224.578,220.626,224.448,221.146z
			 M231.279,220.671c0.216,0.001,0.422-0.026,0.573-0.204c0.313-0.367,0.313-1.688,0-2.064c-0.36-0.434-1.094-0.331-1.34,0.185
			c-0.255,0.532-0.254,1.063-0.006,1.597C230.66,220.515,230.925,220.664,231.279,220.671z M226.074,220.778
			c0.132-0.038,0.203-0.075,0.274-0.076c0.389-0.001,0.642-0.04,0.392-0.549c-0.129-0.262-0.056-0.552,0.396-0.541
			c0.434,0.011,0.647-0.275,0.669-0.703c0.021-0.397-0.143-0.664-0.54-0.767c-0.362-0.093-0.701,0.17-1.073,0.061
			c-0.105-0.031-0.101,0.095-0.083,0.203C226.234,219.173,226.25,219.941,226.074,220.778z M229.317,218.183
			c-0.409,0.022-0.685,0.037-0.939,0.05c0.112,0.631,0.097,1.233,0.027,1.832c-0.028,0.236-0.157,0.447,0.276,0.368
			c0.364-0.067,0.75-0.039,1.127,0.075c0.063-0.23,0.061-0.444-0.013-0.658c-0.271,0.049-0.664,0.622-0.737,0.055
			C228.994,219.398,228.742,218.756,229.317,218.183z M238.373,238.918c0.457-0.028,0.856-0.054,1.256-0.079
			c-0.434-0.115-0.869-0.115-1.29-0.19c-0.284-0.051-0.562-0.071-0.846-0.076c-0.373-0.007-0.245,0.356-0.376,0.528
			c-0.07,0.092,0.096,0.195,0.214,0.185c0.63-0.052,1.271,0.013,1.966-0.133C238.983,238.939,238.67,239.127,238.373,238.918z
			 M220.501,240.377c1.211,0.16,2.565,0.125,3.922,0C223.063,240.377,221.702,240.377,220.501,240.377z M223.569,240.765
			c1.825-0.036,3.638,0.369,5.447,0C227.201,240.765,225.385,240.765,223.569,240.765z M234.834,239.974
			c0,0.048,0.001,0.096,0.002,0.145c1.196,0,2.393,0,3.589,0c-0.001-0.049-0.001-0.099-0.002-0.148
			C237.228,240.061,236.03,239.775,234.834,239.974z M218.069,238.395c1.104,0.089,2.214,0.259,3.327,0
			C220.288,238.395,219.178,238.395,218.069,238.395z M226.873,241.587c0,0.018,0,0.034,0,0.052c0.923,0,1.847,0,2.771,0
			c0-0.018,0-0.034,0-0.052C228.72,241.587,227.796,241.587,226.873,241.587z M225.724,241.138c0,0.015,0,0.028,0,0.043
			c0.792,0,1.584,0,2.376,0c0-0.015,0-0.028,0-0.043C227.307,241.138,226.515,241.138,225.724,241.138z M239.293,238.338
			c-0.421-0.115-0.847-0.248-1.248,0.066C238.462,238.39,238.88,238.527,239.293,238.338z M219.53,238.03
			c-0.017,0.02-0.034,0.039-0.051,0.058c0.555,0,1.109,0,1.665,0c0-0.019,0-0.038,0-0.058
			C220.606,238.03,220.068,238.03,219.53,238.03z M223.158,241.136c0.008,0.015,0.016,0.03,0.023,0.045c0.41,0,0.82,0,1.229,0
			c0-0.015,0-0.03,0-0.045C223.993,241.136,223.575,241.136,223.158,241.136z M239.438,237.936c-0.461-0.031-0.922-0.11-1.384,0.014
			C238.516,238.008,238.977,238.067,239.438,237.936z M222.291,229.735c0.122-0.126,0.119-0.255,0.036-0.388
			c-0.009-0.014-0.058-0.002-0.124-0.002C222.258,229.474,222.088,229.624,222.291,229.735z M231.075,222.258
			c-0.012,0.047-0.033,0.092-0.029,0.135c0.001,0.017,0.058,0.029,0.089,0.043c0.018-0.044,0.039-0.086,0.048-0.132
			C231.184,222.298,231.125,222.279,231.075,222.258z M237.472,230.302l-0.007-0.036l0.035,0.012L237.472,230.302z"/>
		<path fill-rule="evenodd" clip-rule="evenodd" fill="#FDFDFD" d="M212.359,231.784c0.278,0.792,0.286,1.641,0.529,2.445
			c1.654,5.479,5.169,9.184,10.673,10.738c3.98,1.123,8.058,1.089,11.962-0.442c5.204-2.042,8.325-5.932,9.565-11.356
			c0.105-0.458,0.027-0.954,0.277-1.384c0,4.5-0.003,9.001,0.006,13.501c0.001,0.307-0.015,0.428-0.396,0.428
			c-10.743-0.016-21.486-0.016-32.229,0c-0.38,0-0.396-0.121-0.395-0.428C212.362,240.785,212.359,236.285,212.359,231.784z"/>
		<path fill-rule="evenodd" clip-rule="evenodd" fill="#FDFDFD" d="M245.367,228.679c-0.27-0.697-0.262-1.451-0.454-2.167
			c-1.476-5.483-4.931-9.121-10.249-11.014c-0.917-0.327-1.883-0.5-2.854-0.61c-0.127-0.015-0.275,0.018-0.36-0.124
			c4.504,0,9.009,0.005,13.514-0.01c0.343-0.001,0.413,0.069,0.412,0.412C245.362,219.67,245.367,224.175,245.367,228.679z"/>
		<path fill-rule="evenodd" clip-rule="evenodd" fill="#FDFDFD" d="M226.16,214.763c-0.781,0.32-1.633,0.31-2.438,0.542
			c-3.799,1.096-6.79,3.275-8.935,6.595c-1.188,1.84-1.934,3.855-2.248,6.027c-0.026,0.177,0.004,0.392-0.18,0.521
			c0-4.419,0.005-8.837-0.01-13.256c-0.001-0.359,0.082-0.441,0.44-0.439C217.247,214.768,221.704,214.763,226.16,214.763z"/>
		<path fill-rule="evenodd" clip-rule="evenodd" fill="#1C1919" d="M230.659,241.677c-0.099-0.028,0.176-0.525-0.247-0.182
			c-0.155,0.126-0.368-0.054-0.426-0.252c-0.054-0.187-0.05-0.454,0.193-0.455c0.383-0.003,0.684-0.467,1.132-0.164
			c0.084,0.057,0.441-0.117,0.31-0.438c-0.064-0.157-0.161-0.306-0.196-0.468c-0.046-0.209-0.421-0.491,0.119-0.622
			c0.102-0.024,0.055-0.283-0.015-0.421c-0.05-0.099-0.121-0.212-0.254-0.2c-0.189,0.019-0.141,0.197-0.184,0.312
			c-0.204,0.545-0.363,0.525-0.895-0.113c-0.034-0.087-0.098-0.175-0.098-0.263c-0.001-0.595-0.561-0.465-0.78-0.438
			c-0.305,0.037-0.078,0.396-0.131,0.724c0.431-0.585,0.528-0.585,0.844-0.099c0.046,0.071,0.094,0.111,0.178,0.063
			c0.102,0.567-0.179,0.693-0.689,0.661c-0.313-0.02-0.463-0.063-0.371-0.433c-0.16,0.245-0.32,0.49-0.546,0.836
			c0.74-0.621,1.515-0.362,2.238-0.412c0.349-0.024,0.151,0.385,0.334,0.574c-0.715,0-1.43,0-2.146,0
			c0,0.009,0.001,0.019,0.001,0.028c0.588,0,1.175,0,1.763,0c0.005,0.067,0.01,0.134,0.015,0.201c-0.766,0-1.532,0-2.298,0
			c0,0.058,0.001,0.115,0.002,0.173c0.64,0,1.28,0,1.919,0c0,0.054,0.001,0.108,0.001,0.163c-1.85,0.114-3.703,0.1-5.56-0.016
			c0.701-0.255,1.441-0.059,2.158-0.117c-0.001-0.053-0.002-0.106-0.003-0.16c-2.372,0-4.744,0-7.116,0c0-0.059,0-0.117,0-0.176
			c1.291,0,2.582,0,3.872,0c-1.516-0.159-3.039-0.059-4.551-0.275c0.551-0.128,1.103-0.213,1.671-0.19
			c0.122,0.005,0.364,0.044,0.335-0.19c-0.019-0.153-0.213-0.129-0.342-0.125c-0.803,0.022-1.605,0.009-2.405-0.159
			c0.631,0,1.261,0,1.892,0c0-0.038,0-0.076,0-0.114c-0.416,0-0.833,0-1.249,0c0.345-0.252,0.727-0.22,1.101-0.228
			c0.325-0.007,0.651-0.011,0.976-0.014c0.188-0.002,0.366,0.035,0.335,0.276c-0.034,0.266,0.133,0.328,0.33,0.375
			c0.122,0.03,0.27,0.145,0.358-0.014c0.092-0.166-0.084-0.219-0.184-0.3c-0.167-0.134-0.3-0.291-0.321-0.519
			c-0.062-0.671-0.37-0.99-1.026-1.059c-0.476-0.05-0.953-0.097-1.43-0.138c-0.469-0.04-0.607-0.391-0.406-0.818
			c0.302-0.643,0.727-1.262,0.626-2.03c-0.043-0.328,0.045-0.632,0.256-0.852c0.892-0.929,1.55-2.054,2.512-2.927
			c0.48-0.435,1.019-0.597,1.636-0.628c0.53-0.027,1.06,0.048,1.595-0.078c0.311-0.073,0.417-0.232,0.455-0.482
			c0.077-0.505,0.14-1.013,0.19-1.522c0.043-0.447,0.152-0.933-0.511-1.06c-0.072-0.014-0.249-0.124-0.187-0.285
			c0.132-0.346,0.297-0.681,0.701-0.772c0.354-0.08,0.714-0.133,1.074-0.185c0.492-0.07,0.986-0.12,1.477-0.193
			c0.594-0.089,1.075,0.146,1.546,0.469c0.441,0.303,0.915,0.559,1.364,0.851c0.249,0.161,0.626,0.206,0.564,0.666
			c-0.021,0.158,0.245,0.264,0.345,0.242c0.836-0.184,1.312,0.545,1.987,0.761c0.262,0.083,0.489,0.285,0.721,0.449
			c0.159,0.112,0.483,0.067,0.304,0.488c-0.111,0.262,0.308,0.349,0.514,0.335c0.75-0.05,1.168,0.502,0.887,1.228
			c-0.05,0.131-0.106,0.299,0.023,0.358c0.186,0.084,0.418,0.007,0.608,0.175c0.055,0.048,0.138-0.187,0.125-0.268
			c-0.108-0.633,0.377-0.551,0.73-0.614c0.102-0.019,0.217,0.032,0.328,0.052c-0.036,0.175-0.169,0.158-0.275,0.179
			c-0.292,0.057-0.66,0.182-0.68,0.439c-0.03,0.381-0.13,0.874,0.365,1.116c0.266,0.13,0.31,0.702,0.787,0.404
			c0.411-0.257,0.072-0.629,0.124-0.942c0.015-0.088-0.02-0.185-0.033-0.291c-0.321,0.061-0.232,0.375-0.371,0.537
			c-0.114,0.132-0.248,0.214-0.391,0.111c-0.172-0.124,0.017-0.236,0.072-0.332c0.169-0.293,0.478-0.469,0.525-0.887
			c0.022-0.198,0.343-0.071,0.363,0.322c0.12-0.398,0.202-0.667,0.293-0.969c0.29,0.49,0.056,1.007,0.241,1.475
			c0.1,0.255-0.049,0.523-0.206,0.745c-0.116,0.164-0.439,0.256-0.115,0.529c0.316,0.266,0.414-0.055,0.585-0.198
			c0.148,0.201,0.214,0.408,0.142,0.695c-0.3-0.189-0.588-0.37-0.948-0.319c-0.197,0.028-0.336,0.158-0.36,0.313
			c-0.031,0.207,0.207,0.091,0.294,0.159c0.365,0.282,0.816,0.493,0.84,1.059c0.024,0.561-0.104,1.021-0.666,1.273
			c-0.274,0.123-0.51,0.239-0.545,0.636c-0.035,0.392-1.068,0.822-1.451,0.667c-0.059-0.024-0.144-0.125-0.131-0.16
			c0.211-0.597-0.33-0.454-0.578-0.596c-0.044-0.149-0.152-0.163-0.306-0.188c0.084,0.188,0.229,0.114,0.319,0.174
			c0.697,0.785,0.737,1.83,0.076,2.799c0.875,0.006,1.675,0.355,2.536,0.31c-0.001,0.051-0.003,0.101-0.005,0.152
			c-1.289,0-2.578,0.004-3.867-0.003c-0.346-0.002-0.508-0.006-0.567-0.542c-0.076-0.693-0.253-1.516-0.962-1.987
			c-0.152-0.101-0.068,0.063-0.104,0.092c-0.115,0.093-0.206,0.258-0.377,0.198c-0.163-0.057-0.185-0.233-0.199-0.385
			c-0.017-0.19-0.006-0.382-0.019-0.573c-0.006-0.094,0.105-0.25-0.089-0.265c-0.252-0.019-0.026,0.169-0.084,0.225
			c-0.253,0.245-0.084,0.487-0.003,0.728c0.135,0.4,0.274,0.798,0.451,1.309c0.114-0.319,0.008-0.591,0.278-0.791
			c-0.2,0.719,0.995,0.92,0.434,1.869c0.248-0.181,0.352-0.258,0.479-0.351c0.167,0.361,0.033,0.602-0.258,0.81
			c-0.089,0.063-0.299,0.08-0.19,0.278c0.082,0.15,0.182,0.032,0.287,0.014c0.312-0.052,0.624-0.09,0.719,0.354
			c0.027,0.126,0.193,0.217,0.28,0.336c0.102,0.139,0.486,0.091,0.292,0.429c-0.164,0.283-0.488,0.396-0.734,0.36
			c-0.315-0.046-0.224-0.354-0.131-0.589c0.046-0.117,0.261-0.28,0-0.351c-0.203-0.055-0.143,0.159-0.154,0.281
			c-0.028,0.299-0.227,0.535-0.273,0.846c-0.061,0.4-0.46,0.491-0.811,0.242c-0.064-0.045-0.098-0.086-0.184-0.068
			c-0.192,0.039-0.373-0.026-0.397-0.224c-0.037-0.285,0.268-0.184,0.454-0.324c-0.308-0.075-0.236-0.362-0.386-0.6
			c-0.062,0.224-0.074,0.419-0.165,0.564c-0.139,0.224-0.086,0.886-0.664,0.342c-0.051-0.048-0.447-0.234-0.617,0.138
			c-0.136,0.3-0.431,0.139-0.659,0.077c-0.173-0.047-0.182-0.212-0.121-0.327c0.111-0.207,0.305-0.282,0.534-0.188
			c0.123,0.051,0.245,0.078,0.226-0.104c-0.051-0.503,0.311-0.218,0.466-0.29c-0.214-0.158-0.439-0.156-0.636,0.088
			c-0.236,0.293-0.537,0.235-0.841,0.163L230.659,241.677z M228.973,237.146c-0.014,0.051-0.027,0.103-0.042,0.154
			c0.024,0.005,0.047,0.01,0.071,0.016c-0.013-0.055-0.025-0.109-0.038-0.163c-0.096-0.064-0.192-0.128-0.289-0.191
			c-0.143-0.277-0.428-0.305-0.578-0.356c0.135,0.079,0.362,0.211,0.589,0.344C228.784,237.015,228.88,237.08,228.973,237.146z
			 M225.584,238.212c0.032-0.548,0.507-0.516,0.853-0.652c-0.004-0.008-0.008-0.016-0.013-0.024
			c0.002,0.012,0.003,0.025,0.005,0.037c-0.295-0.12-0.635-0.102-0.875,0.021c-0.528,0.269-0.508,0.311-0.971,0.314
			c-0.309,0.002-0.618,0-0.926,0c0.534,0.04,1.067,0.031,1.599,0.045c0.16,0.004,0.43-0.067,0.342,0.273
			c-0.242,0.042-0.486,0.078-0.727,0.127c-0.093,0.019-0.189,0.063-0.111,0.19c0.057,0.091,0.218,0.216,0.218,0.202
			C224.964,238.312,225.521,238.536,225.584,238.212z M225.129,231.42c-0.007-0.199-0.169-0.245-0.317-0.255
			c-0.437-0.029-0.884,0.015-1.311-0.062c-0.987-0.179-1.59,0.309-2.04,1.089c-0.112,0.195-0.43,0.399-0.226,0.627
			c0.198,0.222,0.54,0.111,0.807,0.028c0.489-0.153,0.997-0.571,1.375,0.167c0.009,0.018,0.055,0.023,0.083,0.022
			C223.756,233.029,225.088,231.709,225.129,231.42z M226.58,233.111c0.482-0.262,0.796-0.649,0.841-1.161
			c0.027-0.307,0.212-0.34,0.397-0.379c0.244-0.051,0.317,0.162,0.37,0.345c0.072,0.252,0.159,0.5,0.148,0.774
			c-0.012,0.31,0.231,0.369,0.465,0.377c0.225,0.009,0.457-0.087,0.431-0.343c-0.044-0.429-0.148-0.853-0.246-1.274
			c-0.027-0.119-0.166-0.184-0.277-0.16c-0.783,0.165-1.543-0.147-2.324-0.094c-0.389,0.026-0.499,0.219-0.491,0.546
			c0.004,0.17,0.042,0.34,0.066,0.515c0.179-0.032,0.408-0.286,0.502-0.088C226.589,232.434,226.837,232.747,226.58,233.111z
			 M238.941,235.899c0.837-0.364,0.996-1.229,0.383-1.709c-0.181-0.142-0.283-0.183-0.397,0.113
			C238.72,234.839,238.95,235.335,238.941,235.899z M229.452,235.449c0-0.58,0-1.16,0-1.741c-0.007,0.014-0.015,0.028,0.016-0.029
			C229.312,234.317,229.466,234.882,229.452,235.449z M232.979,240.501c-0.029,0.284-0.401,0.082-0.481,0.32
			C232.734,240.844,233,240.935,232.979,240.501z M222.156,236.567c-0.109-0.25-0.289-0.428-0.417-0.493
			C221.83,236.18,221.993,236.374,222.156,236.567z M232.46,231.16c0-0.011,0-0.023,0-0.034c-0.341,0-0.682,0-1.022,0
			c0,0.011,0,0.023,0,0.034C231.779,231.16,232.12,231.16,232.46,231.16z M234.313,241.639c-0.02-0.241-0.22-0.22-0.376-0.25
			c-0.01-0.003-0.069,0.104-0.054,0.139C233.97,241.744,234.135,241.712,234.313,241.639z"/>
		<path fill-rule="evenodd" clip-rule="evenodd" fill="#1C1919" d="M221.334,224.624c0.098,0.707,0.602,1.348,0.298,2.093
			c-0.062,0.15,0.005,0.223,0.141,0.231c0.104,0.006,0.205,0.016,0.247-0.154c0.103-0.409,0.479-0.643,0.691-0.984
			c0.119-0.191,0.135-0.405,0.159-0.627c0.031-0.294,0.005-0.627,0.336-0.839c0.409,0.209,0.092,0.707,0.313,1.031
			c0.087,0.128,0.065,0.354,0.286,0.325c0.201-0.026,0.207-0.175,0.238-0.389c0.095-0.639-0.113-1.328,0.29-1.926
			c0.046-0.068-0.061-0.238-0.099-0.37c0.298-0.038,0.491-0.091,0.539,0.35c0.047,0.433,0.13,0.883,0.23,1.318
			c0.052,0.227,0.085,0.502,0.104,0.758c0.01,0.124,0.081,0.159,0.189,0.159c0.082,0,0.175-0.026,0.166-0.113
			c-0.043-0.404,0.39-0.624,0.34-1.082c0.108,0.102,0.153,0.17,0.216,0.198c0.133,0.059,0.069,0.344,0.298,0.267
			c0.161-0.055,0.125-0.233,0.136-0.35c0.033-0.341,0.284-0.572,0.403-0.973c0.162,0.416,0.313,0.739,0.407,1.078
			c0.046,0.166,0.047,0.31,0.263,0.265c0.208-0.043,0.325-0.257,0.248-0.385c-0.328-0.544,0.143-0.994,0.086-1.499
			c0.23,0.005,0.273,0.149,0.23,0.274c-0.193,0.555,0.487,0.939,0.278,1.5c-0.037,0.098,0.163,0.159,0.208,0.12
			c0.512-0.432,0.99-0.2,1.616,0.206c-0.526-0.852-0.181-1.494-0.002-2.209c0.204,0.339,0.296,0.645,0.322,0.983
			c0.01,0.14,0.008,0.414,0.272,0.297c0.071-0.031,0.176-0.264,0.121-0.437c-0.009-0.028-0.083-0.042-0.084-0.066
			c-0.024-0.333-0.09-0.819,0.208-0.909c0.465-0.141,0.398,0.423,0.465,0.67c0.15,0.563,0.179,1.158,0.272,1.738
			c0.032,0.199,0.063,0.465,0.357,0.413c0.279-0.049,0.2-0.202,0.15-0.448c-0.097-0.473-0.024-0.965,0.217-1.427
			c0.094-0.179,0.01-0.449,0.017-0.677c0.004-0.124-0.058-0.316,0.141-0.316c0.159,0,0.174,0.14,0.218,0.307
			c0.148,0.562,0.013,1.131,0.119,1.691c0.03,0.158-0.028,0.266,0.186,0.312c0.164,0.035,0.194,0.193,0.054,0.296
			c-0.12,0.089-0.354,0.184-0.23,0.309c0.208,0.21,0.2,0.512,0.388,0.701c0.109,0.11,0.2-0.005,0.247-0.121
			c0.057-0.139,0.113-0.279,0.167-0.419c0.048-0.123,0.095-0.246,0.177-0.46c0.118,0.235,0.202,0.42,0.302,0.597
			c0.06,0.107,0.144,0.2,0.217,0.299c0.09-0.103,0.219-0.166,0.239-0.334c0.033-0.281,0.146-0.532,0.418-0.756
			c0.181,0.423,0.635,0.702,0.356,1.269c-0.035,0.071,0.338,0.416,0.243,0.737c0.055,0.011,0.11,0.032,0.166,0.032
			c0.087-0.001,0.148-0.056,0.144-0.142c-0.005-0.093-0.034-0.185-0.059-0.275c-0.04-0.145-0.158-0.388-0.118-0.416
			c0.634-0.458-0.071-1.077,0.207-1.563c0.044-0.078,0.104-0.166,0.179-0.203c0.113-0.056,0.17,0.072,0.218,0.138
			c0.106,0.147,0.098,0.326,0.1,0.504c0.002,0.246,0.021,0.563,0.264,0.643c0.834,0.273,0.695,1.042,0.867,1.636
			c0.085,0.294,0.198,0.631-0.06,0.96c-0.061,0.079,0.249,0.332,0.386,0.48c0.231,0.251,0.09,0.307-0.075,0.445
			c-0.441,0.37-0.428,0.406,0.16,0.606c-0.174,0.238-0.614,0.202-0.853-0.07c-0.577-0.657-1.216-1.233-2.006-1.636
			c-0.2-0.102-0.625-0.249-0.178-0.602c0.066-0.052,0.018-0.136-0.059-0.181c-0.104-0.061-0.214-0.102-0.324-0.034
			c-0.124,0.076-0.238,0.167-0.356,0.252c-0.341-0.699-1.113-0.1-1.642-0.599c-0.68-0.643-1.524-1.185-2.445-1.507
			c-0.241-0.084-0.201-0.321-0.393-0.443c-0.419-0.269-0.766,0.013-1.133,0.053c-0.999,0.109-2.018,0.093-2.985,0.432
			c-0.614,0.215-0.869,0.897-0.487,1.4c0.124,0.163,0.002,0.226-0.049,0.341c-0.192,0.434-0.092,0.62,0.365,0.672
			c0.111,0.013,0.125,0.081,0.132,0.137c0.05,0.434,0.005,0.862-0.206,1.245c-0.183,0.331-0.533,0.239-0.83,0.232
			c-0.12-0.003-0.232-0.027-0.294-0.198c-0.129-0.361-0.481-0.373-0.719-0.046c-0.284,0.39-0.941,0.363-1.099-0.087
			c-0.097-0.277-0.402-0.423-0.38-0.785c0.011-0.178-0.316-0.278-0.509-0.192c-0.19,0.085-0.11,0.246,0.029,0.363
			c0.14,0.117,0.111,0.292,0.087,0.43c-0.058,0.33-0.078,0.612,0.341,0.705c0.106,0.023,0.156,0.115,0.13,0.221
			c-0.06,0.25-0.155,0.014-0.234,0.012c-0.103-0.002-0.181-0.051-0.163,0.152c0.013,0.147-0.183,0.313-0.349,0.464
			c0.201-0.293,0.068-0.47-0.145-0.628c-0.125,0.1,0.083,0.365-0.191,0.391c0.099-0.214-0.577-0.104-0.194-0.506
			c0.103-0.107-0.287-0.427-0.48-0.664c-0.08,0.361-0.315,0.734,0.084,1.065c0.167,0.138,0.045,0.292-0.003,0.341
			c-0.092,0.096-0.255,0.124-0.389,0.18c-0.083-0.277-0.278-0.407-0.557-0.428c0.05-0.614-0.431-1.146-0.297-1.764
			c0.117-0.542,0.269-1.079,0.444-1.605c0.077-0.232,0.276-0.342,0.472-0.081c0.229,0.305,0.35,0.055,0.473-0.089
			c0.285-0.334,0.343-0.806,0.322-1.165C221.029,225.328,221.249,225.008,221.334,224.624z M222.187,227.934
			c-0.147-0.248-0.445-0.085-0.598-0.26c-0.201,0.469-0.38,0.184-0.603,0.004c-0.281-0.226-0.5-0.171-0.648,0.197
			c-0.106,0.263,0.036,0.454,0.063,0.677c0.025,0.202,0.039,0.239,0.217,0.218c0.141-0.017,0.395,0.047,0.365-0.147
			c-0.082-0.534,0.292-0.362,0.545-0.422C221.75,228.148,222.002,228.132,222.187,227.934z M222.905,227.273
			c-0.17,0.206-0.138,0.444-0.069,0.683c0.027,0.095-0.036,0.244,0.134,0.263c0.126,0.015,0.242-0.046,0.275-0.154
			c0.036-0.116,0.01-0.25,0.012-0.377C222.818,227.792,223.182,227.334,222.905,227.273z M223.511,228.024
			c0.103-0.011,0.103-0.087,0.093-0.159c-0.007-0.052-0.024-0.14-0.049-0.144c-0.086-0.016-0.124,0.053-0.129,0.131
			C223.422,227.923,223.423,227.997,223.511,228.024z M230.566,224.673c0.176,0.052,0.289,0.103,0.408,0.035
			C230.869,224.654,230.773,224.553,230.566,224.673z M236.239,227.225c-0.181,0.099-0.278,0.205-0.263,0.371
			c0.002,0.024,0.115,0.069,0.129,0.055C236.213,227.549,236.266,227.421,236.239,227.225z M224.208,225.455
			c0.02,0.029,0.033,0.073,0.06,0.082c0.029,0.01,0.069-0.012,0.104-0.02c-0.03-0.04-0.06-0.079-0.09-0.119
			C224.258,225.417,224.234,225.436,224.208,225.455z M223.901,227.866c-0.015,0.047-0.033,0.091-0.038,0.136
			c-0.001,0.009,0.071,0.04,0.079,0.032c0.031-0.034,0.051-0.079,0.075-0.121C223.984,227.899,223.952,227.887,223.901,227.866z
			 M220.117,229.898c-0.005,0.013-0.011,0.026-0.016,0.039c0.019,0.002,0.039,0.004,0.058,0.006
			c-0.002-0.014-0.001-0.03-0.008-0.041C220.146,229.896,220.128,229.899,220.117,229.898z M223.805,228.93
			c-0.012,0.009-0.024,0.019-0.036,0.028c0.01,0.012,0.019,0.031,0.03,0.032c0.011,0.001,0.024-0.016,0.036-0.025
			C223.824,228.953,223.814,228.941,223.805,228.93z M221.073,226.201c-0.012-0.013-0.023-0.035-0.035-0.036
			c-0.013,0-0.027,0.02-0.04,0.031c0.012,0.013,0.023,0.035,0.035,0.036C221.045,226.233,221.06,226.212,221.073,226.201z"/>
		<path fill-rule="evenodd" clip-rule="evenodd" fill="#1C1919" d="M222.217,220.656c-0.231,0.013-0.228-0.138-0.29-0.222
			c-0.057-0.078-0.115-0.175-0.223-0.109c-0.053,0.032-0.098,0.124-0.098,0.188c0,0.421-0.007,0.843,0.031,1.261
			c0.029,0.32,0.21,0.179,0.35,0.066c0.275-0.223,0.314-0.602,0.551-0.865c0.219,0.693,0.13,0.867-0.542,1.218
			c-0.287,0.15-0.711,0.381-0.872,0.329c-0.431-0.141,0.085-0.478,0.005-0.781c-0.135-0.504,0.041-1.041-0.127-1.581
			c-0.078-0.251,0.157-0.635,0.138-0.979c-0.013-0.246,0.032-0.495-0.07-0.736c-0.085-0.2-0.086-0.334,0.213-0.263
			c0.179,0.042,0.376,0.006,0.566,0.005c0.849-0.005,0.849-0.005,0.718,0.915c-0.284,0.002-0.193-0.282-0.306-0.409
			c-0.107-0.12-0.197-0.238-0.375-0.202c-0.18,0.037-0.246,0.172-0.253,0.337c-0.01,0.21-0.016,0.421-0.009,0.631
			c0.004,0.125-0.047,0.283,0.111,0.355c0.166,0.076,0.233-0.061,0.316-0.166c0.042-0.052,0.085-0.14,0.183-0.086
			c0.107,0.06,0.108,0.163,0.062,0.247C222.148,220.075,222.261,220.367,222.217,220.656z"/>
		<path fill-rule="evenodd" clip-rule="evenodd" fill="#1C1919" d="M236.496,220.713c-0.148-0.041-0.185-0.125-0.205-0.219
			c-0.026-0.124-0.087-0.228-0.224-0.21c-0.155,0.021-0.131,0.164-0.134,0.273c-0.004,0.171-0.009,0.345,0.009,0.515
			c0.029,0.27-0.081,0.601,0.284,0.739c0.349,0.133,0.429-0.228,0.669-0.395c0.197,0.298-0.034,0.603,0.048,0.881
			c0.032,0.106-0.085,0.169-0.19,0.117c-0.48-0.238-0.928-0.542-1.442-0.713c-0.084-0.028-0.083-0.12-0.029-0.188
			c0.338-0.42,0.129-0.869,0.067-1.309c-0.015-0.105-0.104-0.186-0.031-0.317c0.294-0.534,0.15-1.092,0.035-1.692
			c0.285,0.051,0.543,0.004,0.802-0.018c0.895-0.076,0.929-0.028,0.801,0.948c-0.217-0.089-0.214-0.307-0.302-0.452
			c-0.147-0.242-0.337-0.305-0.574-0.149c-0.127,0.083-0.166,1.169-0.052,1.271c0.15,0.135,0.234,0.008,0.319-0.095
			c0.09-0.108,0.271-0.23,0.259-0.011C236.587,220.023,236.643,220.387,236.496,220.713z"/>
		<path fill-rule="evenodd" clip-rule="evenodd" fill="#1C1919" d="M233.516,220.204c0,0.109,0.014,0.17-0.002,0.223
			c-0.055,0.182,0.241,0.395,0.022,0.512c-0.199,0.107-0.39-0.2-0.636-0.163c-0.055,0.008-0.133-0.076-0.087-0.171
			c0.332-0.701,0.032-1.43,0.08-2.145c0.017-0.241,0.063-0.235,0.241-0.229c0.15,0.005,0.302-0.027,0.452-0.053
			c0.356-0.061,0.694-0.056,0.919,0.285c0.227,0.343,0.194,0.718-0.024,1.027c-0.167,0.237-0.241,0.368-0.085,0.672
			c0.165,0.322,0.151,0.737,0.21,1.113c0.021,0.13-0.117,0.203-0.163,0.143c-0.158-0.212-0.786-0.088-0.468-0.656
			c0.074-0.131,0.031-0.34,0.011-0.509c-0.027-0.226-0.065-0.531-0.353-0.491C233.395,219.794,233.586,220.091,233.516,220.204z
			 M233.506,218.967c0.094,0.144-0.169,0.49,0.238,0.479c0.281-0.007,0.376-0.227,0.355-0.48c-0.018-0.219-0.011-0.506-0.313-0.52
			C233.429,218.431,233.538,218.741,233.506,218.967z"/>
		<path fill-rule="evenodd" clip-rule="evenodd" fill="#1C1919" d="M224.448,221.146c0.13-0.52,0.13-0.52-0.067-0.971
			c-0.204,0.223-0.395,0.5-0.372,0.743c0.063,0.688-0.468,0.491-0.852,0.747c0.252-0.567,0.445-0.996,0.633-1.427
			c0.308-0.704,0.224-1.129-0.327-1.691c-0.075-0.076-0.24-0.104-0.194-0.246c0.059-0.181,0.222-0.081,0.344-0.086
			c0.15-0.006,0.3-0.016,0.502-0.028c-0.078,0.334-0.214,0.673,0.152,0.934c0.071-0.13,0.21-0.264,0.199-0.383
			c-0.071-0.723,0.392-0.578,0.863-0.517c-0.234,0.329-0.414,0.665-0.584,1.005c-0.298,0.598-0.034,1.014,0.36,1.415
			c0.073,0.075,0.247,0.067,0.218,0.222c-0.026,0.146-0.168,0.118-0.276,0.14C224.868,221.041,224.69,221.087,224.448,221.146z"/>
		<path fill-rule="evenodd" clip-rule="evenodd" fill="#1C1919" d="M231.279,220.671c-0.354-0.007-0.619-0.156-0.772-0.487
			c-0.248-0.534-0.249-1.064,0.006-1.597c0.246-0.516,0.979-0.618,1.34-0.185c0.313,0.376,0.313,1.697,0,2.064
			C231.701,220.645,231.496,220.672,231.279,220.671z M231.587,219.331c-0.007-0.001-0.015-0.001-0.022-0.002
			c0-0.134,0.01-0.269-0.002-0.402c-0.02-0.2,0.021-0.473-0.272-0.486c-0.297-0.012-0.359,0.239-0.382,0.479
			c-0.037,0.382-0.044,0.766,0.033,1.144c0.03,0.15,0.088,0.303,0.284,0.31c0.207,0.007,0.25-0.148,0.273-0.303
			C231.535,219.825,231.558,219.578,231.587,219.331z"/>
		<path fill-rule="evenodd" clip-rule="evenodd" fill="#1C1919" d="M226.074,220.778c0.177-0.836,0.16-1.605,0.035-2.372
			c-0.018-0.107-0.022-0.234,0.083-0.203c0.372,0.109,0.711-0.154,1.073-0.061c0.397,0.103,0.56,0.369,0.54,0.767
			c-0.022,0.428-0.236,0.714-0.669,0.703c-0.451-0.011-0.524,0.279-0.396,0.541c0.25,0.509-0.003,0.548-0.392,0.549
			C226.277,220.703,226.206,220.74,226.074,220.778z M227.304,218.855c-0.015-0.216-0.042-0.439-0.285-0.432
			c-0.317,0.009-0.308,0.279-0.295,0.506c0.01,0.167-0.089,0.427,0.207,0.434C227.282,219.371,227.246,219.06,227.304,218.855z"/>
		<path fill-rule="evenodd" clip-rule="evenodd" fill="#1C1919" d="M229.317,218.183c-0.576,0.573-0.323,1.215-0.258,1.721
			c0.073,0.567,0.466-0.006,0.737-0.055c0.073,0.214,0.075,0.428,0.013,0.658c-0.378-0.114-0.764-0.142-1.127-0.075
			c-0.434,0.08-0.304-0.131-0.276-0.368c0.07-0.599,0.084-1.201-0.027-1.832C228.633,218.22,228.908,218.205,229.317,218.183z"/>
		<path fill-rule="evenodd" clip-rule="evenodd" fill="#1C1919" d="M238.373,238.918c0.297,0.209,0.61,0.021,0.925,0.235
			c-0.695,0.146-1.336,0.081-1.966,0.133c-0.119,0.01-0.285-0.092-0.214-0.185c0.131-0.172,0.003-0.535,0.376-0.528
			c0.284,0.005,0.563,0.024,0.846,0.076c0.421,0.075,0.856,0.075,1.29,0.19C239.229,238.864,238.83,238.89,238.373,238.918z"/>
		<path fill-rule="evenodd" clip-rule="evenodd" fill="#1C1919" d="M220.501,240.377c1.201,0,2.562,0,3.922,0
			C223.066,240.502,221.712,240.537,220.501,240.377z"/>
		<path fill-rule="evenodd" clip-rule="evenodd" fill="#1C1919" d="M223.569,240.765c1.815,0,3.631,0,5.447,0
			C227.208,241.134,225.395,240.729,223.569,240.765z"/>
		<path fill-rule="evenodd" clip-rule="evenodd" fill="#1C1919" d="M234.834,239.974c1.196-0.199,2.393,0.087,3.589-0.003
			c0.001,0.049,0.001,0.099,0.002,0.148c-1.197,0-2.393,0-3.589,0C234.836,240.07,234.835,240.022,234.834,239.974z"/>
		<path fill-rule="evenodd" clip-rule="evenodd" fill="#1C1919" d="M218.069,238.395c1.109,0,2.218,0,3.327,0
			C220.283,238.654,219.173,238.484,218.069,238.395z"/>
		<path fill-rule="evenodd" clip-rule="evenodd" fill="#1C1919" d="M226.873,241.587c0.923,0,1.847,0,2.771,0
			c0,0.018,0,0.034,0,0.052c-0.923,0-1.847,0-2.771,0C226.874,241.621,226.873,241.604,226.873,241.587z"/>
		<path fill-rule="evenodd" clip-rule="evenodd" fill="#1C1919" d="M225.724,241.138c0.792,0,1.583,0,2.375,0
			c0,0.015,0,0.028,0,0.043c-0.792,0-1.584,0-2.376,0C225.724,241.166,225.724,241.152,225.724,241.138z"/>
		<path fill-rule="evenodd" clip-rule="evenodd" fill="#1C1919" d="M239.293,238.338c-0.414,0.188-0.832,0.051-1.248,0.066
			C238.447,238.091,238.872,238.223,239.293,238.338z"/>
		<path fill-rule="evenodd" clip-rule="evenodd" fill="#1C1919" d="M219.53,238.03c0.538,0,1.076,0,1.614,0c0,0.02,0,0.039,0,0.058
			c-0.555,0-1.11,0-1.665,0C219.496,238.069,219.513,238.05,219.53,238.03z"/>
		<path fill-rule="evenodd" clip-rule="evenodd" fill="#1C1919" d="M230.646,241.663c-0.008,0.091,0,0.188-0.026,0.272
			c-0.056,0.182-0.208,0.203-0.366,0.174c-0.096-0.018-0.186-0.077-0.185-0.185c0.003-0.2,0.155-0.234,0.314-0.244
			c0.092-0.006,0.184-0.003,0.276-0.004L230.646,241.663z"/>
		<path fill-rule="evenodd" clip-rule="evenodd" fill="#1C1919" d="M223.158,241.136c0.417,0,0.835,0,1.252,0
			c0,0.015,0,0.03,0,0.045c-0.41,0-0.819,0-1.229,0C223.173,241.166,223.166,241.15,223.158,241.136z"/>
		<path fill-rule="evenodd" clip-rule="evenodd" fill="#1C1919" d="M239.438,237.936c-0.462,0.132-0.923,0.072-1.384,0.014
			C238.517,237.825,238.978,237.904,239.438,237.936z"/>
		<path fill-rule="evenodd" clip-rule="evenodd" fill="#1C1919" d="M222.291,229.735c-0.203-0.111-0.032-0.261-0.088-0.39
			c0.066,0,0.115-0.012,0.124,0.002C222.409,229.48,222.413,229.609,222.291,229.735z"/>
		<path fill-rule="evenodd" clip-rule="evenodd" fill="#1C1919" d="M231.075,222.258c0.05,0.021,0.109,0.04,0.107,0.046
			c-0.009,0.045-0.03,0.088-0.048,0.132c-0.031-0.014-0.087-0.026-0.089-0.043C231.042,222.351,231.063,222.306,231.075,222.258z"/>
		<polygon fill-rule="evenodd" clip-rule="evenodd" fill="#1C1919" points="237.472,230.302 237.5,230.278 237.465,230.266 		"/>
		<path fill-rule="evenodd" clip-rule="evenodd" fill="#B1A898" d="M225.129,231.42c-0.042,0.29-1.374,1.609-1.628,1.616
			c-0.028,0.001-0.074-0.004-0.083-0.022c-0.378-0.738-0.886-0.319-1.375-0.167c-0.267,0.083-0.608,0.193-0.807-0.028
			c-0.204-0.228,0.113-0.433,0.226-0.627c0.45-0.78,1.053-1.269,2.04-1.089c0.427,0.077,0.874,0.033,1.311,0.062
			C224.96,231.175,225.122,231.221,225.129,231.42z"/>
		<path fill-rule="evenodd" clip-rule="evenodd" fill="#B1A898" d="M226.58,233.111c0.258-0.365,0.009-0.677-0.117-0.943
			c-0.094-0.198-0.323,0.056-0.502,0.088c-0.023-0.175-0.062-0.344-0.066-0.515c-0.007-0.327,0.102-0.52,0.491-0.546
			c0.78-0.053,1.541,0.259,2.324,0.094c0.112-0.023,0.25,0.041,0.277,0.16c0.097,0.421,0.201,0.845,0.246,1.274
			c0.026,0.256-0.206,0.352-0.431,0.343c-0.234-0.009-0.477-0.068-0.465-0.377c0.011-0.273-0.076-0.521-0.148-0.774
			c-0.053-0.183-0.126-0.396-0.37-0.345c-0.185,0.039-0.37,0.073-0.397,0.379C227.375,232.462,227.062,232.85,226.58,233.111z"/>
		<path fill-rule="evenodd" clip-rule="evenodd" fill="#B1A898" d="M238.941,235.899c0.009-0.564-0.222-1.06-0.014-1.596
			c0.114-0.296,0.217-0.255,0.397-0.113C239.937,234.67,239.778,235.535,238.941,235.899z"/>
		<path fill-rule="evenodd" clip-rule="evenodd" fill="#B1A898" d="M226.438,237.559c-0.346,0.137-0.821,0.105-0.854,0.653
			l0.014,0.014c0.087-0.341-0.183-0.269-0.343-0.273c-0.532-0.014-1.065-0.005-1.599-0.045c0.309,0,0.618,0.001,0.926,0
			c0.463-0.003,0.443-0.045,0.971-0.314c0.241-0.123,0.58-0.141,0.875-0.021L226.438,237.559z"/>
		<path fill-rule="evenodd" clip-rule="evenodd" fill="#B1A898" d="M230.208,238.66c-0.084,0.049-0.132,0.008-0.178-0.063
			c-0.316-0.486-0.413-0.486-0.844,0.099c0.054-0.328-0.174-0.688,0.131-0.724c0.22-0.026,0.779-0.156,0.78,0.438
			c0,0.088,0.063,0.176,0.098,0.263C230.196,238.673,230.208,238.66,230.208,238.66z"/>
		<path fill-rule="evenodd" clip-rule="evenodd" fill="#B1A898" d="M225.584,238.212c-0.063,0.324-0.62,0.099-0.606,0.534
			c0,0.014-0.161-0.111-0.218-0.202c-0.079-0.127,0.018-0.171,0.111-0.19c0.241-0.049,0.484-0.085,0.727-0.127L225.584,238.212z"/>
		<path fill-rule="evenodd" clip-rule="evenodd" fill="#B1A898" d="M229.452,235.449c0.015-0.566-0.14-1.131,0.016-1.77
			c-0.031,0.057-0.023,0.043-0.016,0.029C229.452,234.289,229.452,234.869,229.452,235.449z"/>
		<path fill-rule="evenodd" clip-rule="evenodd" fill="#B1A898" d="M232.979,240.501c0.021,0.433-0.245,0.342-0.481,0.32
			C232.578,240.583,232.951,240.785,232.979,240.501z"/>
		<path fill-rule="evenodd" clip-rule="evenodd" fill="#B1A898" d="M222.156,236.567c-0.164-0.193-0.327-0.387-0.417-0.493
			C221.868,236.139,222.047,236.316,222.156,236.567z"/>
		<path fill-rule="evenodd" clip-rule="evenodd" fill="#B1A898" d="M232.46,231.16c-0.341,0-0.682,0-1.022,0
			c0-0.011,0-0.023,0-0.034c0.34,0,0.681,0,1.022,0C232.46,231.137,232.46,231.149,232.46,231.16z"/>
		<path fill-rule="evenodd" clip-rule="evenodd" fill="#B1A898" d="M228.688,236.95c-0.227-0.133-0.454-0.265-0.589-0.344
			c0.15,0.051,0.435,0.079,0.578,0.356L228.688,236.95z"/>
		<path fill-rule="evenodd" clip-rule="evenodd" fill="#B1A898" d="M234.313,241.639c-0.177,0.073-0.342,0.105-0.431-0.111
			c-0.015-0.035,0.044-0.142,0.054-0.139C234.093,241.419,234.293,241.397,234.313,241.639z"/>
		<path fill-rule="evenodd" clip-rule="evenodd" fill="#B1A898" d="M236.632,236.619c-0.09-0.06-0.234,0.014-0.319-0.174
			c0.154,0.025,0.262,0.038,0.306,0.188C236.62,236.633,236.632,236.619,236.632,236.619z"/>
		<path fill-rule="evenodd" clip-rule="evenodd" fill="#B1A898" d="M228.676,236.961c0.096,0.063,0.192,0.127,0.289,0.191
			l0.012-0.009c-0.096-0.064-0.192-0.129-0.289-0.194L228.676,236.961z"/>
		<path fill-rule="evenodd" clip-rule="evenodd" fill="#B1A898" d="M228.964,237.153c0.013,0.054,0.025,0.108,0.038,0.163
			c-0.024-0.005-0.047-0.011-0.071-0.016c0.014-0.051,0.028-0.103,0.043-0.155C228.976,237.144,228.964,237.153,228.964,237.153z"/>
		<path fill-rule="evenodd" clip-rule="evenodd" fill="#B1A898" d="M226.429,237.573c-0.001-0.012-0.003-0.025-0.005-0.037
			c0.004,0.008,0.009,0.016,0.013,0.023C226.438,237.559,226.429,237.573,226.429,237.573z"/>
		<path fill-rule="evenodd" clip-rule="evenodd" fill="#B1A898" d="M222.187,227.934c-0.185,0.198-0.436,0.214-0.66,0.267
			c-0.252,0.06-0.626-0.111-0.545,0.422c0.03,0.194-0.224,0.13-0.365,0.147c-0.178,0.021-0.192-0.016-0.217-0.218
			c-0.027-0.224-0.168-0.415-0.063-0.677c0.148-0.368,0.367-0.422,0.648-0.197c0.223,0.18,0.402,0.465,0.603-0.004
			C221.741,227.849,222.04,227.687,222.187,227.934z"/>
		<path fill-rule="evenodd" clip-rule="evenodd" fill="#B1A898" d="M222.905,227.273c0.277,0.062-0.087,0.52,0.352,0.415
			c-0.001,0.127,0.024,0.262-0.012,0.377c-0.033,0.108-0.149,0.168-0.275,0.154c-0.17-0.019-0.107-0.168-0.134-0.263
			C222.767,227.717,222.735,227.479,222.905,227.273z"/>
		<path fill-rule="evenodd" clip-rule="evenodd" fill="#B1A898" d="M223.511,228.024c-0.088-0.027-0.089-0.101-0.084-0.171
			c0.005-0.078,0.043-0.146,0.129-0.131c0.025,0.004,0.042,0.092,0.049,0.144C223.614,227.937,223.614,228.013,223.511,228.024z"/>
		<path fill-rule="evenodd" clip-rule="evenodd" fill="#B1A898" d="M230.566,224.673c0.207-0.12,0.302-0.019,0.408,0.035
			C230.855,224.776,230.743,224.725,230.566,224.673z"/>
		<path fill-rule="evenodd" clip-rule="evenodd" fill="#B1A898" d="M236.239,227.225c0.027,0.196-0.026,0.324-0.133,0.426
			c-0.015,0.014-0.127-0.031-0.129-0.055C235.961,227.43,236.058,227.324,236.239,227.225z"/>
		<path fill-rule="evenodd" clip-rule="evenodd" fill="#B1A898" d="M224.208,225.455c0.025-0.02,0.049-0.038,0.073-0.056
			c0.03,0.04,0.06,0.079,0.09,0.119c-0.035,0.008-0.075,0.03-0.104,0.02C224.242,225.528,224.228,225.484,224.208,225.455z"/>
		<path fill-rule="evenodd" clip-rule="evenodd" fill="#B1A898" d="M223.901,227.866c0.051,0.021,0.083,0.034,0.116,0.047
			c-0.024,0.042-0.044,0.086-0.075,0.121c-0.007,0.008-0.08-0.023-0.079-0.032C223.868,227.957,223.886,227.913,223.901,227.866z"/>
		<path fill-rule="evenodd" clip-rule="evenodd" fill="#B1A898" d="M220.117,229.898c0.011,0.001,0.029-0.001,0.033,0.004
			c0.007,0.011,0.006,0.027,0.008,0.041c-0.019-0.002-0.039-0.004-0.058-0.006C220.106,229.924,220.111,229.911,220.117,229.898z"/>
		<path fill-rule="evenodd" clip-rule="evenodd" fill="#B1A898" d="M223.805,228.93c0.01,0.012,0.02,0.023,0.03,0.035
			c-0.012,0.009-0.025,0.027-0.036,0.025c-0.011-0.001-0.02-0.021-0.03-0.032C223.78,228.948,223.792,228.939,223.805,228.93z"/>
		<path fill-rule="evenodd" clip-rule="evenodd" fill="#B1A898" d="M221.073,226.201c-0.013,0.011-0.027,0.032-0.04,0.031
			c-0.012-0.001-0.023-0.023-0.035-0.036c0.013-0.011,0.027-0.032,0.04-0.031C221.05,226.166,221.061,226.188,221.073,226.201z"/>
		<path fill-rule="evenodd" clip-rule="evenodd" fill="#B1A898" d="M233.506,218.967c0.032-0.226-0.077-0.536,0.281-0.52
			c0.301,0.014,0.295,0.3,0.313,0.52c0.021,0.253-0.075,0.473-0.355,0.48C233.337,219.457,233.601,219.111,233.506,218.967z"/>
		<path fill-rule="evenodd" clip-rule="evenodd" fill="#B1A898" d="M231.587,219.331c-0.029,0.247-0.052,0.494-0.089,0.739
			c-0.023,0.155-0.066,0.31-0.273,0.303c-0.196-0.007-0.254-0.159-0.284-0.31c-0.077-0.378-0.07-0.762-0.033-1.144
			c0.023-0.24,0.085-0.492,0.382-0.479c0.293,0.013,0.252,0.286,0.272,0.486c0.013,0.133,0.002,0.268,0.002,0.402
			C231.572,219.33,231.58,219.33,231.587,219.331z"/>
		<path fill-rule="evenodd" clip-rule="evenodd" fill="#B1A898" d="M227.304,218.855c-0.058,0.205-0.021,0.516-0.373,0.508
			c-0.296-0.006-0.197-0.267-0.207-0.434c-0.013-0.227-0.022-0.498,0.295-0.506C227.262,218.417,227.289,218.639,227.304,218.855z"
			/>
	</g>
</g>
</svg>
