<?xml version="1.0" encoding="utf-8"?>
<!-- Generator: Adobe Illustrator 16.0.0, SVG Export Plug-In . SVG Version: 6.00 Build 0)  -->
<!DOCTYPE svg PUBLIC "-//W3C//DTD SVG 1.1//EN" "http://www.w3.org/Graphics/SVG/1.1/DTD/svg11.dtd">
<svg version="1.1" id="圖層_1" xmlns="http://www.w3.org/2000/svg" xmlns:xlink="http://www.w3.org/1999/xlink" x="0px" y="0px"
	 width="256px" height="256px" viewBox="0 0 256 256" enable-background="new 0 0 256 256" xml:space="preserve">
<path fill-rule="evenodd" clip-rule="evenodd" fill="#C2AE7F" d="M201.67,0.27c0.266,2.789-0.691,5.016-3.116,6.484
	c-2.576,1.56-5.742,0.541-7.604-1.29c-1.062-1.045-0.897-2.562,0.225-3.621c0.578-0.546,1.199-1.05,1.801-1.573
	C195.873,0.27,198.771,0.27,201.67,0.27z"/>
<path fill-rule="evenodd" clip-rule="evenodd" fill="#111224" d="M255.115,150.639c-0.514-0.167-0.728,0.321-1.066,0.517
	c-2.03,1.158-3.892,0.383-4.312-1.913c-0.323-1.757-0.561-3.531-0.716-5.307c-0.264-3.098,2.226-4.928,5.148-3.852
	c0.312,0.117,0.631,0.218,0.945,0.325C255.115,143.819,255.115,147.229,255.115,150.639z"/>
<path fill-rule="evenodd" clip-rule="evenodd" fill="#C2AE7F" d="M255.115,190.022c-1.28,0.517-2.39,1.383-3.81,1.649
	c-1.729,0.325-3.147-0.035-4.189-1.454c-1.031-1.402-0.979-2.846,0.062-4.25c0.078-0.102,0.13-0.221,0.195-0.329
	c1.844-3.025,3.354-3.472,6.588-1.993c0.378,0.175,0.688,0.523,1.154,0.495C255.115,186.1,255.115,188.062,255.115,190.022z"/>
<path fill-rule="evenodd" clip-rule="evenodd" fill="#E48E27" d="M-0.611,110.744c0.349-0.295,0.698-0.593,1.047-0.889
	c1.572-1.325,3.5-1.427,5.325-0.28c1.454,0.916,1.876,2.292,1.323,4.384c-0.282,1.071-0.633,2.12-1.219,3.069
	c-1.114,1.798-2.802,1.98-4.38,0.523c-0.916-0.847-1.22-2.106-2.096-2.971C-0.611,113.301-0.611,112.023-0.611,110.744z"/>
<path fill-rule="evenodd" clip-rule="evenodd" fill="#C2AE7F" d="M162.286,0.27c0.315,2.246-0.535,4.172-1.771,5.934
	c-0.986,1.411-2.424,1.467-3.665,0.264c-1.274-1.237-2.64-2.394-3.178-4.211c-0.196-0.662-0.365-1.3-0.336-1.987
	C156.321,0.27,159.302,0.27,162.286,0.27z"/>
<path fill-rule="evenodd" clip-rule="evenodd" fill="#DDD7C4" d="M255.115,89.775c-2.507,0.306-4.18-1.124-5.253-3.033
	c-1.509-2.691,1.283-6.978,5.253-5.917C255.115,83.808,255.115,86.792,255.115,89.775z"/>
<path fill-rule="evenodd" clip-rule="evenodd" fill="#C2AE7F" d="M255.115,255.999c-2.395-0.016-4.789-0.027-7.182-0.042
	c-0.15-1.746,0.108-3.379,1.31-4.75c1.751-2,3.15-2.319,5.872-1.349C255.115,251.909,255.115,253.952,255.115,255.999z"/>
<path fill-rule="evenodd" clip-rule="evenodd" fill="#E48E27" d="M255.115,17.148c-1.193,0.364-2.418,0.467-3.649,0.312
	c-1.655-0.208-2.514-1.175-2.249-2.766c0.369-2.224,1.556-4.007,3.455-5.252c0.747-0.489,1.594-0.539,2.443-0.222
	C255.115,11.863,255.115,14.505,255.115,17.148z"/>
<path fill-rule="evenodd" clip-rule="evenodd" fill="#E48E27" d="M-0.611,9.221c1.632,0.463,2.722,1.448,3.109,3.154
	c0.596,2.624-0.433,4.221-3.109,4.774C-0.611,14.505-0.611,11.863-0.611,9.221z"/>
<path fill-rule="evenodd" clip-rule="evenodd" fill="#DDD7C4" d="M-0.611,81.081c1.439,0.272,2.32,1.215,2.629,2.555
	c0.403,1.744-0.077,3.427-0.897,4.97c-0.332,0.621-0.96,1.066-1.732,1.17C-0.611,86.877-0.611,83.979-0.611,81.081z"/>
<path fill-rule="evenodd" clip-rule="evenodd" fill="#111224" d="M-0.611,140.922c0.074-0.104,0.163-0.214,0.288-0.098
	c2.587,2.366,3.373,6.652,0.027,9.322c-0.061,0.05-0.208-0.01-0.315-0.021C-0.611,147.06-0.611,143.99-0.611,140.922z"/>
<path fill-rule="evenodd" clip-rule="evenodd" fill="#DDD7C4" d="M100.657,0.27c0.063,0.936-0.602,1.376-1.314,1.459
	c-2.525,0.298-5.065,0.612-7.604,0.08c-0.877-0.185-1.591-0.583-1.823-1.54C93.496,0.27,97.077,0.27,100.657,0.27z"/>
<path fill-rule="evenodd" clip-rule="evenodd" fill="#C2AE7F" d="M255.115,1.292c-1.842,0.7-3.703,1.028-5.664,0.455
	c-0.802-0.236-1.376-0.597-1.496-1.478c2.046,0,4.093,0.056,6.136-0.026C254.977,0.208,255.311,0.417,255.115,1.292z"/>
<path fill-rule="evenodd" clip-rule="evenodd" fill="#C2AE7F" d="M-0.611,184.395c1.188,0.56,2.063,1.354,2.011,2.793
	c-0.047,1.303-0.926,1.907-2.011,2.321C-0.611,187.804-0.611,186.1-0.611,184.395z"/>
<path fill-rule="evenodd" clip-rule="evenodd" fill="#C2AE7F" d="M0.421,255.964c-0.344,0.013-0.688,0.022-1.032,0.035
	c0-1.875,0-3.751,0-5.627c1.217,0.642,1.829,2.476,1.411,4.265C0.696,255.086,0.548,255.521,0.421,255.964z"/>
<path fill-rule="evenodd" clip-rule="evenodd" fill="#E48E27" d="M50.535,0.27c-2.67,1.627-5.035,1.627-6.905,0
	C45.93,0.27,48.232,0.27,50.535,0.27z"/>
<path fill-rule="evenodd" clip-rule="evenodd" fill="#111224" d="M103.671,26.52c-1.363,0-2.298,0.031-3.23-0.008
	c-1.561-0.064-2.805-0.627-3.336-2.251c-0.561-1.717-0.173-3.274,1.126-4.417c1.739-1.533,3.823-2.175,6.146-1.476
	c2.358,0.709,3.567,2.54,4.208,4.73c0.498,1.697-0.523,3.033-2.291,3.253C105.286,26.476,104.263,26.484,103.671,26.52z"/>
<path fill-rule="evenodd" clip-rule="evenodd" fill="#111224" d="M38.066,228.129c-0.545-0.07-1.102-0.104-1.638-0.218
	c-1.967-0.419-2.85-2.044-1.951-3.844c0.813-1.628,1.796-3.176,2.774-4.714c1.135-1.786,2.269-2.3,3.907-1.914
	c1.627,0.382,3.036,1.849,3.179,3.591C44.669,225.062,42.188,228.262,38.066,228.129z"/>
<path fill-rule="evenodd" clip-rule="evenodd" fill="#111224" d="M146.917,177.115c-0.059-2.206,0.572-3.219,2.218-3.842
	c1.602-0.603,3.609-0.052,4.73,1.296c2.946,3.547,1.881,8.133-2.332,10.033c-1.767,0.798-3.363,0.069-3.838-1.825
	C147.207,180.833,147.107,178.834,146.917,177.115z"/>
<path fill-rule="evenodd" clip-rule="evenodd" fill="#111224" d="M240.332,236.065c-0.64,0-1.277,0.009-1.914,0
	c-2.188-0.03-3.223-0.678-3.771-2.346c-0.552-1.681-0.006-3.611,1.484-4.649c4.027-2.804,8.336-1.472,9.993,3.401
	c0.572,1.685-0.347,3.013-2.112,3.386c-0.247,0.052-0.499,0.117-0.75,0.119c-0.979,0.016-1.953,0.007-2.93,0.007
	C240.332,236.012,240.332,236.04,240.332,236.065z"/>
<path fill-rule="evenodd" clip-rule="evenodd" fill="#111224" d="M81.286,131.309c-0.89,0-1.781,0.013-2.671-0.005
	c-1.458-0.025-2.679-0.468-3.267-1.95c-0.616-1.558-0.442-3.055,0.636-4.307c2.045-2.377,6.795-3.385,9.431,0.23
	c0.422,0.58,0.78,1.219,1.078,1.872c0.957,2.102-0.098,3.885-2.404,4.055c-0.93,0.068-1.868,0.01-2.803,0.01
	C81.286,131.246,81.286,131.276,81.286,131.309z"/>
<path fill-rule="evenodd" clip-rule="evenodd" fill="#111224" d="M221.764,27.721c-1.546,0.032-3.024-0.713-4.328-1.763
	c-1.308-1.054-1.381-2.768-0.122-3.894c1.74-1.56,3.668-2.914,5.79-3.893c2.391-1.104,5.101,1.264,4.837,4.114
	C227.67,25.199,224.892,27.726,221.764,27.721z"/>
<path fill-rule="evenodd" clip-rule="evenodd" fill="#E48E27" d="M8.193,173.62c-1.151-0.055-2.486-0.485-3.693-1.227
	c-1.368-0.84-1.754-2.388-0.77-3.628c1.567-1.968,3.421-3.714,5.602-4.967c2.239-1.289,5.24,1.007,5.048,3.888
	C14.181,170.66,11.966,173.552,8.193,173.62z"/>
<path fill-rule="evenodd" clip-rule="evenodd" fill="#48828C" d="M99.039,157.731c-0.895,0-1.789,0.039-2.677-0.011
	c-1.372-0.08-2.61-0.44-3.217-1.866c-0.652-1.538-0.541-3.034,0.504-4.325c1.988-2.454,6.835-3.538,9.515,0.126
	c0.495,0.679,0.912,1.446,1.204,2.231c0.697,1.884-0.285,3.429-2.28,3.661c-1.011,0.12-2.033,0.153-3.049,0.226
	C99.039,157.757,99.039,157.743,99.039,157.731z"/>
<path fill-rule="evenodd" clip-rule="evenodd" fill="#E48E27" d="M131.787,14.275c-0.06,1.364-0.654,2.865-1.687,4.143
	c-1.16,1.436-2.929,1.385-4.16-0.134c-1.176-1.451-2.252-2.988-3.313-4.529c-0.79-1.146-1.123-2.384-0.316-3.697
	c0.887-1.442,2.215-2.118,3.858-2.047C129.12,8.141,131.77,10.998,131.787,14.275z"/>
<path fill-rule="evenodd" clip-rule="evenodd" fill="#48828C" d="M199.869,151.771c-0.069-2.322,0.563-3.341,2.266-3.958
	c1.625-0.593,3.585-0.026,4.718,1.354c2.921,3.564,1.813,8.159-2.42,10.01c-1.774,0.778-3.348,0.02-3.81-1.888
	C200.166,155.385,200.06,153.424,199.869,151.771z"/>
<path fill-rule="evenodd" clip-rule="evenodd" fill="#48828C" d="M13.111,63.192c-1.744,0.015-3.238-0.701-4.538-1.755
	c-1.454-1.182-1.421-2.964,0.091-4.15c1.467-1.149,3.037-2.173,4.597-3.201c1.244-0.819,2.541-1.143,3.917-0.205
	c1.453,0.993,2.028,2.395,1.838,4.071C18.698,60.754,15.911,63.176,13.111,63.192z"/>
<path fill-rule="evenodd" clip-rule="evenodd" fill="#48828C" d="M152.495,18.177c1.596,0.003,2.994,0.635,4.241,1.536
	c1.499,1.083,1.568,2.9,0.128,4.151c-1.408,1.221-2.933,2.317-4.445,3.41c-1.246,0.898-2.589,1.297-4.018,0.342
	c-1.443-0.964-2.082-2.343-1.92-4.04C146.758,20.651,149.569,18.163,152.495,18.177z"/>
<path fill-rule="evenodd" clip-rule="evenodd" fill="#48828C" d="M51.016,114.46c-0.043-2.238,0.535-3.204,2.104-3.828
	c1.603-0.638,3.507-0.256,4.661,1.081c3.187,3.688,2.282,8.292-2.536,10.317c-1.606,0.675-3.014-0.156-3.462-1.944
	C51.296,118.145,51.194,116.143,51.016,114.46z"/>
<path fill-rule="evenodd" clip-rule="evenodd" fill="#E48E27" d="M213.449,29.952c4.435-0.03,6.749,3.133,6.424,7.183
	c-0.13,1.618-1.523,2.467-3.16,2.132c-1.836-0.379-3.588-1.05-5.336-1.707c-2.12-0.796-2.722-1.711-2.61-3.685
	c0.1-1.75,1.367-3.253,3.175-3.696C212.556,30.028,213.2,29.988,213.449,29.952z"/>
<path fill-rule="evenodd" clip-rule="evenodd" fill="#48828C" d="M61.32,75.999c-0.723-0.001-1.446,0.012-2.167-0.004
	c-2.125-0.047-3.13-0.692-3.66-2.321c-0.543-1.672,0.018-3.65,1.482-4.667c4.283-2.977,8.606-1.169,10.071,3.648
	c0.429,1.412-0.428,2.673-1.922,3.092C63.875,76.097,62.587,75.912,61.32,75.999z"/>
<path fill-rule="evenodd" clip-rule="evenodd" fill="#C2AE7F" d="M113.566,57.763c-0.764,0-1.532,0.049-2.292-0.01
	c-1.422-0.11-2.676-0.535-3.209-2.057c-0.529-1.512-0.438-3.012,0.645-4.189c1.699-1.848,3.879-2.594,6.352-1.915
	c2.566,0.705,3.843,2.692,4.447,5.109c0.33,1.315-0.703,2.541-2.137,2.828C116.116,57.777,114.84,57.79,113.566,57.763z"/>
<path fill-rule="evenodd" clip-rule="evenodd" fill="#48828C" d="M108.006,245.022c-0.629-0.089-1.273-0.122-1.887-0.276
	c-1.65-0.415-2.523-1.85-1.886-3.403c0.921-2.243,2.209-4.307,3.759-6.177c0.852-1.027,2.036-1.146,3.267-0.783
	c1.571,0.461,2.629,1.553,2.882,3.104C114.833,241.722,112.161,245.128,108.006,245.022z"/>
<path fill-rule="evenodd" clip-rule="evenodd" fill="#E48E27" d="M167.99,200.81c-0.25,4.046-3.976,7.068-7.854,5.696
	c-3.91-1.386-4.38-3.302-1.355-6.088c0.969-0.891,1.977-1.74,2.974-2.603c1.175-1.008,2.427-1.552,3.96-0.761
	C167.287,197.865,167.952,199.185,167.99,200.81z"/>
<path fill-rule="evenodd" clip-rule="evenodd" fill="#DDD7C4" d="M174.28,41.817c0.261-2.188,1.391-3.976,3.408-5.081
	c2.257-1.235,4.415-0.626,6.495,0.621c1.027,0.613,1.486,1.429,1.409,2.624c-0.038,0.594-0.241,1.032-0.638,1.462
	c-1.419,1.545-3.146,2.706-4.869,3.854c-1.184,0.79-2.48,1.083-3.822,0.264C174.9,44.731,174.341,43.487,174.28,41.817z"/>
<path fill-rule="evenodd" clip-rule="evenodd" fill="#48828C" d="M83.225,226.903c-0.765,0-1.53,0.009-2.294,0
	c-1.434-0.017-2.7-0.345-3.364-1.81c-0.722-1.585-0.522-3.072,0.526-4.427c2.281-2.95,7.271-2.869,9.449,0.147
	c0.547,0.756,1.048,1.565,1.306,2.468c0.505,1.779-0.336,3.151-2.193,3.448c-1.125,0.18-2.284,0.145-3.428,0.203
	C83.226,226.925,83.226,226.915,83.225,226.903z"/>
<path fill-rule="evenodd" clip-rule="evenodd" fill="#C2AE7F" d="M11.711,217.604c-0.084-0.008-0.555-0.012-1.009-0.105
	c-2.34-0.473-3.167-2.17-2.018-4.255c0.84-1.523,1.759-3.003,2.706-4.462c1.086-1.672,2.146-2.141,3.712-1.776
	c1.667,0.388,2.939,1.743,3.199,3.41C18.93,214.442,16.147,217.665,11.711,217.604z"/>
<path fill-rule="evenodd" clip-rule="evenodd" fill="#E48E27" d="M232.934,195.479c0.071,1.525-0.629,2.895-1.523,4.144
	c-1.053,1.47-2.793,1.589-4.058,0.245c-1.512-1.613-2.836-3.409-3.863-5.362c-1.313-2.5,0.947-5.365,3.944-5.132
	C230.418,189.606,232.97,192.395,232.934,195.479z"/>
<path fill-rule="evenodd" clip-rule="evenodd" fill="#C2AE7F" d="M222.757,153.933c3.549,0.027,6.146,4.85,4.418,8.229
	c-0.786,1.538-2.057,2.603-3.606,3.274c-1.767,0.767-3.259,0-3.701-1.868c-0.456-1.942-0.653-3.934-0.758-5.918
	C218.984,155.287,220.399,153.915,222.757,153.933z"/>
<path fill-rule="evenodd" clip-rule="evenodd" fill="#DDD7C4" d="M179.153,168.897c0.003,2.735-3.033,5.887-5.559,5.795
	c-0.948-0.032-1.76-0.439-2.025-1.283c-0.79-2.51-1.23-5.124-0.991-7.744c0.191-2.089,2.887-3.366,4.911-2.544
	C177.596,163.981,179.152,166.432,179.153,168.897z"/>
<path fill-rule="evenodd" clip-rule="evenodd" fill="#C2AE7F" d="M221.883,76.868c0.021-4.44,4.426-7.34,8.16-5.817
	c1.311,0.537,2.802,0.987,3.089,2.723c0.303,1.817-1.048,2.67-2.194,3.595c-0.988,0.801-2.047,1.52-3.095,2.25
	c-1.168,0.816-2.372,1.316-3.791,0.521C222.56,79.305,221.914,78.022,221.883,76.868z"/>
<path fill-rule="evenodd" clip-rule="evenodd" fill="#C2AE7F" d="M117.03,191.663c-0.034-2.71,0.622-3.753,2.228-4.296
	c1.704-0.577,3.623-0.029,4.714,1.344c2.831,3.559,1.862,7.852-2.231,9.88c-1.857,0.92-3.541,0.179-3.958-1.881
	C117.397,194.804,117.203,192.861,117.03,191.663z"/>
<path fill-rule="evenodd" clip-rule="evenodd" fill="#C2AE7F" d="M236.028,16.384c-0.906,0-1.588,0.004-2.27-0.002
	c-2.249-0.014-3.243-0.675-3.776-2.497c-0.498-1.697,0.197-3.535,1.728-4.578c3.812-2.594,8.357-1.029,9.742,3.355
	c0.524,1.655-0.176,2.979-1.84,3.482C238.362,16.524,237.072,16.3,236.028,16.384z"/>
<path fill-rule="evenodd" clip-rule="evenodd" fill="#DDD7C4" d="M217.346,216.363c-0.809,0-1.618,0.027-2.427-0.005
	c-1.289-0.052-2.453-0.407-3.075-1.673c-0.715-1.452-0.656-2.905,0.257-4.238c1.157-1.682,4.259-2.872,6.097-2.423
	c2.471,0.603,4.57,2.792,4.935,5.146c0.271,1.747-0.925,3.049-2.979,3.171c-0.932,0.055-1.869,0.009-2.807,0.009
	C217.346,216.355,217.346,216.358,217.346,216.363z"/>
<path fill-rule="evenodd" clip-rule="evenodd" fill="#DDD7C4" d="M241.742,44.042c-2.021-0.215-3.955-0.697-5.111-2.557
	c-0.739-1.186-0.395-2.409,0.676-3.266c1.556-1.246,3.256-2.28,4.904-3.396c2.506-1.698,5.353,0.688,5.516,3.057
	C247.91,40.596,245.1,44.272,241.742,44.042z"/>
<path fill-rule="evenodd" clip-rule="evenodd" fill="#DDD7C4" d="M25.472,135.626c-0.011,2.902-2.732,5.835-5.363,5.824
	c-1.246-0.002-1.969-0.578-2.34-1.749c-0.479-1.513-0.625-3.076-0.708-4.637c-0.047-0.91-0.358-1.79-0.08-2.765
	c0.628-2.198,3.316-3.408,5.324-2.279C24.266,131.124,25.482,133.276,25.472,135.626z"/>
<path fill-rule="evenodd" clip-rule="evenodd" fill="#DDD7C4" d="M67.256,224.782c0.569-0.087,1.136,0.132,1.686,0.509
	c1.643,1.121,3.277,2.266,4.722,3.628c1.715,1.616,1.412,4.108-0.557,5.457c-2.072,1.42-4.149,0.925-6.101-0.165
	c-1.966-1.102-2.876-2.88-2.708-5.187c0.059-0.806,0.113-1.605,0.333-2.381C64.974,225.431,65.88,224.779,67.256,224.782z"/>
<path fill-rule="evenodd" clip-rule="evenodd" fill="#DDD7C4" d="M77.282,100.781c-0.723,0-1.445,0.004-2.168-0.002
	c-2.254-0.015-3.103-0.64-3.695-2.714c-0.424-1.488,0.413-3.538,1.808-4.424c3.852-2.446,7.947-1.08,9.604,3.205
	c0.784,2.027-0.389,3.728-2.742,3.906c-0.93,0.071-1.87,0.012-2.806,0.012C77.282,100.77,77.282,100.774,77.282,100.781z"/>
<path fill-rule="evenodd" clip-rule="evenodd" fill="#E48E27" d="M50.853,255.957c-2.541,0.002-5.081,0.004-7.622,0.007
	c-0.763-0.858-1.439-1.784-1.94-2.818c-0.968-1.997-0.08-3.696,2.085-4.054c1.894-0.315,3.813-0.364,5.719-0.371
	c2.973-0.006,4.581,2.958,3.14,5.593C51.881,254.96,51.361,255.45,50.853,255.957z"/>
<path fill-rule="evenodd" clip-rule="evenodd" fill="#48828C" d="M36.01,101.18c-1.24-0.013-2.346-0.781-3.135-2.061
	c-0.766-1.239-0.524-2.415,0.2-3.593c2.447-3.984,4.275-4.409,8.227-1.852c0.461,0.296,0.923,0.631,1.284,1.039
	c0.785,0.884,1.069,2.021,0.273,2.91C41.13,99.558,39.064,101.035,36.01,101.18z"/>
<path fill-rule="evenodd" clip-rule="evenodd" fill="#48828C" d="M142.665,57.009c-0.035-3.03,0.997-4.302,3.804-4.805
	c1.008-0.179,2.019-0.339,3.047-0.233c1.785,0.183,2.709,1.472,2.284,3.197c-0.423,1.738-0.891,3.434-2.126,4.847
	c-1.248,1.432-2.683,2.002-4.536,1.471c-1.839-0.525-2.362-1.901-2.423-3.607C142.702,57.539,142.675,57.2,142.665,57.009z"/>
<path fill-rule="evenodd" clip-rule="evenodd" fill="#C2AE7F" d="M127.726,233.157c-2.287-0.071-4.492-3.053-3.004-5.274
	c0.565-0.843,1.055-1.756,1.721-2.511c0.917-1.042,2.065-1.555,3.53-1.134c1.625,0.463,3.084,1.211,4.301,2.361
	c1.187,1.116,1.069,2.577-0.159,3.639C132.352,231.758,130.493,233.054,127.726,233.157z"/>
<path fill-rule="evenodd" clip-rule="evenodd" fill="#48828C" d="M24.231,24.01c-0.034,2.066,0.03,3.805-1.691,4.683
	c-1.989,1.017-4.146,1.285-6.296,0.536C15.285,28.894,14.688,28,14.902,27c0.399-1.863,0.878-3.726,2.242-5.201
	c1.696-1.83,3.036-2.262,4.959-1.532C24.079,21.017,24.351,22.626,24.231,24.01z"/>
<path fill-rule="evenodd" clip-rule="evenodd" fill="#48828C" d="M97.015,207.441c-0.05-1.229,0.308-2.362,0.769-3.47
	c0.671-1.61,1.986-2.273,3.636-2.332c1.547-0.056,2.488,0.784,3.152,2.143c1.99,4.066,1.479,5.696-2.56,7.744
	c-0.564,0.284-1.167,0.541-1.779,0.676c-1.461,0.32-2.706-0.615-2.896-2.104C97.226,209.212,97.122,208.327,97.015,207.441z"/>
<path fill-rule="evenodd" clip-rule="evenodd" fill="#48828C" d="M57.859,252.096c-1.232-0.035-2.357-0.789-3.12-2.083
	c-0.696-1.181-0.518-2.343,0.164-3.495c2.392-4.057,4.323-4.515,8.302-1.912c0.637,0.417,1.309,0.822,1.646,1.555
	c0.379,0.821,0.526,1.748-0.111,2.411C62.946,250.439,60.922,251.972,57.859,252.096z"/>
<path fill-rule="evenodd" clip-rule="evenodd" fill="#48828C" d="M247.483,212.278c-1.437,0.002-2.519-0.821-3.269-2.103
	c-0.688-1.183-0.48-2.347,0.206-3.495c2.363-3.936,4.198-4.4,8.107-1.981c0.5,0.309,0.994,0.668,1.397,1.095
	c0.819,0.865,1.109,2.044,0.34,2.905C252.513,210.657,250.433,212.198,247.483,212.278z"/>
<path fill-rule="evenodd" clip-rule="evenodd" fill="#48828C" d="M18.803,98.088c-0.004-2.745,2.644-4.519,5.125-3.436
	c4.287,1.873,4.965,3.666,2.951,7.886c-0.254,0.533-0.557,1.063-0.932,1.512c-0.732,0.876-1.725,1.125-2.769,0.726
	C21.219,104.024,18.805,100.266,18.803,98.088z"/>
<path fill-rule="evenodd" clip-rule="evenodd" fill="#C2AE7F" d="M207.757,200.112c-0.275,1.498-0.842,3.272-2.018,4.775
	c-0.702,0.894-2.188,1.177-2.99,0.529c-1.94-1.573-3.631-3.361-4.078-5.966c-0.47-2.745,2.231-5.005,4.838-4.056
	c0.963,0.353,1.864,0.837,2.686,1.443C207.161,197.551,207.807,198.471,207.757,200.112z"/>
<path fill-rule="evenodd" clip-rule="evenodd" fill="#48828C" d="M225.597,61.375c-1.431-0.028-2.499-0.859-3.26-2.136
	c-0.715-1.195-0.481-2.334,0.219-3.478c2.46-4.026,4.354-4.459,8.323-1.84c0.819,0.541,1.626,1.095,1.814,2.183
	c0.108,0.617,0.127,1.271-0.291,1.702C230.567,59.697,228.539,61.278,225.597,61.375z"/>
<path fill-rule="evenodd" clip-rule="evenodd" fill="#48828C" d="M180.272,210.751c-1.563,0.018-2.659-0.781-3.441-2.047
	c-0.757-1.229-0.514-2.407,0.21-3.591c2.425-3.954,4.488-4.412,8.344-1.776c0.521,0.357,1.088,0.697,1.419,1.267
	c0.504,0.863,0.632,1.775,0.043,2.645C185.688,208.971,182.345,210.728,180.272,210.751z"/>
<path fill-rule="evenodd" clip-rule="evenodd" fill="#C2AE7F" d="M23.136,186.657c-0.21,1.813-0.847,3.566-1.976,5.088
	c-0.886,1.189-2.494,1.226-3.568,0.208c-1.455-1.375-2.873-2.748-3.415-4.809c-0.468-1.783,0.011-3.194,1.342-4.344
	c1.182-1.019,2.51-0.886,3.817-0.249c0.762,0.369,1.51,0.784,2.213,1.253C22.516,184.455,23.088,185.367,23.136,186.657z"/>
<path fill-rule="evenodd" clip-rule="evenodd" fill="#C2AE7F" d="M199.626,60.657c0.091,1.372-0.014,3.082-1.641,3.86
	c-2.011,0.96-4.215,1.383-6.405,0.465c-0.91-0.381-1.331-1.244-1.14-2.209c0.329-1.666,0.773-3.307,1.815-4.71
	c1.534-2.057,3.157-2.667,5.279-1.965C199.121,56.623,199.638,57.683,199.626,60.657z"/>
<path fill-rule="evenodd" clip-rule="evenodd" fill="#C2AE7F" d="M108.696,82.602c1.919,0.293,3.802,1.221,5.308,2.796
	c0.79,0.827,0.691,2.236-0.135,3.017c-1.646,1.561-3.408,2.892-5.798,3.174c-1.652,0.196-2.803-0.483-3.704-1.711
	c-0.831-1.133-0.82-2.351-0.137-3.587c0.538-0.973,1.14-1.89,1.946-2.661C106.805,83.029,107.528,82.611,108.696,82.602z"/>
<path fill-rule="evenodd" clip-rule="evenodd" fill="#48828C" d="M173.821,136.054c-0.162,1.857-0.826,3.546-1.943,5.028
	c-0.764,1.021-2.315,1.287-3.188,0.525c-1.596-1.398-3.144-2.847-3.748-5.024c-0.48-1.733-0.114-3.25,1.179-4.388
	c1.313-1.16,2.691-1.07,4.119-0.271c0.776,0.435,1.569,0.849,2.291,1.363C173.457,133.945,173.919,134.877,173.821,136.054z"/>
<path fill-rule="evenodd" clip-rule="evenodd" fill="#C2AE7F" d="M75.851,21.085c-0.077-1.304,0.24-2.517,0.78-3.698
	c0.712-1.562,2.064-2.139,3.606-2.181c1.431-0.039,2.406,0.802,3.068,2.101c2.005,3.937,1.426,5.776-2.554,7.73
	c-0.57,0.28-1.161,0.548-1.773,0.697c-1.344,0.327-2.577-0.513-2.838-1.867c-0.089-0.458-0.171-0.918-0.219-1.382
	C75.873,22.022,75.872,21.554,75.851,21.085z"/>
<path fill-rule="evenodd" clip-rule="evenodd" fill="#C2AE7F" d="M196.065,89.543c-0.028-3.131,3.481-5.646,6.456-5.015
	c0.744,0.158,1.476,0.371,2.112,0.845c1.42,1.055,1.74,2.878,0.619,4.244c-0.886,1.081-1.887,2.067-3.066,2.854
	c-1.403,0.936-2.797,0.771-4.21,0.022C196.615,91.772,196.163,90.558,196.065,89.543z"/>
<path fill-rule="evenodd" clip-rule="evenodd" fill="#C2AE7F" d="M38.411,202.004c-2.814,0.037-4.299-1.967-3.418-4.336
	c0.367-0.988,0.802-1.97,1.336-2.88c1.033-1.756,2.493-2.341,4.694-1.92c1.638,0.313,2.367,1.601,2.756,3.029
	c0.558,2.063-1.564,5.075-4.006,5.816C39.25,201.874,38.699,201.943,38.411,202.004z"/>
<path fill-rule="evenodd" clip-rule="evenodd" fill="#C2AE7F" d="M228.017,245.494c-0.01,3.095-3.286,5.528-6.147,5.051
	c-0.661-0.111-1.32-0.287-1.928-0.623c-2.004-1.101-2.413-3.365-0.829-5.002c0.854-0.879,1.803-1.673,2.849-2.334
	c1.416-0.895,2.782-0.752,4.195,0.057C227.492,243.407,228.013,244.551,228.017,245.494z"/>
<path fill-rule="evenodd" clip-rule="evenodd" fill="#C2AE7F" d="M62.126,150.116c2.342,0.069,4.178,1.004,5.212,3.191
	c0.852,1.804-0.021,3.731-1.938,4.211c-1.314,0.33-2.661,0.579-4.025,0.492c-2.061-0.134-3.814-1.931-3.854-3.895
	c-0.042-2.08,1.638-3.832,3.841-4C61.615,150.099,61.87,150.116,62.126,150.116z"/>
<path fill-rule="evenodd" clip-rule="evenodd" fill="#C2AE7F" d="M18.568,151.447c-0.081,2.188-0.917,3.957-2.914,5.012
	c-1.463,0.775-3.21,0.263-3.94-1.195c-0.746-1.491-1.143-3.121-1.217-4.781c-0.072-1.612,1.565-3.408,3.254-3.783
	c1.515-0.336,3.382,0.595,4.145,2.057C18.335,149.599,18.587,150.485,18.568,151.447z"/>
<path fill-rule="evenodd" clip-rule="evenodd" fill="#C2AE7F" d="M224.623,125.273c1.909,0.028,3.177,0.981,3.76,2.825
	c0.852,2.68-0.228,5.642-2.486,6.83c-1.764,0.93-3.544,0.327-4.308-1.509c-0.557-1.338-0.839-2.767-0.923-4.2
	C220.542,127.141,222.51,125.241,224.623,125.273z"/>
<path fill-rule="evenodd" clip-rule="evenodd" fill="#C2AE7F" d="M126.533,163.146c0.055,2.021-0.77,3.63-2.387,4.798
	c-1.802,1.307-4.051,0.607-4.753-1.498c-0.36-1.083-0.626-2.211-0.778-3.336c-0.321-2.386,1.353-4.501,3.604-4.673
	C124.75,158.243,126.525,160.183,126.533,163.146z"/>
<path fill-rule="evenodd" clip-rule="evenodd" fill="#C2AE7F" d="M83.846,53.188c-1.932,0.106-3.225-0.757-4.045-2.503
	c-0.741-1.581-0.303-2.942,0.704-4.138c1.095-1.303,2.675-1.37,4.232-1.255c2.538,0.185,4.771,2.426,4.717,4.685
	c-0.034,1.392-0.728,2.347-2.083,2.704C86.218,52.984,85.04,53.167,83.846,53.188z"/>
<path fill-rule="evenodd" clip-rule="evenodd" fill="#DDD7C4" d="M100.925,255.954c-3.759,0-7.517,0.003-11.275,0.003
	c-0.743-2.805,0.084-4.748,2.358-5.871c3.281-1.618,6.247-0.455,7.539,1.454C100.426,252.843,101.517,254.158,100.925,255.954z"/>
<path fill-rule="evenodd" clip-rule="evenodd" fill="#111224" d="M218.101,104.457c3.127,0.048,5.013,2.508,4.215,5.504
	c-0.265,0.995-0.755,1.883-1.383,2.699c-1.214,1.579-1.908,1.719-3.66,0.713c-1.991-1.143-3.212-3.508-2.921-5.671
	C214.62,105.7,216.089,104.426,218.101,104.457z"/>
<path fill-rule="evenodd" clip-rule="evenodd" fill="#E48E27" d="M106.9,106.891c-0.217,1.551-0.694,3.313-1.817,4.811
	c-0.88,1.179-2.223,1.404-3.373,0.527c-1.726-1.318-2.793-3.112-3.028-5.27c-0.217-2.004,1.818-3.986,3.936-4.008
	C104.982,102.923,106.871,104.535,106.9,106.891z"/>
<path fill-rule="evenodd" clip-rule="evenodd" fill="#E48E27" d="M76.622,200.977c2.135,0,3.636,1.114,4.343,3.112
	c0.537,1.523,0.085,2.84-1.521,4.101c-1.037,0.812-2.141,1.544-3.442,1.894c-1.591,0.429-2.844-0.268-3.2-1.84
	c-0.407-1.805-0.094-3.578,0.587-5.241C73.975,201.564,75.189,200.9,76.622,200.977z"/>
<path fill-rule="evenodd" clip-rule="evenodd" fill="#E48E27" d="M192.768,223.633c1.803,0.295,3.639,1.052,5.105,2.494
	c1.047,1.025,0.992,2.313-0.075,3.403c-1.359,1.384-3.096,2.134-4.979,2.357c-2.104,0.246-3.935-1.645-3.995-3.902
	C188.765,225.618,190.481,223.607,192.768,223.633z"/>
<path fill-rule="evenodd" clip-rule="evenodd" fill="#111224" d="M184.338,16.011c-1.682-0.066-3.068-0.529-3.775-2.07
	c-0.773-1.683-0.337-3.229,0.749-4.638c1.007-1.306,2.28-1.811,3.926-1.4c1.773,0.44,3.121,1.478,4.28,2.826
	c0.495,0.574,0.326,1.194,0.083,1.798C188.793,14.506,186.459,16.018,184.338,16.011z"/>
<path fill-rule="evenodd" clip-rule="evenodd" fill="#E48E27" d="M14.052,233.415c1.666,0.201,3.476,1.007,4.955,2.423
	c1.081,1.037,1.073,2.314,0.013,3.398c-1.418,1.449-3.232,2.23-5.22,2.396c-1.92,0.159-3.59-1.579-3.806-3.716
	C9.764,235.638,11.574,233.415,14.052,233.415z"/>
<path fill-rule="evenodd" clip-rule="evenodd" fill="#111224" d="M39.783,162.136c-1.153-0.049-2.516-0.575-3.205-2.1
	c-0.787-1.743-0.245-3.306,0.885-4.736c1.014-1.28,2.334-1.632,3.868-1.25c1.71,0.427,3.047,1.44,4.181,2.759
	c0.537,0.624,0.381,1.261,0.106,1.907C44.779,160.695,42.473,162.153,39.783,162.136z"/>
<path fill-rule="evenodd" clip-rule="evenodd" fill="#E48E27" d="M250.877,65.427c0.048,2.087-0.878,3.077-2.211,3.752
	c-1.723,0.873-3.327,0.433-4.78-0.64c-1.196-0.88-1.472-2.127-1.12-3.533c0.368-1.458,0.94-2.833,1.879-4.011
	c1.133-1.423,2.565-1.565,3.851-0.316C249.949,62.092,250.62,63.916,250.877,65.427z"/>
<path fill-rule="evenodd" clip-rule="evenodd" fill="#DDD7C4" d="M20.571,116.377c2.449,0.02,4.481,1.236,4.976,2.976
	c0.046,0.164,0.126,0.324,0.138,0.488c0.108,1.521-2.47,4.6-4.136,4.919c-1.871,0.36-4.434-1.205-4.922-2.984
	C15.813,118.814,17.489,116.353,20.571,116.377z"/>
<path fill-rule="evenodd" clip-rule="evenodd" fill="#111224" d="M146.586,252.949c0.043,0-0.215,0.015-0.467-0.002
	c-2.749-0.188-3.532-1.157-3.008-3.872c0.365-1.896,1.424-3.345,3.194-4.189c2.034-0.969,4.091-0.232,5.025,1.755
	c1.04,2.208,0.314,4.828-1.612,5.734C148.828,252.794,147.879,253.01,146.586,252.949z"/>
<path fill-rule="evenodd" clip-rule="evenodd" fill="#E48E27" d="M24.514,77.288c-1.702,0.096-2.69-0.907-3.366-2.281
	c-0.855-1.738-0.35-3.334,0.747-4.764c0.903-1.176,2.166-1.404,3.561-1.048c1.378,0.354,2.64,0.976,3.776,1.809
	c1.668,1.222,1.705,2.919,0.155,4.295C28.272,76.288,25.822,77.29,24.514,77.288z"/>
<path fill-rule="evenodd" clip-rule="evenodd" fill="#DDD7C4" d="M38.269,15.711c0.029-2.592,1.613-4.167,3.839-4.188
	c0.866-0.009,1.675,0.209,2.478,0.471c3.048,0.988,3.769,3.057,1.834,5.619c-1.022,1.354-2.268,2.594-4.226,2.293
	c-1.922-0.295-3.257-1.34-3.781-3.271C38.304,16.232,38.282,15.806,38.269,15.711z"/>
<path fill-rule="evenodd" clip-rule="evenodd" fill="#111224" d="M184.795,106.924c3.411,0.044,4.403,1.388,3.509,4.469
	c-0.472,1.626-1.415,2.888-2.944,3.656c-1.929,0.97-4.01,0.302-5.005-1.572c-1.119-2.113-0.564-4.747,1.242-5.748
	C182.654,107.14,183.809,106.879,184.795,106.924z"/>
<path fill-rule="evenodd" clip-rule="evenodd" fill="#DDD7C4" d="M21.892,255.972c-1.364,0-2.728,0-4.092,0
	c-0.543-1.198-1.548-2.201-1.282-3.724c0.321-1.828,0.599-3.609,2.598-4.443c1.563-0.653,4.022-0.21,5.083,0.962
	c1.151,1.269,1.368,3.381,0.523,4.865c-0.491,0.863-1.317,1.293-2.138,1.734C22.306,255.517,21.873,255.482,21.892,255.972z"/>
<path fill-rule="evenodd" clip-rule="evenodd" fill="#DDD7C4" d="M94.26,179.659c0.008,2.256-2.493,5.091-4.713,5.176
	c-1.138,0.044-2.154-0.46-2.725-1.551c-0.698-1.34-1.176-2.775-0.954-4.274c0.307-2.067,2.983-3.998,5.611-3.121
	C93.417,176.536,94.252,177.752,94.26,179.659z"/>
<path fill-rule="evenodd" clip-rule="evenodd" fill="#DDD7C4" d="M151.536,84.861c-0.013,3.036-1.329,4.819-3.802,5.142
	c-1.82,0.237-4.081-1.174-4.625-2.89c-0.645-2.021,0.17-3.878,2.108-4.912c0.683-0.365,1.402-0.611,2.15-0.775
	C150.005,80.843,151.546,82.119,151.536,84.861z"/>
<path fill-rule="evenodd" clip-rule="evenodd" fill="#E48E27" d="M43.467,177.445c0.012-3.042,2.107-5.359,4.644-5.064
	c1.753,0.203,2.771,1.353,3.38,2.919c0.571,1.471,0.437,2.822-0.701,4.011c-1.301,1.357-2.944,1.964-4.749,2.241
	c-0.744,0.113-1.217-0.316-1.584-0.86C43.799,179.718,43.488,178.622,43.467,177.445z"/>
<path fill-rule="evenodd" clip-rule="evenodd" fill="#E48E27" d="M170.421,63.105c2.981-0.109,4.115,1.473,3.136,4.092
	c-0.422,1.124-1.048,2.148-1.813,3.058c-1.735,2.064-5.04,1.687-6.374-0.687c-1.524-2.719-0.488-5.258,2.498-6.058
	C168.77,63.269,169.693,63.103,170.421,63.105z"/>
<path fill-rule="evenodd" clip-rule="evenodd" fill="#DDD7C4" d="M164.743,234.252c-2.294,0.002-4.577-2.048-4.449-4.215
	c0.133-2.247,1.331-4.132,3.914-4.181c2.969-0.059,5.369,1.667,5.396,3.773C169.629,231.545,166.784,234.252,164.743,234.252z"/>
<path fill-rule="evenodd" clip-rule="evenodd" fill="#111224" d="M61.674,57.318c-1.16-0.036-2.533-0.549-3.208-2.086
	c-0.758-1.727-0.302-3.311,0.867-4.733c1.061-1.291,2.371-1.671,3.98-1.226c1.528,0.423,2.731,1.303,3.815,2.418
	c0.656,0.676,0.718,1.369,0.358,2.196C66.608,55.908,64.402,57.331,61.674,57.318z"/>
<path fill-rule="evenodd" clip-rule="evenodd" fill="#C2AE7F" d="M73.086,192.002c0.022,1.286-0.709,2.162-1.591,2.925
	c-1.159,0.999-2.574,1.432-4.052,1.711c-0.715,0.131-1.216-0.179-1.644-0.718c-1.624-2.049-1.375-5.666,0.525-7.478
	c1.163-1.104,2.688-1.406,4.102-0.734C72.227,188.56,72.95,190.107,73.086,192.002z"/>
<path fill-rule="evenodd" clip-rule="evenodd" fill="#C2AE7F" d="M63.505,31.263c-1.548,0.053-2.856-0.514-3.591-2.018
	c-0.826-1.687-0.358-3.228,0.725-4.624c1.033-1.331,2.338-1.857,4.039-1.38c1.31,0.366,2.385,1.067,3.379,1.946
	c1.316,1.166,1.452,2.089,0.39,3.524C67.25,30.333,65.664,31.293,63.505,31.263z"/>
<path fill-rule="evenodd" clip-rule="evenodd" fill="#E48E27" d="M142.345,222.385c0.066,0.869-0.191,1.762-0.518,2.645
	c-0.688,1.851-1.37,2.228-3.288,1.796c-2.553-0.578-4.507-3.056-4.393-5.55c0.046-0.993,0.437-1.801,1.212-2.425
	c1.593-1.289,3.324-1.159,5.038-0.383C142.019,219.203,142.393,220.667,142.345,222.385z"/>
<path fill-rule="evenodd" clip-rule="evenodd" fill="#C2AE7F" d="M248.504,106.812c0.007,2.353-0.947,3.917-2.263,5.325
	c-0.516,0.551-1.142,0.529-1.774,0.39c-2.522-0.557-4.572-3.728-4.085-6.286c0.337-1.766,1.338-2.754,3.116-3.078
	C245.953,102.718,248.524,104.773,248.504,106.812z"/>
<path fill-rule="evenodd" clip-rule="evenodd" fill="#C2AE7F" d="M172.371,87.794c0.562-0.087,1.175,0.174,1.809,0.215
	c0.991,0.065,1.459,0.709,1.598,1.552c0.355,2.167-0.24,4.076-1.894,5.549c-1.534,1.368-3.287,1.609-4.688,0.78
	c-1.547-0.916-2.369-2.981-1.95-4.899C167.694,88.945,169.515,87.79,172.371,87.794z"/>
<path fill-rule="evenodd" clip-rule="evenodd" fill="#C2AE7F" d="M40.948,136.091c-0.875-0.022-2.258-0.496-2.925-2.067
	c-0.762-1.791-0.286-3.435,0.944-4.85c1.043-1.204,2.353-1.542,3.924-1.089c1.626,0.464,2.872,1.433,3.973,2.649
	c0.5,0.553,0.43,1.155,0.211,1.792C46.373,134.567,44.06,136.094,40.948,136.091z"/>
<path fill-rule="evenodd" clip-rule="evenodd" fill="#C2AE7F" d="M181.666,242.038c0.013-1.862,0.832-3.363,2.453-4.175
	c1.792-0.896,3.498-0.125,5.017,0.913c2.905,1.994,2.752,3.535-0.156,5.845c-1.289,1.025-2.88,1.4-4.579,0.928
	C182.612,245.05,181.681,243.893,181.666,242.038z"/>
<path fill-rule="evenodd" clip-rule="evenodd" fill="#C2AE7F" d="M162.286,255.964c-2.993,0-5.983-0.003-8.976-0.003
	c0.438-3.039,2.803-4.324,5.52-2.964C160.222,253.694,161.707,254.31,162.286,255.964z"/>
<path fill-rule="evenodd" clip-rule="evenodd" fill="#C2AE7F" d="M201.386,255.949c-2.549,0.04-5.095,0.129-7.641-0.048
	c1.03-1.139,2.292-1.944,3.753-2.363C199.08,253.083,200.646,254.11,201.386,255.949z"/>
<path fill-rule="evenodd" clip-rule="evenodd" fill="#C2AE7F" d="M120.813,133.004c-0.139-0.572-0.217-1.153-0.299-1.736
	c-0.024-0.169,0.117-0.126,0.201-0.124c0.786,0.025,1.569-0.056,2.354-0.073c0.892-0.021,1.786-0.037,2.677-0.088
	c0.23-0.013,0.461-0.001,0.692-0.003c0.085-0.003,0.182,0.027,0.242-0.068c0.135,0.032,0.271,0.058,0.413,0.068
	c0.244,0.017,0.357-0.071,0.326-0.319c0.116,0.02,0.124,0.134,0.173,0.207c0.151,0.229,0.281,0.469,0.442,0.688
	c0.128,0.174,0.273,0.36,0.543,0.259c0.059,0.094,0.119,0.183,0.249,0.173c0.268,0.243,0.625,0.3,0.939,0.442
	c0.014,0.1,0.103,0.104,0.166,0.146c0.295,0.189,0.616,0.12,0.934,0.107c0.2,0.256,0.452,0.436,0.762,0.533
	c0.014,0.112,0.106,0.126,0.188,0.16c0.213,0.089,0.438,0.067,0.653,0.048c0.355-0.029,0.694-0.112,0.837-0.511
	c0.026-0.069,0.096-0.122,0.146-0.184c0.03,0.005,0.063,0.009,0.093,0.014c0.002,0.192,0.11,0.261,0.293,0.26
	c0.433-0.004,0.867-0.002,1.302-0.002c0.416,0,0.416-0.001,0.436-0.427c1.222,0.001,2.442,0.002,3.663,0.002
	c0.112,0.34,0.397,0.481,0.697,0.605c0.009,0.024,0.012,0.058,0.028,0.073c0.279,0.233,1.014,0.301,1.334,0.112
	c0.097-0.058,0.255-0.073,0.239-0.246c0.308-0.033,0.504-0.246,0.71-0.442c0.301,0.004,0.606-0.022,0.902,0.019
	c0.208,0.028,0.328-0.028,0.403-0.197c0.089-0.198,0.225-0.26,0.438-0.249c0.201,0.009,0.323-0.1,0.316-0.329
	c-0.006-0.217,0.004-0.426-0.306-0.406c-0.009-0.12-0.017-0.239-0.024-0.358c0.007-0.094,0.016-0.188,0.023-0.282
	c1.167,0.028,2.333,0.074,3.501,0.052l0,0c0.079,0.085,0.183,0.05,0.277,0.053c0.398,0.003,0.797,0.004,1.196,0.002
	c0.167,0,0.253,0.052,0.214,0.238c-0.203,0.96-0.448,1.913-0.875,2.798c-0.567,1.178-1.367,2.17-2.562,2.773
	c-0.61,0.31-1.27,0.465-1.952,0.535c-0.648,0.065-1.294,0.015-1.939,0.05c-1.243,0.067-2.477,0.212-3.683,0.536
	c-1.195,0.322-2.293,0.87-3.356,1.49c-1.179,0.685-2.409,1.228-3.774,1.383c-1.591,0.182-3.178,0.192-4.722-0.314
	c-0.89-0.294-1.673-0.767-2.394-1.378c-0.843-0.716-1.431-1.612-1.938-2.562c-0.537-1.005-0.886-2.09-1.12-3.208
	c-0.007-0.033-0.002-0.071-0.002-0.105c0.082-0.002,0.167-0.01,0.15-0.122C121,132.969,120.891,133.015,120.813,133.004z"/>
<path fill-rule="evenodd" clip-rule="evenodd" fill="#FAC837" d="M128.851,125.389c0.142-0.732,0.142-0.731,0.864-0.733
	c1.434-0.004,2.869,0.004,4.304-0.021c1.105-0.02,2.213-0.023,3.319-0.021c0.223,0,0.282,0.086,0.224,0.296
	c-0.139,0.499-0.134,0.5,0.384,0.498c0.045-0.001,0.089,0,0.133,0c0.097,0.361,0.203,0.447,0.574,0.448
	c0.608,0.002,1.218,0.002,1.829,0c0.351-0.002,0.473-0.107,0.539-0.447c0.276-0.003,0.551-0.006,0.826-0.009
	c0.046,0.153,0.169,0.152,0.297,0.153c0.414,0.003,0.418,0.006,0.383,0.396c-0.011,0.125,0.005,0.237,0.148,0.264
	c0.138,0.026,0.207-0.059,0.241-0.185c0.055-0.207,0.059-0.417,0.07-0.627c0.104-0.006,0.19,0.001,0.216,0.133
	c0.042,0.209,0.094,0.441,0.021,0.627c-0.096,0.241-0.354,0.074-0.538,0.104c-0.162,0.027-0.333,0.008-0.5,0.009
	c-0.046-0.178-0.188-0.157-0.322-0.157c-1.703,0.003-3.406,0.003-5.108,0.01c-0.199,0.001-0.277-0.024-0.193-0.249
	c0.143-0.375,0.005-0.558-0.395-0.555c-1.109,0.005-2.218,0.012-3.326,0.022C131.51,125.357,130.181,125.374,128.851,125.389z"/>
<path fill-rule="evenodd" clip-rule="evenodd" fill="#3F3D3B" d="M142.986,125.399c-0.012,0.21-0.016,0.421-0.07,0.627
	c-0.034,0.126-0.104,0.211-0.241,0.185c-0.144-0.027-0.159-0.139-0.148-0.264c0.035-0.39,0.031-0.393-0.383-0.396
	c-0.128-0.001-0.251,0-0.297-0.153c0.104-0.211,0.297-0.088,0.448-0.124c0.084-0.019,0.226,0.059,0.234-0.09
	c0.006-0.168-0.144-0.116-0.241-0.123c-0.088-0.007-0.177,0.002-0.266-0.003c-0.085-0.005-0.161-0.037-0.159-0.138
	c0.002-0.1,0.074-0.125,0.163-0.137c0.108-0.014,0.275,0.062,0.31-0.055c0.038-0.124-0.1-0.232-0.188-0.33
	c-0.354-0.403-0.805-0.595-1.34-0.596c-3.779-0.01-7.557,0.092-11.331,0.272c-0.107,0.005-0.211,0.018-0.318,0.023
	c-0.203,0.01-0.328,0.115-0.391,0.304c-0.058,0.177-0.116,0.354-0.171,0.532c-0.042,0.138-0.121,0.225-0.272,0.177
	c-0.139-0.044-0.158-0.159-0.12-0.282c0.072-0.229,0.136-0.461,0.228-0.68c0.131-0.31,0.395-0.449,0.719-0.465
	c3.846-0.188,7.693-0.276,11.543-0.294C141.796,123.382,142.862,124.101,142.986,125.399z"/>
<path fill-rule="evenodd" clip-rule="evenodd" fill="#FAC837" d="M143.997,130.875c-0.008,0.095-0.017,0.188-0.023,0.282
	c-0.108-0.113-0.203-0.266-0.392-0.124c-0.11-0.052-0.228-0.031-0.345-0.024c-0.38-0.179-0.78-0.037-1.17-0.073
	c-0.065-0.006-0.115,0.039-0.161,0.08c-0.201-0.003-0.4-0.007-0.6-0.011c-0.165-0.143-0.345-0.24-0.574-0.233
	c-0.275,0.01-0.551,0-0.823,0.003c-0.345,0.005-0.54,0.155-0.65,0.482c-0.056,0.157-0.11,0.313-0.166,0.472
	c-1.039-0.003-2.078-0.008-3.117-0.011c-0.096-0.001-0.195,0.022-0.279-0.043c-0.011-0.064,0-0.137-0.084-0.162
	c-0.026-0.029-0.053-0.059-0.081-0.088c0.169-0.007,0.224-0.104,0.224-0.262c-0.002-0.272,0.006-0.546,0.012-0.819
	c2.27,0.002,4.542,0.002,6.814,0.003c0.006,0.169,0.056,0.322,0.233,0.377c0.15,0.048,0.313,0.098,0.432-0.074
	c0.066,0.001,0.132,0.001,0.199,0.001c0.094,0.134,0.188,0.134,0.286,0.004c0.081,0,0.163,0,0.245,0
	C143.983,130.729,143.989,130.802,143.997,130.875z"/>
<path fill-rule="evenodd" clip-rule="evenodd" fill="#3F3D3B" d="M124.321,119.483c0.002-0.848,0.506-1.541,1.3-1.778
	c0.199-0.06,0.231-0.137,0.199-0.334c-0.187-1.174,0.441-2.3,1.526-2.767c1.071-0.46,2.311-0.147,3.041,0.785
	c0.121,0.156,0.206,0.17,0.384,0.101c0.951-0.376,1.997,0.281,2.11,1.311c0.015,0.138,0.03,0.291-0.155,0.307
	c-0.17,0.015-0.178-0.127-0.195-0.257c-0.11-0.785-0.81-1.261-1.534-1.067c-0.241,0.063-0.271,0.2-0.197,0.388
	c0.041,0.109,0.073,0.216,0.093,0.33c0.022,0.127,0.046,0.267-0.123,0.299c-0.172,0.032-0.195-0.103-0.224-0.231
	c-0.203-0.901-0.739-1.5-1.637-1.743c-1.546-0.418-3.041,0.981-2.737,2.547c0.031,0.159,0.08,0.25,0.265,0.262
	c0.146,0.01,0.291,0.071,0.434,0.117c0.129,0.042,0.238,0.12,0.173,0.271c-0.059,0.141-0.18,0.107-0.296,0.063
	c-0.57-0.216-1.104-0.15-1.565,0.258c-0.441,0.392-0.596,0.891-0.467,1.469c0.031,0.137,0.077,0.283-0.1,0.329
	c-0.18,0.047-0.208-0.112-0.247-0.242C124.324,119.755,124.324,119.604,124.321,119.483z"/>
<path fill-rule="evenodd" clip-rule="evenodd" fill="#EDAB3D" d="M132.589,128.312c0.247,0.001,0.496,0.001,0.743,0.002
	c0,0.483,0,0.966,0.001,1.45c-0.083,0-0.166-0.002-0.25-0.002c-0.008-0.122-0.078-0.157-0.195-0.157
	c-1.661-0.004-3.323-0.007-4.985-0.017c-0.125-0.002-0.177,0.046-0.199,0.154c-0.133-0.103-0.088-0.25-0.067-0.366
	c0.057-0.329,0.144-0.652,0.217-0.978c0.03-0.134,0.135-0.119,0.23-0.117c0.493,0.006,0.986,0.015,1.479,0.021
	c0.101,0.561,0.138,0.593,0.725,0.594c0.56,0.003,1.118,0,1.675,0C132.436,128.896,132.55,128.789,132.589,128.312z"/>
<path fill-rule="evenodd" clip-rule="evenodd" fill="#EDAB3D" d="M143.605,129.339c0.098,0.141,0.264,0.251,0.22,0.461
	c-0.048,0.005-0.094,0.009-0.143,0.014c-0.064-0.128-0.154-0.126-0.26-0.05c-0.079,0.003-0.159,0.009-0.239,0.013
	c-0.176-0.137-0.341-0.068-0.503,0.026c-0.146-0.061-0.299-0.013-0.446-0.033c-0.172-0.194-0.666-0.194-0.83,0
	c-0.148,0-0.295,0-0.442,0c-0.028-0.121-0.121-0.133-0.225-0.133c-0.387,0.001-0.771,0.003-1.157-0.003
	c-0.111-0.003-0.183,0.039-0.234,0.13c-0.104,0.022-0.206,0.021-0.308,0c-0.055-0.091-0.131-0.13-0.241-0.13
	c-0.866,0.004-1.733,0.003-2.601,0.002c-0.102,0-0.199,0.002-0.23,0.126c-0.068,0-0.137,0-0.205,0c-0.032-0.479-0.032-0.96,0-1.44
	c0.094-0.001,0.186-0.001,0.277-0.002c0.044,0.47,0.16,0.577,0.636,0.577c0.344,0,0.687,0,1.031,0c0.505,0,0.603-0.085,0.663-0.571
	c0.073-0.002,0.149-0.004,0.224-0.006c0.002,0.096,0.008,0.191,0.008,0.288c-0.001,0.12,0.007,0.232,0.158,0.257
	c0.036,0.196,0.173,0.246,0.35,0.245c0.466-0.005,0.932-0.005,1.397-0.007c0.026,0.199,0.189,0.15,0.31,0.16
	c0.457,0.039,0.921,0.059,1.351,0.247c0.121,0.055,0.223,0.091,0.282-0.045c0.064-0.146-0.083-0.17-0.165-0.215
	c-0.287-0.157-0.616-0.152-0.924-0.229c0.05-0.1,0.1-0.198,0.149-0.297c0.416,0.06,0.797,0.234,1.194,0.353
	c0.188,0.056,0.366,0.126,0.492,0.296C143.344,129.572,143.484,129.538,143.605,129.339z"/>
<path fill-rule="evenodd" clip-rule="evenodd" fill="#FAC837" d="M127.738,130.303c0.715,0,1.431-0.004,2.146-0.003
	c1.151,0.001,2.3,0.005,3.449,0.01c0.003,0.287,0.012,0.574,0.01,0.862c0,0.128,0.032,0.224,0.169,0.253
	c0,0.072-0.026,0.148,0.022,0.215c0.001,0.018-0.006,0.033-0.02,0.044c-0.052,0.053-0.118,0.031-0.18,0.037
	c-0.09-0.106-0.148-0.237-0.266-0.319c-0.11-0.412-0.327-0.695-0.806-0.68c-0.281,0.008-0.563-0.003-0.846,0.005
	c-0.32,0.01-0.521,0.161-0.631,0.467c-0.063,0.176-0.117,0.352-0.175,0.527c-0.656-0.056-1.313-0.046-1.969-0.016
	c-0.02-0.076-0.027-0.156-0.091-0.214C128.185,131.161,127.988,130.715,127.738,130.303z"/>
<path fill-rule="evenodd" clip-rule="evenodd" fill="#3F3D3B" d="M127.418,130.66c0.032,0.248-0.082,0.336-0.326,0.319
	c-0.142-0.011-0.278-0.036-0.413-0.068c-0.193-0.114-0.312-0.281-0.378-0.493c-0.079-0.254-0.173-0.503-0.252-0.757
	c-0.096-0.313-0.088-0.626,0.013-0.941c0.579-1.805,1.151-3.613,1.731-5.417c0.184-0.571,0.693-0.864,1.24-0.732
	c0.379,0.091,0.591,0.469,0.459,0.819c-0.037,0.098-0.086,0.179-0.213,0.148c-0.115-0.029-0.112-0.118-0.107-0.21
	c0.025-0.38-0.146-0.527-0.523-0.448c-0.266,0.056-0.444,0.218-0.534,0.469c-0.083,0.233-0.148,0.473-0.229,0.707
	c-0.039,0.108-0.034,0.166,0.097,0.171c0.103,0.005,0.172,0.063,0.159,0.171c-0.015,0.121-0.107,0.143-0.215,0.147
	c-0.161,0.008-0.433,0.45-0.374,0.597c0.025,0.063,0.09,0.042,0.137,0.059c0.084,0.031,0.132,0.088,0.116,0.183
	c-0.013,0.083-0.071,0.117-0.147,0.128c-0.084,0.013-0.202-0.039-0.245,0.058c-0.07,0.16-0.115,0.333-0.166,0.502
	c-0.021,0.071,0.031,0.093,0.09,0.097c0.106,0.006,0.17,0.062,0.162,0.168c-0.011,0.123-0.11,0.144-0.213,0.156
	c-0.151,0.018-0.404,0.444-0.35,0.587c0.024,0.065,0.085,0.048,0.134,0.059c0.077,0.019,0.128,0.069,0.126,0.149
	c-0.002,0.091-0.061,0.139-0.147,0.163c-0.088,0.023-0.215-0.049-0.262,0.07c-0.066,0.164-0.114,0.335-0.158,0.507
	c-0.021,0.08,0.056,0.07,0.105,0.076c0.106,0.016,0.158,0.08,0.147,0.184c-0.009,0.093-0.077,0.128-0.167,0.139
	c-0.083,0.01-0.198-0.035-0.236,0.071c-0.063,0.174-0.115,0.354-0.147,0.535c-0.016,0.083,0.081,0.076,0.139,0.076
	c0.104,0.002,0.178,0.045,0.182,0.151c0.003,0.104-0.063,0.168-0.167,0.165c-0.151-0.005-0.165,0.069-0.112,0.179
	c0.091,0.191,0.045,0.51,0.415,0.458c0.079-0.011,0.125,0.067,0.134,0.141c0.007,0.064-0.027,0.124-0.088,0.152
	c-0.054,0.023-0.114,0.034-0.174,0.052c0.157,0.257,0.349,0.309,0.708,0.203l-0.003-0.004c-0.036,0.073,0.002,0.073,0.058,0.058
	L127.418,130.66z"/>
<path fill-rule="evenodd" clip-rule="evenodd" fill="#3F3D3B" d="M128.851,125.389c1.33-0.015,2.659-0.031,3.989-0.044
	c1.108-0.01,2.217-0.017,3.326-0.022c0.399-0.002,0.537,0.181,0.395,0.555c-0.084,0.225-0.006,0.25,0.193,0.249
	c1.702-0.007,3.405-0.007,5.108-0.01c0.134,0,0.276-0.021,0.322,0.157c-0.044,0.161-0.172,0.154-0.3,0.154
	c-0.77,0-1.541,0-2.313,0.001c-0.967,0.003-1.934,0.008-2.9,0.01c-0.439,0.001-0.571-0.163-0.431-0.574
	c0.078-0.232-0.037-0.227-0.197-0.224c-2.278,0.027-4.558,0.051-6.837,0.076c-0.079,0.001-0.158,0.003-0.239,0.002
	c-0.086-0.002-0.182,0.016-0.227-0.092C128.69,125.506,128.766,125.444,128.851,125.389z"/>
<path fill-rule="evenodd" clip-rule="evenodd" fill="#3F3D3B" d="M145.191,120.641c-0.01-0.526-0.245-0.917-0.719-1.15
	c-0.434-0.215-0.97-0.128-1.339,0.202c-0.053,0.047-0.098,0.103-0.154,0.145c-0.073,0.053-0.152,0.048-0.22-0.014
	c-0.068-0.063-0.076-0.147-0.026-0.217c0.056-0.078,0.12-0.162,0.202-0.208c0.209-0.12,0.176-0.26,0.083-0.438
	c-0.325-0.624-1.07-0.923-1.748-0.693c-0.65,0.222-1.043,0.886-0.931,1.577c0.015,0.088,0.027,0.175,0.044,0.262
	c0.02,0.103-0.018,0.177-0.117,0.207c-0.104,0.031-0.168-0.024-0.215-0.111c-0.187-0.345-0.312-0.414-0.644-0.349
	c-0.335,0.066-0.613,0.357-0.65,0.688c-0.008,0.07-0.006,0.142-0.003,0.212c0.007,0.12-0.024,0.22-0.159,0.232
	c-0.154,0.013-0.188-0.097-0.201-0.224c-0.081-0.744,0.58-1.375,1.346-1.264c0.182,0.026,0.221-0.021,0.247-0.186
	c0.134-0.777,0.738-1.354,1.518-1.467c0.738-0.107,1.494,0.272,1.821,0.968c0.113,0.236,0.226,0.254,0.451,0.228
	c0.966-0.118,1.804,0.649,1.765,1.603c-0.005,0.137,0.032,0.344-0.201,0.329C145.125,120.958,145.19,120.777,145.191,120.641z"/>
<path fill-rule="evenodd" clip-rule="evenodd" fill="#3F3D3B" d="M133.512,131.425c-0.137-0.029-0.169-0.125-0.169-0.253
	c0.002-0.288-0.007-0.575-0.01-0.862c0-0.182,0-0.364,0-0.546c-0.001-0.483-0.001-0.967-0.001-1.45
	c0.004-0.468,0.009-0.937,0.013-1.406c0.002-0.419,0.137-0.554,0.557-0.555c0.451,0,0.902-0.002,1.353,0.001
	c0.342,0.002,0.484,0.142,0.492,0.483c0.009,0.495,0.011,0.989,0.015,1.484c-0.032,0.48-0.032,0.961,0,1.44
	c-0.023,0.194-0.027,0.389,0.006,0.582c-0.006,0.273-0.014,0.547-0.012,0.819c0,0.158-0.055,0.255-0.223,0.263
	c-0.151-0.078-0.312-0.03-0.467-0.027C134.548,131.408,134.028,131.356,133.512,131.425z M135.41,130.339
	c0.022-0.194,0.026-0.387,0-0.579c0-0.479,0-0.959,0-1.439c0.007-0.479,0.008-0.958,0.018-1.437
	c0.003-0.163-0.065-0.214-0.226-0.212c-0.442,0.008-0.887,0.006-1.329,0c-0.147-0.001-0.211,0.057-0.209,0.203
	c0.007,0.479,0.01,0.958,0.015,1.436c-0.027,0.484-0.024,0.969,0,1.454c-0.017,0.188-0.024,0.377,0.005,0.565
	c-0.044,0.211-0.007,0.425-0.02,0.637c-0.007,0.134,0.065,0.162,0.182,0.161c0.461-0.005,0.923-0.005,1.383,0.001
	c0.135,0.001,0.198-0.036,0.192-0.178C135.412,130.745,135.413,130.541,135.41,130.339z"/>
<path fill-rule="evenodd" clip-rule="evenodd" fill="#3F3D3B" d="M132.589,128.312c-0.039,0.477-0.153,0.584-0.627,0.584
	c-0.557,0-1.115,0.003-1.675,0c-0.587-0.001-0.624-0.034-0.725-0.594c0.045-0.282,0.013-0.564,0.021-0.847
	c0.011-0.339,0.147-0.48,0.489-0.481c0.672-0.002,1.346-0.002,2.018,0.001c0.336,0.001,0.479,0.148,0.485,0.487
	C132.58,127.746,132.584,128.029,132.589,128.312z M132.234,127.462c0.04-0.117-0.017-0.167-0.127-0.169
	c-0.254-0.002-0.507,0-0.761-0.002c-0.13-0.001-0.145,0.068-0.117,0.171c-0.006,0.21-0.006,0.422-0.02,0.632
	c-0.006,0.112,0.056,0.286-0.134,0.285c-0.185-0.002-0.13-0.173-0.139-0.287c-0.006-0.106,0.011-0.213-0.004-0.317
	c-0.021-0.156,0.066-0.325-0.052-0.47c-0.266-0.004-0.529-0.007-0.796-0.015c-0.117-0.003-0.179,0.037-0.178,0.167
	c0.004,0.319,0,0.637,0.002,0.957c0,0.076,0.018,0.142,0.113,0.145c0.68,0.004,1.358,0.008,2.036,0.015
	c0.135,0.001,0.197-0.056,0.195-0.188C132.248,128.079,132.242,127.77,132.234,127.462z"/>
<path fill-rule="evenodd" clip-rule="evenodd" fill="#3F3D3B" d="M127.738,130.303c0.25,0.412,0.447,0.858,0.814,1.188
	c0.064,0.058,0.071,0.138,0.091,0.214c-0.053,0.018-0.063,0.061-0.066,0.108c-0.27,0.102-0.415-0.085-0.543-0.259
	c-0.162-0.219-0.292-0.459-0.442-0.688c-0.049-0.073-0.057-0.188-0.173-0.207l0.004,0.004c0.003-0.043,0.01-0.088-0.058-0.058
	l0.003,0.004c0.052-0.091-0.031-0.142-0.065-0.203c-0.345-0.638-0.437-1.31-0.229-2.005c0.223-0.748,0.467-1.487,0.702-2.231
	c0.048-0.151,0.103-0.312,0.306-0.236c0.186,0.069,0.127,0.225,0.083,0.363c-0.235,0.744-0.48,1.484-0.703,2.232
	C127.275,129.159,127.364,129.757,127.738,130.303z"/>
<path fill-rule="evenodd" clip-rule="evenodd" fill="#FAC837" d="M125.967,113.612c0.362-0.006,0.708,0.057,1.034,0.216
	c0.125,0.061,0.299,0.106,0.215,0.297c-0.081,0.185-0.226,0.105-0.362,0.049c-0.845-0.349-1.63-0.245-2.34,0.335
	c-0.875,0.712-1.046,2.03-0.39,2.947c0.087,0.122,0.192,0.253,0.033,0.366c-0.17,0.121-0.275-0.031-0.358-0.16
	c-0.55-0.862-0.623-1.771-0.146-2.672C124.133,114.081,124.923,113.613,125.967,113.612z"/>
<path fill-rule="evenodd" clip-rule="evenodd" fill="#3F3D3B" d="M138.758,128.864c-0.151-0.025-0.159-0.138-0.158-0.257
	c0-0.097-0.006-0.192-0.008-0.288c0.002-0.354,0.014-0.709,0.004-1.064c-0.003-0.194,0.063-0.268,0.262-0.265
	c0.648,0.006,1.295-0.001,1.942-0.004c0.528-0.002,0.578-0.006,0.615,0.522c0.043,0.625,0.318,0.948,0.935,1.035
	c0.251,0.034,0.491,0.148,0.729,0.243c0.257,0.1,0.461,0.263,0.526,0.553c-0.121,0.199-0.262,0.233-0.411,0.034
	c-0.126-0.17-0.305-0.24-0.492-0.296c-0.397-0.119-0.778-0.293-1.194-0.353c-0.242-0.031-0.318-0.194-0.349-0.412
	c-0.041-0.289-0.106-0.574-0.148-0.863c-0.02-0.137-0.065-0.199-0.216-0.196c-0.574,0.009-1.15,0.014-1.726,0.006
	c-0.175-0.002-0.205,0.071-0.203,0.222c0.009,0.372,0.005,0.743,0.005,1.115C138.871,128.702,138.889,128.813,138.758,128.864z"/>
<path fill-rule="evenodd" clip-rule="evenodd" fill="#3F3D3B" d="M138.368,128.325c-0.061,0.486-0.158,0.571-0.663,0.571
	c-0.345,0-0.688,0-1.031,0c-0.476,0-0.592-0.107-0.636-0.577c0.005-0.283,0.006-0.566,0.013-0.85
	c0.007-0.32,0.158-0.473,0.476-0.476c0.453-0.004,0.905-0.003,1.357,0c0.307,0.003,0.458,0.149,0.469,0.455
	C138.363,127.739,138.361,128.032,138.368,128.325z M137.053,127.465c0.003-0.059,0.034-0.142-0.057-0.147
	c-0.174-0.01-0.351-0.008-0.526,0.002c-0.091,0.005-0.1,0.086-0.1,0.16c0,0.308,0,0.617,0.002,0.926c0,0.1,0.026,0.178,0.152,0.155
	c0.438,0.004,0.877,0.009,1.315,0.015c0.13,0.001,0.196-0.055,0.193-0.188c-0.005-0.308-0.01-0.615-0.013-0.921
	c0.022-0.168-0.104-0.169-0.202-0.149c-0.159,0.031-0.354-0.107-0.478,0.096c-0.007,0.012,0.005,0.033,0.007,0.051
	c-0.004,0.245-0.008,0.49-0.011,0.735c0,0.097-0.018,0.186-0.135,0.186c-0.115,0-0.138-0.085-0.139-0.183
	C137.062,127.956,137.057,127.71,137.053,127.465z"/>
<path fill-rule="evenodd" clip-rule="evenodd" fill="#3F3D3B" d="M141.021,125.407c-0.066,0.34-0.188,0.445-0.539,0.447
	c-0.611,0.002-1.221,0.002-1.829,0c-0.371-0.001-0.478-0.086-0.574-0.448c0.063-0.193,0.13-0.385,0.186-0.58
	c0.072-0.238,0.23-0.34,0.473-0.34c0.601,0.001,1.203-0.006,1.803-0.003c0.321,0.001,0.464,0.152,0.473,0.474
	C141.014,125.106,141.019,125.257,141.021,125.407z M139.418,124.917c0.059-0.086,0.012-0.108-0.066-0.108
	c-0.203,0-0.405-0.008-0.606,0.001c-0.149,0.008-0.382,0.551-0.293,0.675c0.036,0.047,0.094,0.042,0.146,0.026
	c0.628,0.081,0.647,0.069,0.809-0.517C139.415,124.969,139.415,124.943,139.418,124.917z M139.73,124.96
	c-0.251,0.574-0.251,0.574,0.365,0.573c0.025,0,0.052,0,0.079,0c0.556-0.002,0.556-0.002,0.501-0.572
	c0.031-0.121-0.032-0.159-0.139-0.16c-0.219,0-0.437,0.003-0.654-0.001C139.766,124.798,139.725,124.854,139.73,124.96z"/>
<path fill-rule="evenodd" clip-rule="evenodd" fill="#3F3D3B" d="M123.388,130.27c0.7,0,1.399,0,2.098,0.001
	c0.104,0,0.235-0.059,0.237,0.145c0.001,0.179-0.101,0.172-0.221,0.176c-1.435,0.054-2.869,0.109-4.303,0.164
	c-0.104,0.003-0.209,0.032-0.221-0.14c-0.011-0.175,0.078-0.183,0.206-0.187c0.735-0.028,1.47-0.061,2.205-0.092
	C123.388,130.316,123.388,130.292,123.388,130.27z"/>
<path fill-rule="evenodd" clip-rule="evenodd" fill="#3F3D3B" d="M127.703,129.742c0.022-0.108,0.074-0.156,0.199-0.154
	c1.662,0.01,3.324,0.013,4.985,0.017c0.117,0,0.188,0.035,0.195,0.157c-0.003,0.119-0.074,0.133-0.176,0.132
	c-1.671-0.013-3.34-0.021-5.009-0.029C127.801,129.863,127.72,129.858,127.703,129.742z"/>
<path fill-rule="evenodd" clip-rule="evenodd" fill="#3F3D3B" d="M146.189,130.504c-0.523,0-1.047,0-1.569,0
	c-0.104-0.002-0.215,0.024-0.21-0.151c0.002-0.173,0.096-0.175,0.223-0.171c1.036,0.032,2.073,0.063,3.11,0.092
	c0.104,0.004,0.182,0.004,0.181,0.153c-0.002,0.151-0.065,0.17-0.194,0.169c-0.514-0.007-1.027-0.003-1.54-0.003
	C146.189,130.563,146.189,130.534,146.189,130.504z"/>
<path fill-rule="evenodd" clip-rule="evenodd" fill="#FAC837" d="M122.751,113.18c0.039,0.02,0.101,0.036,0.146,0.074
	c0.213,0.185,0.421,0.374,0.629,0.563c0.096,0.086,0.142,0.185,0.038,0.295c-0.105,0.111-0.199,0.067-0.296-0.021
	c-0.208-0.19-0.419-0.376-0.629-0.565c-0.072-0.063-0.109-0.139-0.074-0.235C122.591,113.215,122.656,113.19,122.751,113.18z"/>
<path fill-rule="evenodd" clip-rule="evenodd" fill="#FAC837" d="M127.668,112.323c-0.095,0.24-0.208,0.546-0.339,0.845
	c-0.042,0.096-0.144,0.14-0.248,0.085c-0.1-0.053-0.123-0.148-0.083-0.251c0.107-0.282,0.215-0.563,0.326-0.842
	c0.042-0.103,0.124-0.151,0.236-0.115C127.659,112.077,127.689,112.156,127.668,112.323z"/>
<path fill-rule="evenodd" clip-rule="evenodd" fill="#FAC837" d="M122.95,117.614c0.125,0.006,0.189,0.027,0.223,0.103
	c0.036,0.083,0.03,0.172-0.045,0.214c-0.299,0.17-0.602,0.332-0.908,0.489c-0.071,0.036-0.139-0.014-0.18-0.076
	c-0.041-0.062-0.067-0.15-0.01-0.197C122.316,117.904,122.67,117.782,122.95,117.614z"/>
<path fill-rule="evenodd" clip-rule="evenodd" fill="#FAC837" d="M125.346,112.909c0,0.117-0.044,0.194-0.16,0.213
	c-0.113,0.018-0.197-0.037-0.222-0.142c-0.073-0.299-0.138-0.601-0.197-0.902c-0.017-0.088-0.005-0.181,0.114-0.203
	c0.108-0.02,0.206,0.002,0.236,0.114C125.201,112.293,125.271,112.602,125.346,112.909z"/>
<path fill-rule="evenodd" clip-rule="evenodd" fill="#3F3D3B" d="M141.96,127.328c-0.062,0-0.125,0.008-0.186-0.002
	c-0.117-0.021-0.19-0.092-0.182-0.219c0.01-0.114,0.091-0.185,0.195-0.174c0.197,0.021,0.311-0.061,0.394-0.231
	c0.058-0.12,0.17-0.158,0.289-0.089c0.114,0.065,0.104,0.174,0.064,0.28C142.418,127.206,142.247,127.336,141.96,127.328z"/>
<path fill-rule="evenodd" clip-rule="evenodd" fill="#FAC837" d="M121.851,115.544c0.248,0.026,0.495,0.052,0.742,0.078
	c0.137,0.015,0.206,0.083,0.196,0.229c-0.011,0.157-0.125,0.159-0.23,0.15c-0.247-0.021-0.494-0.052-0.74-0.085
	c-0.134-0.019-0.316,0.002-0.298-0.212C121.539,115.488,121.719,115.554,121.851,115.544z"/>
<path fill-rule="evenodd" clip-rule="evenodd" fill="#FAC837" d="M129.457,113.646c0.098,0.016,0.178,0.032,0.215,0.115
	c0.03,0.07,0.026,0.151-0.035,0.195c-0.14,0.105-0.286,0.205-0.438,0.29c-0.067,0.037-0.156,0.017-0.22-0.045
	c-0.065-0.063-0.048-0.134-0.008-0.193C129.094,113.827,129.299,113.758,129.457,113.646z"/>
<path fill-rule="evenodd" clip-rule="evenodd" fill="#A9BBD2" d="M143.683,129.813c0.049-0.005,0.095-0.009,0.143-0.014
	c0.125,0.035,0.155,0.126,0.153,0.245c-0.003,0.204-0.002,0.407-0.002,0.609c-0.082,0-0.164,0-0.245,0
	C143.719,130.375,143.744,130.092,143.683,129.813z"/>
<path fill-rule="evenodd" clip-rule="evenodd" fill="#FAC837" d="M121.736,112.662c-0.002-0.139,0.07-0.211,0.191-0.216
	c0.117-0.005,0.177,0.083,0.179,0.189c0.001,0.116-0.05,0.2-0.189,0.204C121.783,112.841,121.762,112.748,121.736,112.662z"/>
<path fill-rule="evenodd" clip-rule="evenodd" fill="#FAC837" d="M123.823,118.634c-0.013,0.093-0.063,0.17-0.183,0.17
	c-0.134,0-0.189-0.084-0.187-0.208c0.002-0.126,0.083-0.164,0.197-0.162C123.771,118.438,123.827,118.5,123.823,118.634z"/>
<path fill-rule="evenodd" clip-rule="evenodd" fill="#FAC837" d="M126.176,112.676c0.104,0.015,0.193,0.061,0.188,0.176
	c-0.004,0.11-0.056,0.211-0.19,0.202c-0.117-0.009-0.205-0.076-0.192-0.203C125.992,112.75,126.058,112.676,126.176,112.676z"/>
<path fill-rule="evenodd" clip-rule="evenodd" fill="#FAC837" d="M128.09,111.202c-0.012,0.12-0.069,0.2-0.199,0.193
	c-0.115-0.005-0.176-0.078-0.171-0.189c0.005-0.116,0.06-0.202,0.196-0.19C128.027,111.026,128.093,111.083,128.09,111.202z"/>
<path fill-rule="evenodd" clip-rule="evenodd" fill="#FAC837" d="M122.864,116.806c-0.019,0.134-0.067,0.209-0.187,0.21
	c-0.119,0-0.213-0.056-0.215-0.178c-0.001-0.104,0.076-0.185,0.183-0.187C122.756,116.649,122.838,116.713,122.864,116.806z"/>
<path fill-rule="evenodd" clip-rule="evenodd" fill="#FAC837" d="M120.605,115.782c-0.111-0.008-0.189-0.067-0.184-0.198
	c0.004-0.114,0.073-0.178,0.189-0.174c0.117,0.002,0.174,0.072,0.179,0.186C120.795,115.714,120.739,115.778,120.605,115.782z"/>
<path fill-rule="evenodd" clip-rule="evenodd" fill="#FAC837" d="M121.417,118.77c-0.02,0.113-0.09,0.172-0.198,0.169
	c-0.108-0.002-0.192-0.067-0.188-0.175c0.003-0.116,0.079-0.193,0.208-0.179C121.348,118.597,121.413,118.657,121.417,118.77z"/>
<path fill-rule="evenodd" clip-rule="evenodd" fill="#FAC837" d="M123.08,114.832c-0.02,0.098-0.05,0.185-0.177,0.19
	c-0.119,0.005-0.187-0.056-0.195-0.166c-0.008-0.111,0.048-0.19,0.168-0.19C122.982,114.666,123.064,114.71,123.08,114.832z"/>
<path fill-rule="evenodd" clip-rule="evenodd" fill="#FAC837" d="M124.227,113.153c0.103,0.02,0.176,0.075,0.179,0.188
	c0.004,0.119-0.081,0.176-0.183,0.18c-0.11,0.004-0.176-0.071-0.179-0.182C124.042,113.222,124.115,113.167,124.227,113.153z"/>
<path fill-rule="evenodd" clip-rule="evenodd" fill="#FAC837" d="M128.236,113.598c-0.021,0.111-0.072,0.178-0.193,0.174
	c-0.117-0.003-0.185-0.06-0.182-0.176c0.003-0.113,0.068-0.181,0.186-0.174C128.156,113.428,128.226,113.486,128.236,113.598z"/>
<path fill-rule="evenodd" clip-rule="evenodd" fill="#FAC837" d="M130.604,113.217c-0.008,0.106-0.053,0.18-0.173,0.185
	c-0.113,0.002-0.192-0.052-0.193-0.164c0-0.101,0.047-0.19,0.17-0.191C130.518,113.047,130.589,113.099,130.604,113.217z"/>
<path fill-rule="evenodd" clip-rule="evenodd" fill="#D4DEEC" d="M99.879,129.101c0.048,0.188,0.177,0.331,0.016,0.468
	c-0.065,0.055-0.162-0.011-0.203-0.071C99.562,129.304,99.761,129.246,99.879,129.101z"/>
<path fill-rule="evenodd" clip-rule="evenodd" fill="#D4DEEC" d="M100.262,147.354c-0.038-0.072-0.167-0.051-0.169-0.146
	c-0.003-0.103,0.095-0.116,0.171-0.13c0.088-0.016,0.136,0.03,0.127,0.121C100.382,147.276,100.34,147.328,100.262,147.354z"/>
<path fill-rule="evenodd" clip-rule="evenodd" fill="#D4DEEC" d="M149.303,130.047c-0.059,0.009-0.093-0.004-0.091-0.046
	c0.007-0.145,0.149-0.155,0.234-0.222c0.032-0.026,0.104,0.014,0.098,0.054C149.518,129.968,149.339,129.938,149.303,130.047z"/>
<path fill-rule="evenodd" clip-rule="evenodd" fill="#D4DEEC" d="M109.843,136.685c0.083,0.003,0.16,0.018,0.179,0.113
	c0.013,0.065-0.029,0.108-0.089,0.088c-0.075-0.026-0.19-0.011-0.203-0.124C109.723,136.698,109.788,136.688,109.843,136.685z"/>
<path fill-rule="evenodd" clip-rule="evenodd" fill="#D4DEEC" d="M101.404,125.083c0,0.07-0.033,0.132-0.117,0.142
	c-0.068,0.007-0.13-0.025-0.124-0.102c0.008-0.077,0.069-0.124,0.142-0.141C101.373,124.966,101.4,125.01,101.404,125.083z"/>
<path fill-rule="evenodd" clip-rule="evenodd" fill="#D4DEEC" d="M148.588,135.589c0.061-0.018,0.119-0.031,0.176-0.05
	c0.061-0.02,0.119-0.048,0.178-0.007c0.013,0.009,0.021,0.05,0.011,0.066c-0.039,0.074-0.117,0.07-0.187,0.064
	C148.705,135.658,148.618,135.702,148.588,135.589z"/>
<path fill-rule="evenodd" clip-rule="evenodd" fill="#D4DEEC" d="M149.962,123.085c-0.078-0.161-0.146-0.249-0.098-0.366
	c0.004-0.012,0.052-0.023,0.063-0.015C150.038,122.79,150.001,122.899,149.962,123.085z"/>
<path fill-rule="evenodd" clip-rule="evenodd" fill="#A9BBD2" d="M120.813,133.004c0.078,0.011,0.188-0.035,0.207,0.092
	c0.017,0.112-0.068,0.12-0.15,0.122C120.798,133.16,120.813,133.081,120.813,133.004z"/>
<path fill-rule="evenodd" clip-rule="evenodd" fill="#D4DEEC" d="M147.498,130.927c0.023-0.039,0.057-0.056,0.102-0.041
	c0.007,0.002,0.009,0.014,0.013,0.021C147.573,130.914,147.536,130.921,147.498,130.927L147.498,130.927z"/>
<path fill-rule="evenodd" clip-rule="evenodd" fill="#A9BBD2" d="M141.534,133.121c0.016,0.173-0.143,0.188-0.239,0.246
	c-0.32,0.188-1.055,0.121-1.334-0.112c-0.017-0.016-0.02-0.049-0.028-0.073c0.069,0.01,0.139,0.021,0.208,0.029
	c0.412,0.044,0.798-0.011,1.124-0.295c0.099-0.083,0.201-0.187,0.09-0.312c-0.104-0.115-0.204-0.026-0.291,0.062
	c-0.366,0.369-1.293,0.328-1.56-0.216c0.019-0.199,0-0.398,0.039-0.6c0.073-0.371,0.359-0.56,0.603-0.79
	c0.194-0.003,0.388-0.006,0.582-0.011c0.227-0.006,0.364,0.103,0.428,0.319c0.047,0.16,0.105,0.318,0.162,0.477
	c0.028,0.076,0.087,0.115,0.168,0.088c0.079-0.027,0.103-0.09,0.085-0.17c-0.029-0.119-0.063-0.238-0.092-0.357
	c0.726-0.002,1.45-0.004,2.175-0.005c0.047,0.206-0.091,0.213-0.233,0.215c-0.423,0.002-0.846,0.009-1.269,0.011
	c-0.221,0-0.294,0.091-0.19,0.296c-0.002,0.045-0.004,0.089-0.008,0.132c-0.133,0.004-0.267,0.004-0.399,0.013
	c-0.095,0.006-0.176,0.05-0.174,0.162c0.002,0.115,0.089,0.143,0.184,0.146c0.147,0.004,0.294,0.001,0.476,0.001
	c-0.117,0.212-0.277,0.313-0.449,0.397C141.404,132.864,141.385,132.979,141.534,133.121z M140.061,131.59
	c-0.089,0.088-0.141,0.188-0.115,0.315c-0.156,0.081-0.145,0.196-0.064,0.325c0.138,0.22,0.349,0.27,0.587,0.25
	c0.046,0.163,0.163,0.104,0.251,0.069c0.265-0.104,0.341-0.318,0.23-0.61c-0.065-0.433-0.304-0.636-0.677-0.583
	C140.13,131.376,140.042,131.435,140.061,131.59z"/>
<path fill-rule="evenodd" clip-rule="evenodd" fill="#FDFDF7" d="M140.146,131.061c-0.243,0.23-0.529,0.419-0.603,0.79
	c-0.039,0.201-0.021,0.4-0.039,0.6c-0.124-0.031-0.222-0.007-0.269,0.126c-1.221,0-2.441-0.001-3.663-0.002
	c-0.001-0.05-0.002-0.1-0.003-0.151c0.257,0,0.513-0.004,0.77-0.004c0.118,0.001,0.22-0.038,0.227-0.168
	c0.007-0.146-0.103-0.192-0.23-0.196c-0.22-0.003-0.44,0-0.661,0c0.007-0.126,0.014-0.253,0.022-0.38
	c0.084,0.065,0.184,0.042,0.279,0.043c1.039,0.003,2.078,0.008,3.117,0.011c-0.014,0.245-0.12,0.343-0.388,0.326
	c-0.478-0.027-0.958-0.006-1.436-0.007c-0.141,0-0.297,0.004-0.306,0.178c-0.009,0.202,0.162,0.193,0.308,0.193
	c0.585,0.001,1.17-0.001,1.756,0.007c0.136,0.001,0.186-0.066,0.219-0.181c0.071-0.239,0.143-0.475,0.221-0.711
	C139.619,131.063,139.652,131.042,140.146,131.061z"/>
<path fill-rule="evenodd" clip-rule="evenodd" fill="#3F3D3B" d="M130.612,131.721c0.058-0.176,0.111-0.352,0.175-0.527
	c0.109-0.306,0.311-0.457,0.631-0.467c0.283-0.008,0.564,0.003,0.846-0.005c0.479-0.016,0.695,0.268,0.806,0.68
	c0.078,0.272,0.13,0.553,0.267,0.804c-0.003,0.053-0.006,0.106-0.011,0.159c-0.079,0.056-0.164,0.08-0.262,0.052l0.004,0.003
	c-0.095-0.276-0.182-0.554-0.287-0.826c-0.062-0.158-0.052-0.355-0.216-0.471c-0.332-0.146-0.685-0.032-1.024-0.074
	c-0.245-0.029-0.401,0.074-0.471,0.323c-0.082,0.301-0.188,0.592-0.281,0.889c-0.028,0.088-0.063,0.188-0.172,0.166
	c-0.286-0.056-0.567,0.074-0.852,0.003c-0.313-0.143-0.671-0.199-0.939-0.442c0.035-0.271,0.119-0.322,0.359-0.225
	c0.333,0.134,0.667,0.24,1.031,0.303C130.589,132.128,130.561,131.923,130.612,131.721z"/>
<path fill-rule="evenodd" clip-rule="evenodd" fill="#3F3D3B" d="M141.961,131.923c-0.104-0.205-0.03-0.296,0.19-0.296
	c0.423-0.002,0.846-0.009,1.269-0.011c0.143-0.002,0.28-0.009,0.233-0.215c0.042-0.136-0.159-0.223-0.071-0.368
	c0.188-0.142,0.283,0.011,0.392,0.124c0.008,0.119,0.016,0.238,0.024,0.358c-0.036,0.257-0.19,0.415-0.442,0.408
	c-0.211-0.005-0.306,0.096-0.373,0.26c-0.064,0.152-0.173,0.208-0.335,0.2c-0.202-0.012-0.403-0.003-0.64-0.003
	c0.052,0.111,0.069,0.204,0.036,0.298c-0.206,0.196-0.402,0.409-0.71,0.442c-0.149-0.142-0.13-0.257,0.056-0.348
	c0.172-0.085,0.332-0.186,0.449-0.397c-0.182,0-0.328,0.003-0.476-0.001c-0.095-0.003-0.182-0.03-0.184-0.146
	c-0.002-0.112,0.079-0.156,0.174-0.162c0.133-0.009,0.267-0.009,0.399-0.013c0.32,0.002,0.647,0.068,0.959-0.039
	c-0.002-0.03-0.003-0.062-0.004-0.093C142.593,131.923,142.277,131.923,141.961,131.923z"/>
<path fill-rule="evenodd" clip-rule="evenodd" fill="#A9BBD2" d="M135.696,131.675c-0.009,0.127-0.016,0.254-0.022,0.38
	c-0.225,0.068-0.212,0.205-0.104,0.368c0.001,0.052,0.002,0.102,0.003,0.151c-0.02,0.426-0.02,0.427-0.436,0.427
	c-0.435,0-0.869-0.002-1.302,0.002c-0.183,0.001-0.291-0.067-0.293-0.26c0.512-0.003,1.022-0.005,1.535-0.009
	c0.109-0.002,0.266,0.028,0.264-0.139s-0.158-0.13-0.267-0.132c-0.477-0.007-0.951-0.013-1.428-0.018
	c0-0.057,0.001-0.115,0.002-0.171c0.495-0.005,0.991-0.009,1.488-0.015c0.089-0.001,0.226,0.029,0.224-0.113
	c-0.002-0.147-0.141-0.103-0.229-0.104c-0.479-0.009-0.957-0.013-1.434-0.02c0.002-0.063,0.002-0.128,0.005-0.19
	c0.474-0.005,0.948-0.005,1.423-0.018c0.108-0.002,0.291,0.071,0.302-0.108c0.011-0.189-0.195-0.081-0.288-0.143
	c0.149-0.1,0.316-0.029,0.473-0.052C135.696,131.538,135.686,131.61,135.696,131.675z"/>
<path fill-rule="evenodd" clip-rule="evenodd" fill="#FDFDF7" d="M142.244,132.679c0.033-0.094,0.016-0.187-0.036-0.298
	c0.236,0,0.438-0.009,0.64,0.003c0.162,0.008,0.271-0.048,0.335-0.2c0.067-0.164,0.162-0.265,0.373-0.26
	c0.252,0.007,0.406-0.151,0.442-0.408c0.31-0.02,0.3,0.189,0.306,0.406c0.007,0.229-0.115,0.338-0.316,0.329
	c-0.213-0.011-0.349,0.051-0.438,0.249c-0.075,0.169-0.195,0.226-0.403,0.197C142.851,132.656,142.545,132.683,142.244,132.679z"/>
<path fill-rule="evenodd" clip-rule="evenodd" fill="#FDFDF7" d="M129.765,132.429c0.284,0.071,0.565-0.059,0.852-0.003
	c0.109,0.022,0.144-0.078,0.172-0.166c0.093-0.297,0.199-0.588,0.281-0.889c0.069-0.249,0.226-0.353,0.471-0.323
	c0.34,0.042,0.692-0.071,1.024,0.074c-0.288,0.032-0.584,0.02-0.854,0.156c-0.082,0.043-0.168,0.067-0.139,0.188
	c-0.017,0.014-0.032,0.03-0.048,0.047c-0.232,0.03-0.259,0.233-0.314,0.396c-0.056,0.16-0.071,0.334-0.104,0.502
	c-0.061-0.086-0.138-0.141-0.237-0.073c-0.157,0.107-0.02,0.229-0.005,0.345c-0.317,0.013-0.639,0.082-0.934-0.107
	C129.867,132.533,129.778,132.528,129.765,132.429z"/>
<path fill-rule="evenodd" clip-rule="evenodd" fill="#3F3D3B" d="M130.864,132.683c-0.015-0.115-0.152-0.237,0.005-0.345
	c0.1-0.067,0.177-0.013,0.237,0.073c0.343,0.583,1.178,0.685,1.629,0.188c0.097-0.105,0.193-0.171,0.332-0.181l-0.004-0.003
	c0.078,0.188,0.003,0.331-0.135,0.458c-0.158,0.146-0.337,0.245-0.545,0.303c-0.25,0.071-0.505,0.025-0.758,0.039
	C131.316,133.118,131.064,132.938,130.864,132.683z"/>
<path fill-rule="evenodd" clip-rule="evenodd" fill="#3F3D3B" d="M139.235,132.576c0.047-0.133,0.145-0.157,0.269-0.126
	c0.267,0.544,1.193,0.585,1.56,0.216c0.087-0.088,0.187-0.177,0.291-0.062c0.111,0.125,0.009,0.229-0.09,0.312
	c-0.326,0.284-0.712,0.339-1.124,0.295c-0.069-0.009-0.139-0.02-0.208-0.029C139.633,133.058,139.348,132.916,139.235,132.576z"/>
<path fill-rule="evenodd" clip-rule="evenodd" fill="#A9BBD2" d="M131.626,133.216c0.253-0.014,0.508,0.032,0.758-0.039
	c0.208-0.058,0.387-0.156,0.545-0.303c0.138-0.127,0.213-0.27,0.135-0.458c0.098,0.028,0.183,0.004,0.262-0.052
	c0.057,0.029,0.057,0.084,0.063,0.136c-0.014,0.085-0.003,0.165,0.061,0.229c-0.05,0.062-0.119,0.114-0.146,0.184
	c-0.143,0.398-0.481,0.481-0.837,0.511c-0.216,0.02-0.44,0.041-0.653-0.048C131.732,133.342,131.64,133.328,131.626,133.216z"/>
<path fill-rule="evenodd" clip-rule="evenodd" fill="#FDFDF7" d="M130.612,131.721c-0.052,0.202-0.023,0.407-0.396,0.344
	c-0.364-0.063-0.698-0.169-1.031-0.303c-0.24-0.098-0.324-0.046-0.359,0.225c-0.13,0.01-0.19-0.079-0.249-0.173
	c0.004-0.048,0.013-0.091,0.066-0.108C129.299,131.675,129.956,131.665,130.612,131.721z"/>
<path fill-rule="evenodd" clip-rule="evenodd" fill="#3F3D3B" d="M133.449,132.729c-0.063-0.064-0.074-0.145-0.061-0.229
	c0.084-0.017,0.171-0.036,0.258-0.054c0.477,0.005,0.951,0.011,1.428,0.018c0.108,0.002,0.265-0.035,0.267,0.132
	s-0.154,0.137-0.264,0.139c-0.513,0.004-1.023,0.006-1.535,0.009C133.512,132.738,133.479,132.734,133.449,132.729z"/>
<path fill-rule="evenodd" clip-rule="evenodd" fill="#FDFDF7" d="M135.767,130.344c-0.033-0.193-0.029-0.388-0.006-0.582
	c0.068,0,0.137,0,0.205,0c0.025,0.139,0.129,0.148,0.242,0.148c0.86-0.002,1.718-0.004,2.578,0.001c0.119,0,0.208-0.027,0.252-0.147
	c0.102,0.021,0.204,0.022,0.308,0c0.036,0.056,0.054,0.143,0.141,0.141c0.483-0.018,0.969,0.059,1.45-0.041
	c0.013,0.093-0.039,0.151-0.107,0.199c-0.056,0.036-0.106,0.071-0.068,0.147c0.039,0.071,0.095,0.052,0.16,0.038
	c0.236-0.053,0.435-0.168,0.61-0.328c0.149-0.005,0.3-0.014,0.449-0.01c0.115,0.003,0.213-0.014,0.254-0.141
	c0.147,0.021,0.301-0.027,0.446,0.033c-0.13,0.164-0.074,0.361-0.1,0.544C140.309,130.346,138.036,130.346,135.767,130.344z"/>
<path fill-rule="evenodd" clip-rule="evenodd" fill="#3F3D3B" d="M140.146,131.061c-0.493-0.019-0.526,0.003-0.679,0.474
	c-0.078,0.236-0.149,0.472-0.221,0.711c-0.033,0.114-0.083,0.182-0.219,0.181c-0.586-0.008-1.171-0.006-1.756-0.007
	c-0.146,0-0.316,0.009-0.308-0.193c0.009-0.174,0.165-0.178,0.306-0.178c0.478,0.001,0.958-0.021,1.436,0.007
	c0.268,0.017,0.374-0.081,0.388-0.326c0.056-0.158,0.11-0.314,0.166-0.472c0.11-0.327,0.306-0.478,0.65-0.482
	c0.272-0.003,0.548,0.007,0.823-0.003c0.229-0.007,0.409,0.091,0.574,0.233c0.057,0.134,0.115,0.268,0.172,0.401
	c0.029,0.119,0.063,0.238,0.092,0.357c0.018,0.08-0.006,0.143-0.085,0.17c-0.081,0.027-0.14-0.012-0.168-0.088
	c-0.057-0.158-0.115-0.316-0.162-0.477c-0.063-0.217-0.201-0.325-0.428-0.319C140.533,131.055,140.34,131.058,140.146,131.061z"/>
<path fill-rule="evenodd" clip-rule="evenodd" fill="#FDFDF7" d="M141.479,131.406c-0.057-0.134-0.115-0.268-0.172-0.401
	c0.199,0.004,0.398,0.008,0.6,0.011c-0.019,0.168,0.055,0.241,0.226,0.236c0.289-0.009,0.579-0.011,0.867-0.006
	c0.17,0.003,0.238-0.077,0.238-0.237c0.117-0.007,0.234-0.027,0.345,0.024c-0.088,0.146,0.113,0.232,0.071,0.368
	C142.929,131.402,142.204,131.404,141.479,131.406z"/>
<path fill-rule="evenodd" clip-rule="evenodd" fill="#3F3D3B" d="M142.581,130.347c0.025-0.183-0.03-0.38,0.1-0.544
	c0.162-0.095,0.327-0.163,0.503-0.026c0.004,0.087-0.018,0.16-0.099,0.205c-0.159-0.024-0.237,0.038-0.223,0.202
	c0.011,0.133-0.049,0.308,0.183,0.304c0.114-0.002,0.186,0.043,0.201,0.162c-0.118,0.172-0.281,0.122-0.432,0.074
	C142.637,130.669,142.587,130.516,142.581,130.347z"/>
<path fill-rule="evenodd" clip-rule="evenodd" fill="#3F3D3B" d="M143.237,131.009c0,0.16-0.068,0.24-0.238,0.237
	c-0.288-0.005-0.578-0.003-0.867,0.006c-0.171,0.005-0.244-0.068-0.226-0.236c0.046-0.041,0.096-0.086,0.161-0.08
	C142.457,130.972,142.857,130.83,143.237,131.009z"/>
<path fill-rule="evenodd" clip-rule="evenodd" fill="#D4DEEC" d="M135.612,131.513c-0.156,0.022-0.323-0.048-0.473,0.052
	c-0.408,0-0.815,0-1.222,0c-0.019-0.037-0.035-0.039-0.055,0c-0.111,0.025-0.22,0.052-0.329,0.075
	c-0.049-0.066-0.022-0.143-0.022-0.215c0.517-0.068,1.036-0.017,1.554-0.026c0.155-0.003,0.315-0.051,0.467,0.027
	C135.56,131.454,135.586,131.483,135.612,131.513z"/>
<path fill-rule="evenodd" clip-rule="evenodd" fill="#3F3D3B" d="M143.683,129.813c0.062,0.278,0.036,0.562,0.049,0.841
	c-0.098,0.13-0.192,0.13-0.286-0.004c-0.002-0.087-0.003-0.173-0.004-0.261c0.041-0.21-0.035-0.418-0.019-0.626
	C143.528,129.688,143.618,129.686,143.683,129.813z"/>
<path fill-rule="evenodd" clip-rule="evenodd" fill="#A9BBD2" d="M143.441,130.39c0.001,0.088,0.002,0.174,0.004,0.261
	c-0.067,0-0.133,0-0.199-0.001c-0.016-0.119-0.087-0.164-0.201-0.162c-0.231,0.004-0.172-0.171-0.183-0.304
	c-0.015-0.164,0.063-0.227,0.223-0.202C143.073,130.283,143.146,130.368,143.441,130.39z"/>
<path fill-rule="evenodd" clip-rule="evenodd" fill="#D4DEEC" d="M138.758,128.864c0.131-0.051,0.113-0.163,0.113-0.269
	c0-0.372,0.004-0.743-0.005-1.115c-0.002-0.151,0.028-0.224,0.203-0.222c0.575,0.008,1.151,0.003,1.726-0.006
	c0.15-0.003,0.196,0.06,0.216,0.196c0.042,0.29,0.107,0.575,0.148,0.863c0.03,0.218,0.106,0.381,0.349,0.412
	c-0.05,0.099-0.1,0.198-0.149,0.297c-0.217-0.016-0.436-0.027-0.652-0.051c-0.11-0.011-0.191-0.001-0.201,0.132
	c-0.466,0.002-0.932,0.002-1.397,0.007C138.931,129.11,138.794,129.061,138.758,128.864z M140.21,128.856
	c0.196,0,0.392,0.005,0.586-0.001c0.114-0.004,0.289,0.045,0.285-0.142c-0.002-0.167-0.164-0.124-0.271-0.125
	c-0.248-0.005-0.498,0.001-0.745-0.003c-0.734-0.013-0.635,0.136-0.646-0.677c-0.003-0.19,0.071-0.275,0.268-0.27
	c0.292,0.007,0.585,0,0.878,0c0.09,0,0.197,0.001,0.206-0.117c0.009-0.129-0.098-0.15-0.203-0.15c-0.328,0-0.657-0.007-0.984,0.003
	c-0.258,0.008-0.411,0.16-0.425,0.418c-0.011,0.212-0.011,0.425,0,0.638c0.013,0.277,0.16,0.415,0.441,0.423
	C139.803,128.862,140.007,128.856,140.21,128.856z"/>
<path fill-rule="evenodd" clip-rule="evenodd" fill="#3F3D3B" d="M139.038,129.764c-0.044,0.12-0.133,0.147-0.252,0.147
	c-0.86-0.005-1.718-0.003-2.578-0.001c-0.113,0-0.217-0.01-0.242-0.148c0.031-0.124,0.129-0.126,0.23-0.126
	c0.867,0.001,1.734,0.002,2.601-0.002C138.907,129.634,138.983,129.673,139.038,129.764z"/>
<path fill-rule="evenodd" clip-rule="evenodd" fill="#3F3D3B" d="M140.505,129.103c0.01-0.133,0.091-0.143,0.201-0.132
	c0.217,0.023,0.436,0.035,0.652,0.051c0.308,0.076,0.637,0.071,0.924,0.229c0.082,0.045,0.229,0.069,0.165,0.215
	c-0.06,0.136-0.161,0.1-0.282,0.045c-0.43-0.188-0.894-0.208-1.351-0.247C140.694,129.253,140.531,129.302,140.505,129.103z"/>
<path fill-rule="evenodd" clip-rule="evenodd" fill="#3F3D3B" d="M140.937,129.863c-0.481,0.1-0.967,0.023-1.45,0.041
	c-0.087,0.002-0.104-0.085-0.141-0.141c0.052-0.091,0.123-0.133,0.234-0.13c0.387,0.006,0.771,0.004,1.157,0.003
	c0.104,0,0.196,0.012,0.225,0.133C140.953,129.802,140.944,129.833,140.937,129.863z"/>
<path fill-rule="evenodd" clip-rule="evenodd" fill="#A9BBD2" d="M140.937,129.863c0.008-0.03,0.017-0.062,0.025-0.094
	c0.147,0,0.294,0,0.442,0c0.013,0.073,0.052,0.128,0.127,0.15c-0.176,0.16-0.374,0.275-0.61,0.328
	c-0.065,0.014-0.121,0.033-0.16-0.038c-0.038-0.076,0.013-0.111,0.068-0.147C140.897,130.015,140.949,129.956,140.937,129.863z
	 M141.079,129.865c0.016-0.009,0.03-0.018,0.046-0.027c-0.014-0.01-0.026-0.029-0.035-0.026c-0.02,0.004-0.037,0.021-0.053,0.031
	C141.051,129.85,141.066,129.857,141.079,129.865z"/>
<path fill-rule="evenodd" clip-rule="evenodd" fill="#3F3D3B" d="M141.531,129.92c-0.075-0.022-0.114-0.077-0.127-0.15
	c0.164-0.194,0.658-0.194,0.83,0c-0.041,0.127-0.139,0.144-0.254,0.141C141.831,129.906,141.681,129.915,141.531,129.92z"/>
<path fill-rule="evenodd" clip-rule="evenodd" fill="#FDFDF7" d="M143.441,130.39c-0.295-0.021-0.368-0.106-0.356-0.408
	c0.081-0.045,0.103-0.118,0.099-0.205c0.08-0.004,0.16-0.01,0.239-0.013C143.406,129.972,143.482,130.18,143.441,130.39z"/>
<path fill-rule="evenodd" clip-rule="evenodd" fill="#3F3D3B" d="M133.534,131.64c0.109-0.023,0.218-0.05,0.329-0.075
	c0.018,0,0.036,0,0.055,0c0.406,0,0.813,0,1.222,0c0.093,0.062,0.299-0.047,0.288,0.143c-0.011,0.18-0.193,0.106-0.302,0.108
	c-0.475,0.013-0.949,0.013-1.423,0.018c-0.087-0.019-0.179-0.035-0.188-0.149C133.528,131.673,133.535,131.657,133.534,131.64z"/>
<path fill-rule="evenodd" clip-rule="evenodd" fill="#A9BBD2" d="M133.336,132.205c-0.137-0.251-0.188-0.531-0.267-0.804
	c0.117,0.082,0.176,0.213,0.266,0.319c0.025,0.125,0.06,0.249,0.164,0.338c-0.007,0.049-0.016,0.098-0.024,0.147
	C133.429,132.206,133.382,132.206,133.336,132.205z"/>
<path fill-rule="evenodd" clip-rule="evenodd" fill="#FDFDF7" d="M133.499,132.059c-0.104-0.089-0.139-0.213-0.164-0.338
	c0.062-0.006,0.128,0.016,0.18-0.037c0.01,0.114,0.102,0.131,0.188,0.149c-0.003,0.063-0.003,0.128-0.005,0.19
	C133.632,132.035,133.566,132.045,133.499,132.059z"/>
<path fill-rule="evenodd" clip-rule="evenodd" fill="#FDFDF7" d="M127.364,130.606c0.068-0.03,0.062,0.015,0.058,0.058
	C127.367,130.68,127.328,130.68,127.364,130.606z"/>
<path fill-rule="evenodd" clip-rule="evenodd" fill="#EDAB3D" d="M135.41,128.32c0,0.48,0,0.96,0,1.439
	c-0.579,0.002-1.155,0.004-1.731,0.004c-0.024-0.484-0.027-0.969,0-1.454c0.093,0.002,0.187,0.005,0.278,0.007
	c0.046,0.449,0.15,0.538,0.627,0.533c0.397-0.005,0.527-0.126,0.56-0.529C135.232,128.32,135.321,128.32,135.41,128.32z"/>
<path fill-rule="evenodd" clip-rule="evenodd" fill="#FAC837" d="M135.41,130.339c0.003,0.202,0.002,0.406,0.011,0.611
	c0.006,0.142-0.058,0.179-0.192,0.178c-0.46-0.006-0.922-0.006-1.383-0.001c-0.116,0.001-0.188-0.027-0.182-0.161
	c0.013-0.212-0.024-0.426,0.021-0.637C134.26,130.332,134.835,130.336,135.41,130.339z"/>
<path fill-rule="evenodd" clip-rule="evenodd" fill="#FDFDF7" d="M135.41,128.32c-0.089,0-0.178,0-0.267,0
	c-0.004-0.318-0.004-0.638-0.013-0.955c-0.01-0.294-0.156-0.435-0.449-0.443c-0.078-0.003-0.159-0.001-0.238,0
	c-0.331,0.006-0.467,0.14-0.473,0.467c-0.004,0.31-0.008,0.62-0.014,0.928c-0.092-0.002-0.186-0.004-0.278-0.007
	c-0.005-0.479-0.008-0.958-0.015-1.436c-0.002-0.146,0.062-0.205,0.209-0.203c0.442,0.007,0.887,0.009,1.329,0
	c0.16-0.002,0.229,0.05,0.226,0.212C135.418,127.362,135.417,127.842,135.41,128.32z"/>
<path fill-rule="evenodd" clip-rule="evenodd" fill="#FDFDF7" d="M135.41,130.339c-0.575-0.003-1.15-0.007-1.725-0.01
	c-0.031-0.188-0.023-0.377-0.007-0.565c0.576,0,1.152-0.002,1.731-0.004C135.437,129.952,135.433,130.145,135.41,130.339z"/>
<path fill-rule="evenodd" clip-rule="evenodd" fill="#D4DEEC" d="M130.882,127.306c0.118,0.145,0.031,0.313,0.052,0.47
	c0.015,0.104-0.002,0.211,0.004,0.317c0.009,0.114-0.046,0.285,0.139,0.287c0.189,0.001,0.128-0.173,0.134-0.285
	c0.014-0.21,0.014-0.421,0.02-0.632c0.335,0,0.67,0,1.005,0c0.008,0.307,0.014,0.616,0.021,0.924
	c0.002,0.132-0.061,0.189-0.195,0.188c-0.678-0.007-1.356-0.011-2.036-0.015c0.004-0.249,0.015-0.497,0.004-0.746
	c-0.014-0.23,0.034-0.341,0.309-0.37C130.511,127.426,130.752,127.534,130.882,127.306z"/>
<path fill-rule="evenodd" clip-rule="evenodd" fill="#FDFDF7" d="M130.882,127.306c-0.13,0.229-0.371,0.121-0.546,0.138
	c-0.274,0.029-0.322,0.14-0.309,0.37c0.011,0.249,0,0.498-0.004,0.746c-0.096-0.002-0.113-0.069-0.113-0.145
	c-0.002-0.32,0.002-0.638-0.002-0.957c-0.001-0.13,0.061-0.17,0.178-0.167C130.353,127.298,130.616,127.301,130.882,127.306z"/>
<path fill-rule="evenodd" clip-rule="evenodd" fill="#FDFDF7" d="M132.234,127.462c-0.335,0-0.67,0-1.005,0
	c-0.027-0.103-0.013-0.172,0.117-0.171c0.254,0.003,0.507,0,0.761,0.002C132.218,127.295,132.274,127.346,132.234,127.462z"/>
<path fill-rule="evenodd" clip-rule="evenodd" fill="#D4DEEC" d="M138.021,127.466c0.003,0.307,0.008,0.614,0.013,0.921
	c0.003,0.133-0.063,0.189-0.193,0.188c-0.438-0.006-0.877-0.01-1.315-0.015c0-0.235,0.001-0.473,0.002-0.709
	c0-0.351,0.034-0.383,0.396-0.387c0.044,0,0.088,0,0.131,0c0.004,0.246,0.009,0.491,0.011,0.737
	c0.001,0.098,0.023,0.183,0.139,0.183c0.117,0,0.135-0.088,0.135-0.186c0.003-0.245,0.007-0.491,0.011-0.735
	C137.571,127.465,137.796,127.466,138.021,127.466z"/>
<path fill-rule="evenodd" clip-rule="evenodd" fill="#FDFDF7" d="M137.053,127.465c-0.043,0-0.087,0-0.131,0
	c-0.361,0.004-0.396,0.036-0.396,0.387c-0.001,0.236-0.002,0.474-0.002,0.709c-0.126,0.023-0.152-0.055-0.152-0.155
	c-0.002-0.309-0.002-0.618-0.002-0.926c0-0.074,0.009-0.155,0.1-0.16c0.176-0.011,0.353-0.013,0.526-0.002
	C137.087,127.323,137.056,127.406,137.053,127.465z"/>
<path fill-rule="evenodd" clip-rule="evenodd" fill="#FDFDF7" d="M138.021,127.466c-0.225,0-0.449-0.001-0.673-0.002
	c-0.002-0.018-0.014-0.04-0.007-0.051c0.124-0.203,0.318-0.064,0.478-0.096C137.916,127.297,138.043,127.298,138.021,127.466z"/>
<path fill-rule="evenodd" clip-rule="evenodd" fill="#D4DEEC" d="M140.676,124.961c0.055,0.569,0.055,0.569-0.501,0.572
	c-0.027,0-0.054,0-0.079,0c-0.616,0-0.616,0-0.365-0.573C140.045,124.961,140.361,124.961,140.676,124.961z"/>
<path fill-rule="evenodd" clip-rule="evenodd" fill="#D4DEEC" d="M139.418,124.917c-0.003,0.026-0.003,0.052-0.011,0.077
	c-0.161,0.586-0.181,0.598-0.809,0.517c0.125-0.473,0.145-0.49,0.614-0.554C139.282,124.948,139.35,124.93,139.418,124.917z"/>
<path fill-rule="evenodd" clip-rule="evenodd" fill="#FDFDF7" d="M139.418,124.917c-0.068,0.013-0.136,0.031-0.205,0.04
	c-0.47,0.064-0.489,0.081-0.614,0.554c-0.053,0.016-0.11,0.021-0.146-0.026c-0.089-0.125,0.144-0.667,0.293-0.675
	c0.201-0.009,0.403-0.001,0.606-0.001C139.43,124.809,139.477,124.831,139.418,124.917z"/>
<path fill-rule="evenodd" clip-rule="evenodd" fill="#FDFDF7" d="M140.676,124.961c-0.314,0-0.631,0-0.945-0.001
	c-0.006-0.106,0.035-0.162,0.152-0.16c0.218,0.005,0.436,0.001,0.654,0.001C140.644,124.803,140.707,124.841,140.676,124.961z"/>
<path fill-rule="evenodd" clip-rule="evenodd" fill="#3F3D3B" d="M140.468,132.48c-0.238,0.02-0.449-0.03-0.587-0.25
	c-0.08-0.129-0.092-0.244,0.064-0.325c0.096,0.023,0.133,0.099,0.177,0.177c0.084,0.151,0.231,0.154,0.368,0.106
	c0.163-0.055,0.186-0.197,0.16-0.345c-0.029-0.156-0.142-0.219-0.286-0.217c-0.104,0.002-0.211,0.041-0.304-0.037
	c-0.019-0.155,0.069-0.214,0.212-0.233c0.373-0.053,0.611,0.15,0.677,0.583C140.891,132.21,140.782,132.438,140.468,132.48z"/>
<path fill-rule="evenodd" clip-rule="evenodd" fill="#FDFDF7" d="M140.061,131.59c0.093,0.078,0.199,0.039,0.304,0.037
	c0.145-0.002,0.257,0.061,0.286,0.217c0.025,0.147,0.003,0.29-0.16,0.345c-0.137,0.048-0.284,0.045-0.368-0.106
	c-0.044-0.078-0.081-0.153-0.177-0.177C139.92,131.777,139.972,131.678,140.061,131.59z"/>
<path fill-rule="evenodd" clip-rule="evenodd" fill="#D4DEEC" d="M140.468,132.48c0.314-0.043,0.423-0.271,0.481-0.541
	c0.11,0.292,0.034,0.507-0.23,0.61C140.631,132.585,140.514,132.644,140.468,132.48z"/>
<path fill-rule="evenodd" clip-rule="evenodd" fill="#D4DEEC" d="M141.961,131.923c0.316,0,0.632,0,0.947,0
	c0.001,0.031,0.002,0.063,0.004,0.093c-0.312,0.107-0.639,0.041-0.959,0.039C141.957,132.012,141.959,131.968,141.961,131.923z"/>
<path fill-rule="evenodd" clip-rule="evenodd" fill="#3F3D3B" d="M135.569,132.423c-0.107-0.163-0.12-0.3,0.104-0.368
	c0.221,0,0.441-0.003,0.661,0c0.128,0.004,0.237,0.05,0.23,0.196c-0.007,0.13-0.108,0.169-0.227,0.168
	C136.082,132.419,135.826,132.423,135.569,132.423z"/>
<path fill-rule="evenodd" clip-rule="evenodd" fill="#A9BBD2" d="M133.067,132.419c-0.139,0.01-0.235,0.075-0.332,0.181
	c-0.451,0.496-1.286,0.395-1.629-0.188c0.032-0.168,0.048-0.342,0.104-0.502c0.056-0.163,0.082-0.366,0.314-0.396
	c0,0.139-0.228,0.31,0.057,0.409c-0.02,0.119-0.03,0.234,0.108,0.292c-0.07,0.354,0.208,0.23,0.366,0.271
	c0.054,0.155,0.167,0.099,0.26,0.064c0.315-0.111,0.396-0.413,0.195-0.716c-0.029-0.01-0.059-0.017-0.089-0.026
	c0-0.033,0-0.066,0-0.101c0.04-0.253-0.144-0.306-0.325-0.349c-0.188-0.046-0.354,0.048-0.524,0.107
	c-0.029-0.12,0.057-0.145,0.139-0.188c0.27-0.137,0.565-0.124,0.854-0.156c0.164,0.115,0.154,0.313,0.216,0.471
	C132.886,131.865,132.973,132.143,133.067,132.419z"/>
<path fill-rule="evenodd" clip-rule="evenodd" fill="#D4DEEC" d="M133.336,132.205c0.046,0.001,0.093,0.001,0.139,0.001
	c0.058,0.023,0.115,0.045,0.174,0.069c-0.001,0.056-0.002,0.114-0.002,0.171c-0.087,0.018-0.174,0.037-0.258,0.054
	c-0.007-0.052-0.007-0.106-0.063-0.136C133.33,132.312,133.333,132.258,133.336,132.205z"/>
<path fill-rule="evenodd" clip-rule="evenodd" fill="#3F3D3B" d="M133.648,132.275c-0.059-0.024-0.116-0.046-0.174-0.069
	c0.009-0.05,0.018-0.099,0.024-0.147c0.067-0.014,0.133-0.023,0.199-0.035c0.477,0.007,0.955,0.011,1.434,0.02
	c0.088,0.002,0.227-0.043,0.229,0.104c0.002,0.143-0.135,0.112-0.224,0.113C134.64,132.267,134.144,132.271,133.648,132.275z"/>
<path fill-rule="evenodd" clip-rule="evenodd" fill="#3F3D3B" d="M131.572,131.466c0.171-0.06,0.336-0.153,0.524-0.107
	c0.182,0.043,0.365,0.096,0.325,0.349c-0.096,0.043-0.177,0.02-0.269-0.03c-0.178-0.095-0.34-0.073-0.44,0.127
	c-0.028,0.058-0.068,0.099-0.132,0.118c-0.284-0.1-0.057-0.271-0.057-0.409C131.54,131.496,131.556,131.479,131.572,131.466z"/>
<path fill-rule="evenodd" clip-rule="evenodd" fill="#A9BBD2" d="M133.918,131.564c-0.019,0-0.037,0-0.055,0
	C133.883,131.525,133.899,131.527,133.918,131.564z"/>
<path fill-rule="evenodd" clip-rule="evenodd" fill="#3F3D3B" d="M140.21,128.856c-0.203,0-0.407,0.005-0.611-0.001
	c-0.281-0.008-0.429-0.146-0.441-0.423c-0.011-0.213-0.011-0.426,0-0.638c0.014-0.258,0.167-0.411,0.425-0.418
	c0.327-0.01,0.656-0.003,0.984-0.003c0.105,0,0.212,0.021,0.203,0.15c-0.009,0.118-0.116,0.116-0.206,0.117
	c-0.293,0-0.586,0.006-0.878,0c-0.196-0.005-0.271,0.08-0.268,0.27c0.012,0.813-0.088,0.665,0.646,0.677
	c0.247,0.004,0.497-0.002,0.745,0.003c0.107,0.001,0.27-0.042,0.271,0.125c0.004,0.188-0.171,0.138-0.285,0.142
	C140.602,128.862,140.406,128.856,140.21,128.856z"/>
<path fill-rule="evenodd" clip-rule="evenodd" fill="#FDFDF7" d="M141.079,129.865c-0.013-0.008-0.028-0.016-0.042-0.022
	c0.016-0.011,0.033-0.027,0.053-0.031c0.009-0.003,0.021,0.017,0.035,0.026C141.109,129.848,141.095,129.856,141.079,129.865z"/>
<path fill-rule="evenodd" clip-rule="evenodd" fill="#3F3D3B" d="M133.957,128.317c0.006-0.309,0.01-0.619,0.014-0.928
	c0.006-0.327,0.142-0.46,0.473-0.467c0.079-0.001,0.16-0.003,0.238,0c0.293,0.009,0.439,0.149,0.449,0.443
	c0.009,0.317,0.009,0.637,0.013,0.955c-0.032,0.403-0.162,0.524-0.56,0.529C134.107,128.854,134.003,128.766,133.957,128.317z
	 M134.24,127.885L134.24,127.885c0,0.151,0.009,0.302-0.003,0.452c-0.015,0.217,0.106,0.246,0.282,0.24
	c0.176-0.006,0.347,0.017,0.338-0.247c-0.011-0.283-0.011-0.567,0.002-0.85c0.011-0.216-0.064-0.292-0.288-0.295
	c-0.249-0.003-0.366,0.064-0.334,0.329C134.253,127.635,134.24,127.762,134.24,127.885z"/>
<path fill-rule="evenodd" clip-rule="evenodd" fill="#FDFDF7" d="M131.581,131.922c0.063-0.02,0.104-0.061,0.132-0.118
	c0.101-0.2,0.263-0.222,0.44-0.127c0.092,0.05,0.173,0.073,0.269,0.03c0,0.034,0,0.067,0,0.101c-0.08,0.01-0.133,0.056-0.144,0.134
	c-0.034,0.249-0.194,0.289-0.407,0.26c-0.059-0.009-0.121,0.009-0.182,0.013C131.551,132.156,131.562,132.041,131.581,131.922z"/>
<path fill-rule="evenodd" clip-rule="evenodd" fill="#3F3D3B" d="M131.689,132.214c0.061-0.004,0.123-0.021,0.182-0.013
	c0.213,0.029,0.373-0.011,0.407-0.26c0.011-0.078,0.063-0.124,0.144-0.134c0.03,0.01,0.06,0.017,0.089,0.026
	c0.074,0.359-0.058,0.547-0.455,0.651C131.897,132.444,131.619,132.567,131.689,132.214z"/>
<path fill-rule="evenodd" clip-rule="evenodd" fill="#D4DEEC" d="M132.056,132.485c0.397-0.104,0.529-0.292,0.455-0.651
	c0.2,0.303,0.12,0.604-0.195,0.716C132.223,132.584,132.109,132.641,132.056,132.485z"/>
<path fill-rule="evenodd" clip-rule="evenodd" fill="#D4DEEC" d="M134.24,127.885c0-0.124,0.013-0.25-0.003-0.372
	c-0.032-0.264,0.085-0.332,0.334-0.329c0.224,0.003,0.299,0.079,0.288,0.295c-0.013,0.283-0.013,0.567-0.002,0.85
	c0.009,0.263-0.162,0.24-0.338,0.247c-0.176,0.006-0.297-0.023-0.282-0.24C134.249,128.187,134.24,128.036,134.24,127.885
	L134.24,127.885z"/>
</svg>
