<?xml version="1.0" encoding="utf-8"?>
<!-- Generator: Adobe Illustrator 25.0.0, SVG Export Plug-In . SVG Version: 6.00 Build 0)  -->
<svg version="1.2" baseProfile="tiny" id="Capa_1" xmlns="http://www.w3.org/2000/svg" xmlns:xlink="http://www.w3.org/1999/xlink"
	 x="0px" y="0px" viewBox="0 0 24.05 24.05" overflow="visible" xml:space="preserve">
<g id="Page-1">
	<g id="_x30_06---Campsite-Sign">
		<path id="Shape" fill="#805333" d="M9.95,13.27h4.15v10.37c0,0.23-0.19,0.41-0.41,0.41h-3.32c-0.23,0-0.41-0.19-0.41-0.41V13.27z"
			/>
		<path id="Shape_1_" fill="#A56A43" d="M20.74,2.95c0,0.21,0.15,0.4,0.35,0.45l2.65,0.66c0.19,0.05,0.32,0.22,0.32,0.41V9.6
			c0,0.21-0.15,0.38-0.35,0.41l-1.58,0.26c-0.32,0.05-0.56,0.33-0.56,0.66c0,0.37,0.3,0.67,0.67,0.68h1.4
			c0.23,0,0.41,0.19,0.41,0.41v0.83c0,0.69-0.56,1.24-1.24,1.24H1.24C0.56,14.1,0,13.54,0,12.86V6.52c0-0.18,0.11-0.34,0.28-0.39
			l1.71-0.57c0.29-0.1,0.49-0.37,0.49-0.68c0-0.19-0.07-0.38-0.21-0.51C2.14,4.22,1.96,4.15,1.77,4.15H0.41C0.19,4.15,0,3.96,0,3.73
			V1.24C0,0.56,0.56,0,1.24,0h21.57c0.69,0,1.24,0.56,1.24,1.24v0.83c0,0.23-0.19,0.41-0.41,0.41H21.2
			C20.94,2.49,20.74,2.7,20.74,2.95L20.74,2.95z"/>
		<path id="Shape_2_" fill="#F0C419" d="M20.57,6.72L18.5,5.06c-0.13-0.09-0.29-0.11-0.43-0.04c-0.14,0.07-0.23,0.21-0.23,0.37v0.41
			h-2.9c-0.23,0-0.41,0.19-0.41,0.41v1.66c0,0.23,0.19,0.41,0.41,0.41h2.9v0.41c0,0.16,0.09,0.3,0.23,0.37
			c0.14,0.07,0.31,0.06,0.43-0.04l2.07-1.66c0.1-0.08,0.17-0.2,0.17-0.33S20.67,6.8,20.57,6.72z"/>
		<path id="Shape_3_" fill="#F9EAB0" d="M13.17,9.95l-0.31,1.24H3.73L3.42,9.95c-0.07-0.26,0-0.54,0.18-0.75l4.69-5.35l4.69,5.36
			C13.16,9.41,13.23,9.69,13.17,9.95L13.17,9.95z"/>
		<g>
			<path id="Shape_4_" fill="#805333" d="M1.66,8.71c0,0.23-0.19,0.41-0.41,0.41H0V8.29h1.24C1.47,8.29,1.66,8.48,1.66,8.71z"/>
			<path id="Shape_5_" fill="#805333" d="M1.66,12.44c0,0.23-0.19,0.41-0.41,0.41H0v-0.83h1.24C1.47,12.03,1.66,12.21,1.66,12.44z"
				/>
			<path id="Shape_6_" fill="#805333" d="M24.05,5.39v0.83h-1.24c-0.23,0-0.41-0.19-0.41-0.41c0-0.23,0.19-0.41,0.41-0.41H24.05z"/>
			<path id="Shape_7_" fill="#805333" d="M24.05,7.88v0.83h-1.24c-0.23,0-0.41-0.19-0.41-0.41s0.19-0.41,0.41-0.41H24.05z"/>
		</g>
		<path id="Shape_8_" fill="#F29C1F" d="M13.69,10.78h-0.3l0.18-0.72c0.1-0.4,0-0.82-0.27-1.12L8.85,3.85l0.59-0.68
			C9.57,3,9.55,2.75,9.39,2.61S8.97,2.47,8.81,2.63L8.29,3.22L7.78,2.63C7.62,2.47,7.37,2.46,7.2,2.61C7.04,2.75,7.01,3,7.15,3.18
			l0.59,0.68L3.29,8.94c-0.27,0.31-0.37,0.72-0.27,1.12l0.18,0.72H2.9c-0.23,0-0.41,0.19-0.41,0.41s0.19,0.41,0.41,0.41h10.78
			c0.23,0,0.41-0.19,0.41-0.41S13.91,10.78,13.69,10.78z M12.77,9.86l-0.23,0.92H9.71C8.83,10.26,8.3,9.31,8.29,8.29
			c0,1.02-0.54,1.97-1.41,2.49H4.06L3.82,9.86c-0.03-0.13,0-0.27,0.09-0.37l4.38-5.01l4.38,5.01C12.76,9.59,12.8,9.73,12.77,9.86
			L12.77,9.86z"/>
	</g>
</g>
</svg>
