<?xml version="1.0" encoding="utf-8"?>
<!-- Generator: Adobe Illustrator 25.0.0, SVG Export Plug-In . SVG Version: 6.00 Build 0)  -->
<svg version="1.2" baseProfile="tiny" id="Capa_1" xmlns="http://www.w3.org/2000/svg" xmlns:xlink="http://www.w3.org/1999/xlink"
	 x="0px" y="0px" viewBox="0 0 24.05 24.05" overflow="visible" xml:space="preserve">
<g>
	<path fill="#EA9F26" d="M23.65,7.02l-2,9.62H6.41l-2-9.62H23.65z"/>
	<path fill="#2D85CC" d="M18.44,9.42l-6.01,4.81v2.41h6.41l0.8-7.22H18.44z"/>
	<path fill="#EB423F" d="M21.65,16.64h-4.41l0.23-2.76l1.77,0.35L21.65,16.64z"/>
	<path fill="#FFD33A" d="M22.45,7.02h-4.01l1.2-2.41h1.6L22.45,7.02z"/>
	<path fill="none" d="M23.65,7.02l-1,4.81h-0.2V7.02H23.65z"/>
	<path fill="#FFD33A" d="M22.45,7.02v4.81h-2.81V9.42h-1.2V7.02H22.45z"/>
	<path fill="#248256" d="M22.45,11.83v-0.4l-2.81-2l-0.4,2.41h-1.6l-0.4,4.81h4.41l1-4.81H22.45z"/>
	<path fill="#EA9F26" d="M20.05,3.01h0.8c0.44,0,0.8,0.36,0.8,0.8v0.8l0,0h-2.41l0,0v-0.8C19.24,3.37,19.6,3.01,20.05,3.01z"/>
	<path fill="#996046" d="M10.42,14.23v2.41H6.41l-0.5-2.41H10.42z"/>
	<path fill="#35A872" d="M12.03,5.81v3.61H4.81L4.06,5.45l0.03-0.04c0.25-0.37,0.66-0.59,1.1-0.59c0.09,0,0.18,0.01,0.26,0.03
		c0-0.01,0-0.02,0-0.03c0-1,0.83-1.82,1.84-1.82c0.77,0,1.47,0.48,1.74,1.2c0.35-0.64,1.15-0.87,1.79-0.52
		c0.41,0.23,0.68,0.66,0.68,1.13c0,0.3-0.1,0.58-0.29,0.81c0.09-0.02,0.19-0.03,0.29-0.03L12.03,5.81z"/>
	<path fill="#C48669" d="M11.23,1.4h6.41v5.61h-6.41V1.4z"/>
	<path fill="#D49073" d="M11.23,1.4h4.81v5.61h-4.81V1.4z"/>
	<path fill="#996046" d="M14.43,3.41h-1.6c-0.22,0-0.4-0.18-0.4-0.4c0-0.22,0.18-0.4,0.4-0.4h1.6c0.22,0,0.4,0.18,0.4,0.4
		C14.83,3.23,14.65,3.41,14.43,3.41z"/>
	<path fill="#248256" d="M12.03,9.42h-2l0.4,2.41h-2l-2,2.41h-0.5l-1.5-7.22h7.62V9.42z"/>
	<path fill="#D0D2D4" d="M22.45,20.25H6.41c-0.89,0-1.6-0.72-1.6-1.6v-0.8c0-0.89,0.72-1.6,1.6-1.6h0.4c0.22,0,0.4,0.18,0.4,0.4
		c0,0.22-0.18,0.4-0.4,0.4h-0.4c-0.44,0-0.8,0.36-0.8,0.8v0.8c0,0.44,0.36,0.8,0.8,0.8h16.04c0.22,0,0.4,0.18,0.4,0.4
		C22.85,20.07,22.67,20.25,22.45,20.25z"/>
	<circle fill="#7E8589" cx="8.02" cy="21.05" r="1.6"/>
	<circle fill="#7E8589" cx="19.24" cy="21.05" r="1.6"/>
	<circle fill="#414649" cx="8.02" cy="21.05" r="0.4"/>
	<circle fill="#414649" cx="19.24" cy="21.05" r="0.4"/>
	<path fill="#EB423F" d="M14.03,11.83l-0.8-2.41h-1.2V7.02h6.41v2.41l-2.81,2.41H14.03z"/>
	<path fill="#D0D2D4" d="M23.96,6.76c-0.08-0.09-0.19-0.15-0.31-0.15H4.47L3.6,2.91c-0.04-0.18-0.2-0.31-0.39-0.31H0.4
		C0.18,2.61,0,2.79,0,3.01c0,0.22,0.18,0.4,0.4,0.4h2.49l3.13,13.32c0.04,0.18,0.2,0.31,0.39,0.31h15.23c0.19,0,0.35-0.13,0.39-0.32
		l2-9.62C24.07,6.98,24.04,6.86,23.96,6.76L23.96,6.76z M16.42,7.42h3.17l-0.2,1.6h-3.04L16.42,7.42z M11.64,7.42l0.07,1.6H8.67
		l-0.2-1.6H11.64z M4.66,7.42h3.01l0.2,1.6H5.03L4.66,7.42z M5.22,9.82h2.74l0.2,1.6H5.6L5.22,9.82z M5.79,12.23h2.48l0.2,1.6h-2.3
		L5.79,12.23z M6.73,16.24l-0.38-1.6h2.21l0.2,1.6H6.73z M8.77,9.82h2.97l0.07,1.6H8.97L8.77,9.82z M9.07,12.23h2.77l0.07,1.6H9.27
		L9.07,12.23z M9.57,16.24l-0.2-1.6h2.57l0.07,1.6H9.57z M15.25,16.24h-2.44l-0.07-1.6h2.57L15.25,16.24z M15.35,13.83h-2.64
		l-0.07-1.6h2.77L15.35,13.83z M15.45,11.43h-2.84l-0.07-1.6h2.97L15.45,11.43z M15.55,9.02h-3.04l-0.07-1.6h3.17L15.55,9.02z
		 M18.49,16.24h-2.44l0.07-1.6h2.57L18.49,16.24z M18.79,13.83h-2.64l0.07-1.6h2.77L18.79,13.83z M19.09,11.43h-2.84l0.07-1.6h2.97
		L19.09,11.43z M21.32,16.24H19.3l0.2-1.6h2.16L21.32,16.24z M21.82,13.83H19.6l0.2-1.6h2.36L21.82,13.83z M22.33,11.43H19.9
		l0.2-1.6h2.56L22.33,11.43z M22.83,9.02H20.2l0.2-1.6h2.76L22.83,9.02z"/>
</g>
</svg>
