<?xml version="1.0" encoding="utf-8"?>
<!-- Generator: Adobe Illustrator 25.0.0, SVG Export Plug-In . SVG Version: 6.00 Build 0)  -->
<svg version="1.2" baseProfile="tiny" id="Capa_1" xmlns="http://www.w3.org/2000/svg" xmlns:xlink="http://www.w3.org/1999/xlink"
	 x="0px" y="0px" viewBox="0 0 48 48" overflow="visible" xml:space="preserve">
<path fill="#5CA4DA" d="M42.76,43.5c-7.35,6-30.3,6-37.5,0c-7.35-6-6.6-31.65,0-38.4s30.9-6.75,37.5,0S50.11,37.5,42.76,43.5z"/>
<path fill="#6DAFE0" d="M24.16,33c-6.6,5.25-13.95,7.95-20.85,8.1c-5.1-8.7-4.05-29.85,1.95-36c5.4-5.55,22.35-6.6,32.1-3.15
	C39.76,11.85,34.81,24.45,24.16,33z"/>
<path fill="#FFFFFF" d="M18.16,9.45h11.7V38.4h-6.15V15h-5.55V9.45L18.16,9.45z"/>
</svg>
