<?xml version="1.0" encoding="utf-8"?>
<!-- Generator: Adobe Illustrator 25.0.0, SVG Export Plug-In . SVG Version: 6.00 Build 0)  -->
<svg version="1.2" baseProfile="tiny" id="Capa_1" xmlns="http://www.w3.org/2000/svg" xmlns:xlink="http://www.w3.org/1999/xlink"
	 x="0px" y="0px" viewBox="0 0 48 48" overflow="visible" xml:space="preserve">
<path fill="#5CA4DA" d="M42.68,43.5c-7.34,6-30.28,6-37.47,0s-6.6-31.63,0-38.37s30.88-6.75,37.47,0S50.03,37.51,42.68,43.5z"/>
<path fill="#6DAFE0" d="M24.1,33.01c-6.6,5.25-13.94,7.94-20.84,8.09c-5.1-8.69-4.05-29.83,1.95-35.97
	c5.4-5.55,22.33-6.6,32.08-3.15C39.69,11.88,34.74,24.47,24.1,33.01z"/>
<path fill="#FFFFFF" d="M26.19,21.17c0.75-1.05,1.05-2.1,1.05-3c0-0.9-0.3-1.8-0.9-2.4c-0.6-0.6-1.5-1.05-2.4-1.05
	c-1.8,0-3.6,1.35-5.25,3.9l-5.25-3c1.35-2.1,2.85-3.75,4.5-4.8s3.75-1.65,6.15-1.65s4.65,0.75,6.6,2.4
	c1.95,1.65,2.85,3.75,2.85,6.45c0,1.5-0.45,3-1.2,4.35c-0.75,1.35-2.1,3.15-4.2,5.25l-5.25,5.4h11.54v5.85H13.9v-4.8l8.54-8.69
	C24.25,23.57,25.45,22.22,26.19,21.17z"/>
</svg>
