<?xml version="1.0" encoding="utf-8"?>
<!-- Generator: Adobe Illustrator 25.0.0, SVG Export Plug-In . SVG Version: 6.00 Build 0)  -->
<svg version="1.2" baseProfile="tiny" id="Capa_1" xmlns="http://www.w3.org/2000/svg" xmlns:xlink="http://www.w3.org/1999/xlink"
	 x="0px" y="0px" viewBox="0 0 24.05 24.05" overflow="visible" xml:space="preserve">
<g>
	<g>
		<path fill="#FDF2F3" d="M3.29,20.06h1.4v3.21h-1.4V20.06z"/>
	</g>
	<g>
		<path fill="#E1E1EF" d="M16.15,20.06h1.4v3.21h-1.4V20.06z"/>
	</g>
	<g>
		<path fill="#25404F" d="M20.11,23.98H0.78c-0.39,0-0.7-0.31-0.7-0.7s0.31-0.7,0.7-0.7h19.34c1.36,0,2.47-1.11,2.47-2.47v-0.05
			c0-0.39,0.31-0.7,0.7-0.7s0.7,0.31,0.7,0.7v0.05C23.98,22.24,22.24,23.98,20.11,23.98L20.11,23.98z"/>
	</g>
	<g>
		<path fill="#25404F" d="M20.76,17.32v2.75c0,0.39-0.31,0.7-0.7,0.7H0.78c-0.39,0-0.7-0.31-0.7-0.7v-2.75l10.05-1.37L20.76,17.32z"
			/>
	</g>
	<path fill="#002326" d="M10.42,20.76h9.64c0.39,0,0.7-0.31,0.7-0.7v-2.75l-10.34-1.33V20.76z"/>
	<path fill="#002326" d="M23.28,19.36c-0.39,0-0.7,0.31-0.7,0.7v0.05c0,1.36-1.11,2.47-2.47,2.47h-9.69v1.4h9.69
		c2.13,0,3.87-1.74,3.87-3.87v-0.05C23.98,19.68,23.67,19.36,23.28,19.36z"/>
	<g>
		<path fill="#AD6757" d="M16.29,10.42l-0.7,0.62l-0.7-0.62h-2.05l-0.72,0.75l-0.68-0.75h-1.02L6.97,3.06l-6.9,0.47v13.79h20.69
			v-2.26C20.76,12.55,18.78,10.51,16.29,10.42L16.29,10.42z"/>
	</g>
	<g>
		<path fill="#895251" d="M16.29,10.42l-0.7,0.62l-0.7-0.62h-2.05l-0.72,0.75l-0.68-0.75h-1.02v6.9h10.34v-2.26
			C20.76,12.55,18.78,10.51,16.29,10.42L16.29,10.42z"/>
	</g>
	<g>
		<path fill="#FDAD00" d="M10.42,6.97v3.45H9.99c-1.67,0-3.02-1.35-3.02-3.02V6.97L8.7,5.91L10.42,6.97z"/>
	</g>
	<g>
		<path fill="#FFCD01" d="M10.42,3.52v3.45H6.97V2.71L10.42,3.52z"/>
	</g>
	<g>
		<path fill="#F23051" d="M10.42,0.78v2.75H0.08V0.78c0-0.39,0.31-0.7,0.7-0.7h8.94C10.11,0.08,10.42,0.39,10.42,0.78z"/>
	</g>
	<g>
		<path fill="#002326" d="M12.14,12.84c0.39,0,0.7-0.31,0.7-0.7v-1.72h-1.4v1.72C11.44,12.53,11.76,12.84,12.14,12.84z"/>
		<path fill="#002326" d="M15.59,12.84c0.39,0,0.7-0.31,0.7-0.7v-1.72c-0.05,0-0.11,0-0.16,0h-1.24v1.72
			C14.89,12.53,15.21,12.84,15.59,12.84z"/>
	</g>
</g>
</svg>
