<?xml version="1.0" encoding="utf-8"?>
<!-- Generator: Adobe Illustrator 25.0.0, SVG Export Plug-In . SVG Version: 6.00 Build 0)  -->
<svg version="1.2" baseProfile="tiny" id="Capa_1" xmlns="http://www.w3.org/2000/svg" xmlns:xlink="http://www.w3.org/1999/xlink"
	 x="0px" y="0px" viewBox="0 0 24.05 24.05" overflow="visible" xml:space="preserve">
<g>
	<g>
		<path fill="#455A64" d="M20.01,22.05c-0.86,0.06-1.71-0.25-2.33-0.85c-1.01-1.08-0.89-2.9-0.76-4.82
			c0.04-0.62,0.08-1.25,0.08-1.86c0-5.51-1.89-5.51-2.51-5.51c-0.28,0-0.5-0.22-0.5-0.5c0-0.28,0.22-0.5,0.5-0.5
			c3.51,0,3.51,4.9,3.51,6.51c0,0.63-0.04,1.28-0.09,1.92c-0.11,1.7-0.22,3.3,0.5,4.07c0.43,0.39,1.01,0.58,1.59,0.53
			c0.41,0.03,0.81-0.13,1.09-0.43c0.88-1.02,0.47-3.75,0.18-5.73c-0.14-0.78-0.23-1.57-0.26-2.36V9.52c0-0.16,0.07-0.31,0.2-0.4
			c0.98-0.73,0.9-1.3,0.83-1.76c-0.02-0.11-0.03-0.23-0.03-0.34c-1.18-2.11-3.25-3.58-5.62-4.02c-0.27-0.06-0.44-0.33-0.38-0.6
			c0.06-0.27,0.33-0.44,0.6-0.38c4.42,1.02,6.4,4.28,6.4,5c0,0.07,0.01,0.13,0.02,0.2c0.2,0.98-0.2,1.98-1.02,2.55v2.76
			c0.04,0.74,0.12,1.48,0.25,2.2c0.34,2.31,0.77,5.17-0.41,6.54C21.39,21.8,20.71,22.08,20.01,22.05z"/>
		<path fill="#455A64" d="M21.51,10.02c-0.13,0-0.26-0.05-0.35-0.15c-2.8-2.8-2.46-4.26-1-5.72c0.2-0.19,0.52-0.19,0.71,0.01
			c0.19,0.19,0.19,0.5,0,0.7c-0.85,0.85-1.65,1.65,1,4.3c0.2,0.2,0.2,0.51,0,0.71C21.77,9.97,21.64,10.02,21.51,10.02L21.51,10.02z"
			/>
	</g>
	<path fill="#F44336" d="M12.49,0H4.47C3.09,0,1.97,1.12,1.97,2.51v19.04c0,0.28,0.22,0.5,0.5,0.5H14.5c0.28,0,0.5-0.22,0.5-0.5
		V2.51C15,1.12,13.87,0,12.49,0z"/>
	<path fill="#CFD8DC" d="M4.47,2h8.02c0.28,0,0.5,0.22,0.5,0.5v6.01c0,0.28-0.22,0.5-0.5,0.5H4.47c-0.28,0-0.5-0.22-0.5-0.5V2.51
		C3.97,2.23,4.2,2,4.47,2z"/>
	<path fill="#455A64" d="M14.5,21.05H2.47c-0.83,0-1.5,0.67-1.5,1.5v1c0,0.28,0.22,0.5,0.5,0.5H15.5c0.28,0,0.5-0.22,0.5-0.5v-1
		C16,21.72,15.33,21.05,14.5,21.05z"/>
</g>
</svg>
